<svg version="1.1" xmlns="http://www.w3.org/2000/svg" xmlns:xlink="http://www.w3.org/1999/xlink" width="1600" height="940" viewBox="0 0 1600 940"><defs/><g transform="scale(1,1)"><g transform="scale(1,1)"><g transform="scale(1,1)"><rect fill="rgb(255,255,255)" stroke="none" x="0" y="0" width="1600" height="940" fill-opacity="1"/></g><g><path fill="rgb(111,177,217)" stroke="rgb(241,241,241)" paint-order="fill stroke markers" d=" M 0 68.75005987582709 L 43.75824064875561 84.2492651247136 L 140.03287713094662 61.869323666630606 L 148.5195799611824 0 L 0 0 L 0 68.75005987582709 L 0 68.75005987582709" fill-opacity="1" stroke-opacity="1" stroke-linecap="round" stroke-linejoin="round" stroke-miterlimit="10" stroke-width="3"/></g><g><path fill="rgb(111,177,217)" stroke="rgb(241,241,241)" paint-order="fill stroke markers" d=" M 0 232.8481796297911 L 75.66583885226478 252.6650469050672 L 101.24561161729004 189.0344040483947 L 43.75824064875561 84.2492651247136 L 0 68.75005987582709 L 0 232.8481796297911 L 0 232.8481796297911" fill-opacity="1" stroke-opacity="1" stroke-linecap="round" stroke-linejoin="round" stroke-miterlimit="10" stroke-width="3"/></g><g><path fill="rgb(111,177,217)" stroke="rgb(241,241,241)" paint-order="fill stroke markers" d=" M 0 402.3646055918027 L 99.13972207680405 289.81727736271364 L 75.66583885226478 252.6650469050672 L 0 232.8481796297911 L 0 402.3646055918027 L 0 402.3646055918027" fill-opacity="1" stroke-opacity="1" stroke-linecap="round" stroke-linejoin="round" stroke-miterlimit="10" stroke-width="3"/></g><g><path fill="rgb(111,177,217)" stroke="rgb(241,241,241)" paint-order="fill stroke markers" d=" M 0 433.3977475746386 L 128.73190148091751 398.62366122282566 L 99.5032369142463 289.98144679004986 L 99.13972207680405 289.81727736271364 L 0 402.3646055918027 L 0 433.3977475746386 L 0 433.3977475746386" fill-opacity="1" stroke-opacity="1" stroke-linecap="round" stroke-linejoin="round" stroke-miterlimit="10" stroke-width="3"/></g><g><path fill="rgb(111,177,217)" stroke="rgb(241,241,241)" paint-order="fill stroke markers" d=" M 0 447.72555143645644 L 67.08102481576925 485.8751514067998 L 142.75415659134205 418.5284778696564 L 128.73190148091751 398.62366122282566 L 0 433.3977475746386 L 0 447.72555143645644 L 0 447.72555143645644" fill-opacity="1" stroke-opacity="1" stroke-linecap="round" stroke-linejoin="round" stroke-miterlimit="10" stroke-width="3"/></g><g><path fill="rgb(111,177,217)" stroke="rgb(241,241,241)" paint-order="fill stroke markers" d=" M 0 626.4049466458027 L 39.39503779142815 633.3779537172096 L 115.37870922150924 556.4211138148655 L 67.08102481576925 485.8751514067998 L 0 447.72555143645644 L 0 626.4049466458027 L 0 626.4049466458027" fill-opacity="1" stroke-opacity="1" stroke-linecap="round" stroke-linejoin="round" stroke-miterlimit="10" stroke-width="3"/></g><g><path fill="rgb(111,177,217)" stroke="rgb(241,241,241)" paint-order="fill stroke markers" d=" M 0 803.5416972932217 L 10.655933170089696 797.6485981873093 L 57.84683323364561 668.2564155377484 L 39.39503779142815 633.3779537172096 L 0 626.4049466458027 L 0 803.5416972932217 L 0 803.5416972932217" fill-opacity="1" stroke-opacity="1" stroke-linecap="round" stroke-linejoin="round" stroke-miterlimit="10" stroke-width="3"/></g><g><path fill="rgb(111,177,217)" stroke="rgb(241,241,241)" paint-order="fill stroke markers" d=" M 10.655933170089696 797.6485981873093 L 112.46584256281778 800.9033166093077 L 140.79669020542744 717.1914813101437 L 57.84683323364561 668.2564155377484 L 10.655933170089696 797.6485981873093 L 10.655933170089696 797.6485981873093" fill-opacity="1" stroke-opacity="1" stroke-linecap="round" stroke-linejoin="round" stroke-miterlimit="10" stroke-width="3"/></g><g><path fill="rgb(111,177,217)" stroke="rgb(241,241,241)" paint-order="fill stroke markers" d=" M 80.28626335297275 940 L 123.34255767015212 816.9107903809497 L 112.46584256281778 800.9033166093077 L 10.655933170089696 797.6485981873093 L 0 803.5416972932217 L 0 940 L 80.28626335297275 940 L 80.28626335297275 940" fill-opacity="1" stroke-opacity="1" stroke-linecap="round" stroke-linejoin="round" stroke-miterlimit="10" stroke-width="3"/></g><g><path fill="rgb(111,177,217)" stroke="rgb(241,241,241)" paint-order="fill stroke markers" d=" M 140.03287713094662 61.869323666630606 L 177.52340883555863 106.40023933362225 L 273.76147801729843 69.42806568089922 L 153.20247696534955 0 L 148.5195799611824 0 L 140.03287713094662 61.869323666630606 L 140.03287713094662 61.869323666630606" fill-opacity="1" stroke-opacity="1" stroke-linecap="round" stroke-linejoin="round" stroke-miterlimit="10" stroke-width="3"/></g><g><path fill="rgb(111,177,217)" stroke="rgb(241,241,241)" paint-order="fill stroke markers" d=" M 43.75824064875561 84.2492651247136 L 101.24561161729004 189.0344040483947 L 172.28938547073378 141.63331506995408 L 177.52340883555863 106.40023933362225 L 140.03287713094662 61.869323666630606 L 43.75824064875561 84.2492651247136 L 43.75824064875561 84.2492651247136" fill-opacity="1" stroke-opacity="1" stroke-linecap="round" stroke-linejoin="round" stroke-miterlimit="10" stroke-width="3"/></g><g><path fill="rgb(111,177,217)" stroke="rgb(241,241,241)" paint-order="fill stroke markers" d=" M 75.66583885226478 252.6650469050672 L 99.13972207680405 289.81727736271364 L 99.5032369142463 289.98144679004986 L 210.08788662401355 292.05249786936383 L 243.99146534116255 214.97823080153128 L 172.28938547073378 141.63331506995408 L 101.24561161729004 189.0344040483947 L 75.66583885226478 252.6650469050672 L 75.66583885226478 252.6650469050672" fill-opacity="1" stroke-opacity="1" stroke-linecap="round" stroke-linejoin="round" stroke-miterlimit="10" stroke-width="3"/></g><g><path fill="rgb(111,177,217)" stroke="rgb(241,241,241)" paint-order="fill stroke markers" d=" M 99.5032369142463 289.98144679004986 L 128.73190148091751 398.62366122282566 L 142.75415659134205 418.5284778696564 L 193.58549414346402 436.6914415744034 L 241.40755994704966 378.26027292008615 L 241.36554996655582 331.68407311497134 L 210.08788662401355 292.05249786936383 L 99.5032369142463 289.98144679004986 L 99.5032369142463 289.98144679004986" fill-opacity="1" stroke-opacity="1" stroke-linecap="round" stroke-linejoin="round" stroke-miterlimit="10" stroke-width="3"/></g><g><path fill="rgb(111,177,217)" stroke="rgb(241,241,241)" paint-order="fill stroke markers" d=" M 67.08102481576925 485.8751514067998 L 115.37870922150924 556.4211138148655 L 116.50299715779553 556.4049183092067 L 194.8676413020246 529.7243945214047 L 203.4913977744293 518.3469317223498 L 193.58549414346402 436.6914415744034 L 142.75415659134205 418.5284778696564 L 67.08102481576925 485.8751514067998 L 67.08102481576925 485.8751514067998" fill-opacity="1" stroke-opacity="1" stroke-linecap="round" stroke-linejoin="round" stroke-miterlimit="10" stroke-width="3"/></g><g><path fill="rgb(111,177,217)" stroke="rgb(241,241,241)" paint-order="fill stroke markers" d=" M 116.50299715779553 556.4049183092067 L 196.23401863870944 699.857401342815 L 215.3515555629145 700.532023193637 L 241.6483924442719 626.3643730141529 L 194.8676413020246 529.7243945214047 L 116.50299715779553 556.4049183092067 L 116.50299715779553 556.4049183092067" fill-opacity="1" stroke-opacity="1" stroke-linecap="round" stroke-linejoin="round" stroke-miterlimit="10" stroke-width="3"/></g><g><path fill="rgb(111,177,217)" stroke="rgb(241,241,241)" paint-order="fill stroke markers" d=" M 39.39503779142815 633.3779537172096 L 57.84683323364561 668.2564155377484 L 140.79669020542744 717.1914813101437 L 196.23401863870944 699.857401342815 L 116.50299715779553 556.4049183092067 L 115.37870922150924 556.4211138148655 L 39.39503779142815 633.3779537172096 L 39.39503779142815 633.3779537172096" fill-opacity="1" stroke-opacity="1" stroke-linecap="round" stroke-linejoin="round" stroke-miterlimit="10" stroke-width="3"/></g><g><path fill="rgb(111,177,217)" stroke="rgb(241,241,241)" paint-order="fill stroke markers" d=" M 112.46584256281778 800.9033166093077 L 123.34255767015212 816.9107903809497 L 178.67482963301373 836.3519184901052 L 256.0721327793874 738.9427029214734 L 215.3515555629145 700.532023193637 L 196.23401863870944 699.857401342815 L 140.79669020542744 717.1914813101437 L 112.46584256281778 800.9033166093077 L 112.46584256281778 800.9033166093077" fill-opacity="1" stroke-opacity="1" stroke-linecap="round" stroke-linejoin="round" stroke-miterlimit="10" stroke-width="3"/></g><g><path fill="rgb(111,177,217)" stroke="rgb(241,241,241)" paint-order="fill stroke markers" d=" M 177.21862970630877 940 L 198.3879692614313 870.6974312641797 L 178.67482963301373 836.3519184901052 L 123.34255767015212 816.9107903809497 L 80.28626335297275 940 L 177.21862970630877 940 L 177.21862970630877 940" fill-opacity="1" stroke-opacity="1" stroke-linecap="round" stroke-linejoin="round" stroke-miterlimit="10" stroke-width="3"/></g><g><path fill="rgb(111,177,217)" stroke="rgb(241,241,241)" paint-order="fill stroke markers" d=" M 153.20247696534955 0 L 273.76147801729843 69.42806568089922 L 307.796071102807 61.40066520701895 L 332.3946091777667 0 L 153.20247696534955 0 L 153.20247696534955 0" fill-opacity="1" stroke-opacity="1" stroke-linecap="round" stroke-linejoin="round" stroke-miterlimit="10" stroke-width="3"/></g><g><path fill="rgb(111,177,217)" stroke="rgb(241,241,241)" paint-order="fill stroke markers" d=" M 172.28938547073378 141.63331506995408 L 243.99146534116255 214.97823080153128 L 313.81441834130027 182.70948846715197 L 324.395204325999 128.83192382957063 L 307.796071102807 61.40066520701895 L 273.76147801729843 69.42806568089922 L 177.52340883555863 106.40023933362225 L 172.28938547073378 141.63331506995408 L 172.28938547073378 141.63331506995408" fill-opacity="1" stroke-opacity="1" stroke-linecap="round" stroke-linejoin="round" stroke-miterlimit="10" stroke-width="3"/></g><g><path fill="rgb(111,177,217)" stroke="rgb(241,241,241)" paint-order="fill stroke markers" d=" M 210.08788662401355 292.05249786936383 L 241.36554996655582 331.68407311497134 L 342.07488437726204 314.1950204633962 L 358.82020130741023 228.74351463552233 L 313.81441834130027 182.70948846715197 L 243.99146534116255 214.97823080153128 L 210.08788662401355 292.05249786936383 L 210.08788662401355 292.05249786936383" fill-opacity="1" stroke-opacity="1" stroke-linecap="round" stroke-linejoin="round" stroke-miterlimit="10" stroke-width="3"/></g><g><path fill="rgb(111,177,217)" stroke="rgb(241,241,241)" paint-order="fill stroke markers" d=" M 241.36554996655582 331.68407311497134 L 241.40755994704966 378.26027292008615 L 276.7956183676895 403.36341401299944 L 392.17543686940604 393.4785396672839 L 385.06916596732174 354.9506524650082 L 342.07488437726204 314.1950204633962 L 241.36554996655582 331.68407311497134 L 241.36554996655582 331.68407311497134" fill-opacity="1" stroke-opacity="1" stroke-linecap="round" stroke-linejoin="round" stroke-miterlimit="10" stroke-width="3"/></g><g><path fill="rgb(111,177,217)" stroke="rgb(241,241,241)" paint-order="fill stroke markers" d=" M 193.58549414346402 436.6914415744034 L 203.4913977744293 518.3469317223498 L 321.28003070346864 508.6700586967069 L 276.7956183676895 403.36341401299944 L 241.40755994704966 378.26027292008615 L 193.58549414346402 436.6914415744034 L 193.58549414346402 436.6914415744034" fill-opacity="1" stroke-opacity="1" stroke-linecap="round" stroke-linejoin="round" stroke-miterlimit="10" stroke-width="3"/></g><g><path fill="rgb(111,177,217)" stroke="rgb(241,241,241)" paint-order="fill stroke markers" d=" M 194.8676413020246 529.7243945214047 L 241.6483924442719 626.3643730141529 L 300.58847075444584 610.8832913645222 L 341.15214829765534 559.9418215602961 L 327.5269470103441 510.8100037333959 L 321.28003070346864 508.6700586967069 L 203.4913977744293 518.3469317223498 L 194.8676413020246 529.7243945214047 L 194.8676413020246 529.7243945214047" fill-opacity="1" stroke-opacity="1" stroke-linecap="round" stroke-linejoin="round" stroke-miterlimit="10" stroke-width="3"/></g><g><path fill="rgb(111,177,217)" stroke="rgb(241,241,241)" paint-order="fill stroke markers" d=" M 215.3515555629145 700.532023193637 L 256.0721327793874 738.9427029214734 L 259.4791055472847 740.1561642370312 L 295.66688715388557 732.6812427380013 L 331.23365345469864 668.9095391236658 L 300.58847075444584 610.8832913645222 L 241.6483924442719 626.3643730141529 L 215.3515555629145 700.532023193637 L 215.3515555629145 700.532023193637" fill-opacity="1" stroke-opacity="1" stroke-linecap="round" stroke-linejoin="round" stroke-miterlimit="10" stroke-width="3"/></g><g><path fill="rgb(111,177,217)" stroke="rgb(241,241,241)" paint-order="fill stroke markers" d=" M 178.67482963301373 836.3519184901052 L 198.3879692614313 870.6974312641797 L 290.4289262223009 862.2015100849447 L 259.4791055472847 740.1561642370312 L 256.0721327793874 738.9427029214734 L 178.67482963301373 836.3519184901052 L 178.67482963301373 836.3519184901052" fill-opacity="1" stroke-opacity="1" stroke-linecap="round" stroke-linejoin="round" stroke-miterlimit="10" stroke-width="3"/></g><g><path fill="rgb(111,177,217)" stroke="rgb(241,241,241)" paint-order="fill stroke markers" d=" M 312.03568043576894 940 L 312.0603318374845 879.2300955054494 L 290.4289262223009 862.2015100849447 L 198.3879692614313 870.6974312641797 L 177.21862970630877 940 L 312.03568043576894 940 L 312.03568043576894 940" fill-opacity="1" stroke-opacity="1" stroke-linecap="round" stroke-linejoin="round" stroke-miterlimit="10" stroke-width="3"/></g><g><path fill="rgb(111,177,217)" stroke="rgb(241,241,241)" paint-order="fill stroke markers" d=" M 307.796071102807 61.40066520701895 L 324.395204325999 128.83192382957063 L 417.6673018686069 135.6636995601483 L 454.91550477598673 113.89140323293611 L 370.2988334124338 0 L 332.3946091777667 0 L 307.796071102807 61.40066520701895 L 307.796071102807 61.40066520701895" fill-opacity="1" stroke-opacity="1" stroke-linecap="round" stroke-linejoin="round" stroke-miterlimit="10" stroke-width="3"/></g><g><path fill="rgb(111,177,217)" stroke="rgb(241,241,241)" paint-order="fill stroke markers" d=" M 313.81441834130027 182.70948846715197 L 358.82020130741023 228.74351463552233 L 373.64921311686425 228.62993029332424 L 423.785015497616 199.66057657529865 L 417.6673018686069 135.6636995601483 L 324.395204325999 128.83192382957063 L 313.81441834130027 182.70948846715197 L 313.81441834130027 182.70948846715197" fill-opacity="1" stroke-opacity="1" stroke-linecap="round" stroke-linejoin="round" stroke-miterlimit="10" stroke-width="3"/></g><g><path fill="rgb(111,177,217)" stroke="rgb(241,241,241)" paint-order="fill stroke markers" d=" M 342.07488437726204 314.1950204633962 L 385.06916596732174 354.9506524650082 L 456.87276454529234 290.2081953634865 L 373.64921311686425 228.62993029332424 L 358.82020130741023 228.74351463552233 L 342.07488437726204 314.1950204633962 L 342.07488437726204 314.1950204633962" fill-opacity="1" stroke-opacity="1" stroke-linecap="round" stroke-linejoin="round" stroke-miterlimit="10" stroke-width="3"/></g><g><path fill="rgb(111,177,217)" stroke="rgb(241,241,241)" paint-order="fill stroke markers" d=" M 276.7956183676895 403.36341401299944 L 321.28003070346864 508.6700586967069 L 327.5269470103441 510.8100037333959 L 419.38053044194396 439.1566518143048 L 392.17543686940604 393.4785396672839 L 276.7956183676895 403.36341401299944 L 276.7956183676895 403.36341401299944" fill-opacity="1" stroke-opacity="1" stroke-linecap="round" stroke-linejoin="round" stroke-miterlimit="10" stroke-width="3"/></g><g><path fill="rgb(111,177,217)" stroke="rgb(241,241,241)" paint-order="fill stroke markers" d=" M 327.5269470103441 510.8100037333959 L 341.15214829765534 559.9418215602961 L 439.1935581827132 627.7926729955096 L 447.89160969904066 621.4058428479407 L 452.9806241125749 615.6864367821634 L 473.7633373336392 500.1556448481929 L 422.1340333593787 439.83189926292357 L 419.38053044194396 439.1566518143048 L 327.5269470103441 510.8100037333959 L 327.5269470103441 510.8100037333959" fill-opacity="1" stroke-opacity="1" stroke-linecap="round" stroke-linejoin="round" stroke-miterlimit="10" stroke-width="3"/></g><g><path fill="rgb(111,177,217)" stroke="rgb(241,241,241)" paint-order="fill stroke markers" d=" M 300.58847075444584 610.8832913645222 L 331.23365345469864 668.9095391236658 L 435.8555736363429 638.5918560326811 L 439.1935581827132 627.7926729955096 L 341.15214829765534 559.9418215602961 L 300.58847075444584 610.8832913645222 L 300.58847075444584 610.8832913645222" fill-opacity="1" stroke-opacity="1" stroke-linecap="round" stroke-linejoin="round" stroke-miterlimit="10" stroke-width="3"/></g><g><path fill="rgb(111,177,217)" stroke="rgb(241,241,241)" paint-order="fill stroke markers" d=" M 295.66688715388557 732.6812427380013 L 424.62272020394806 777.6548532007878 L 443.4233409335314 755.5180845090531 L 435.8555736363429 638.5918560326811 L 331.23365345469864 668.9095391236658 L 295.66688715388557 732.6812427380013 L 295.66688715388557 732.6812427380013" fill-opacity="1" stroke-opacity="1" stroke-linecap="round" stroke-linejoin="round" stroke-miterlimit="10" stroke-width="3"/></g><g><path fill="rgb(111,177,217)" stroke="rgb(241,241,241)" paint-order="fill stroke markers" d=" M 259.4791055472847 740.1561642370312 L 290.4289262223009 862.2015100849447 L 312.0603318374845 879.2300955054494 L 419.66924970201705 818.0616934384362 L 424.62272020394806 777.6548532007878 L 295.66688715388557 732.6812427380013 L 259.4791055472847 740.1561642370312 L 259.4791055472847 740.1561642370312" fill-opacity="1" stroke-opacity="1" stroke-linecap="round" stroke-linejoin="round" stroke-miterlimit="10" stroke-width="3"/></g><g><path fill="rgb(111,177,217)" stroke="rgb(241,241,241)" paint-order="fill stroke markers" d=" M 452.39919013418375 940 L 425.66853389322876 827.8608496431546 L 419.66924970201705 818.0616934384362 L 312.0603318374845 879.2300955054494 L 312.03568043576894 940 L 452.39919013418375 940 L 452.39919013418375 940" fill-opacity="1" stroke-opacity="1" stroke-linecap="round" stroke-linejoin="round" stroke-miterlimit="10" stroke-width="3"/></g><g><path fill="rgb(111,177,217)" stroke="rgb(241,241,241)" paint-order="fill stroke markers" d=" M 370.2988334124338 0 L 454.91550477598673 113.89140323293611 L 502.2606235924486 119.37755058359178 L 500.91194020273883 0 L 370.2988334124338 0 L 370.2988334124338 0" fill-opacity="1" stroke-opacity="1" stroke-linecap="round" stroke-linejoin="round" stroke-miterlimit="10" stroke-width="3"/></g><g><path fill="rgb(111,177,217)" stroke="rgb(241,241,241)" paint-order="fill stroke markers" d=" M 417.6673018686069 135.6636995601483 L 423.785015497616 199.66057657529865 L 543.6614585361131 210.3003799694348 L 540.249342665584 156.86247595427287 L 502.2606235924486 119.37755058359178 L 454.91550477598673 113.89140323293611 L 417.6673018686069 135.6636995601483 L 417.6673018686069 135.6636995601483" fill-opacity="1" stroke-opacity="1" stroke-linecap="round" stroke-linejoin="round" stroke-miterlimit="10" stroke-width="3"/></g><g><path fill="rgb(111,177,217)" stroke="rgb(241,241,241)" paint-order="fill stroke markers" d=" M 373.64921311686425 228.62993029332424 L 456.87276454529234 290.2081953634865 L 520.3816507436832 280.14191579986255 L 549.2688904169828 223.91486164956046 L 543.6614585361131 210.3003799694348 L 423.785015497616 199.66057657529865 L 373.64921311686425 228.62993029332424 L 373.64921311686425 228.62993029332424" fill-opacity="1" stroke-opacity="1" stroke-linecap="round" stroke-linejoin="round" stroke-miterlimit="10" stroke-width="3"/></g><g><path fill="rgb(111,177,217)" stroke="rgb(241,241,241)" paint-order="fill stroke markers" d=" M 385.06916596732174 354.9506524650082 L 392.17543686940604 393.4785396672839 L 419.38053044194396 439.1566518143048 L 422.1340333593787 439.83189926292357 L 533.9653979339894 361.4372884786811 L 520.3816507436832 280.14191579986255 L 456.87276454529234 290.2081953634865 L 385.06916596732174 354.9506524650082 L 385.06916596732174 354.9506524650082" fill-opacity="1" stroke-opacity="1" stroke-linecap="round" stroke-linejoin="round" stroke-miterlimit="10" stroke-width="3"/></g><g><path fill="rgb(111,177,217)" stroke="rgb(241,241,241)" paint-order="fill stroke markers" d=" M 422.1340333593787 439.83189926292357 L 473.7633373336392 500.1556448481929 L 517.8291003067899 499.05278409271995 L 565.3554415269065 443.3829328675401 L 534.7963946140875 362.0343284462795 L 533.9653979339894 361.4372884786811 L 422.1340333593787 439.83189926292357 L 422.1340333593787 439.83189926292357" fill-opacity="1" stroke-opacity="1" stroke-linecap="round" stroke-linejoin="round" stroke-miterlimit="10" stroke-width="3"/></g><g><path fill="rgb(111,177,217)" stroke="rgb(241,241,241)" paint-order="fill stroke markers" d=" M 452.9806241125749 615.6864367821634 L 529.9059487887597 604.006642244016 L 581.8285753125565 555.8931845506798 L 581.8762368629561 547.6238791458575 L 517.8291003067899 499.05278409271995 L 473.7633373336392 500.1556448481929 L 452.9806241125749 615.6864367821634 L 452.9806241125749 615.6864367821634" fill-opacity="1" stroke-opacity="1" stroke-linecap="round" stroke-linejoin="round" stroke-miterlimit="10" stroke-width="3"/></g><g><path fill="rgb(111,177,217)" stroke="rgb(241,241,241)" paint-order="fill stroke markers" d=" M 435.8555736363429 638.5918560326811 L 443.4233409335314 755.5180845090531 L 574.9862044888182 755.9750289367555 L 588.5070531473189 737.2376863396222 L 595.3285463223058 708.0797279872432 L 447.89160969904066 621.4058428479407 L 439.1935581827132 627.7926729955096 L 435.8555736363429 638.5918560326811 L 435.8555736363429 638.5918560326811" fill-opacity="1" stroke-opacity="1" stroke-linecap="round" stroke-linejoin="round" stroke-miterlimit="10" stroke-width="3"/></g><g><path fill="rgb(111,177,217)" stroke="rgb(241,241,241)" paint-order="fill stroke markers" d=" M 419.66924970201705 818.0616934384362 L 425.66853389322876 827.8608496431546 L 551.9851785950342 867.3822096120352 L 576.8388397787782 858.7254885666406 L 581.4539178262254 780.3631969434477 L 574.9862044888182 755.9750289367555 L 443.4233409335314 755.5180845090531 L 424.62272020394806 777.6548532007878 L 419.66924970201705 818.0616934384362 L 419.66924970201705 818.0616934384362" fill-opacity="1" stroke-opacity="1" stroke-linecap="round" stroke-linejoin="round" stroke-miterlimit="10" stroke-width="3"/></g><g><path fill="rgb(111,177,217)" stroke="rgb(241,241,241)" paint-order="fill stroke markers" d=" M 425.66853389322876 827.8608496431546 L 452.39919013418375 940 L 492.65255367708045 940 L 551.9851785950342 867.3822096120352 L 425.66853389322876 827.8608496431546 L 425.66853389322876 827.8608496431546" fill-opacity="1" stroke-opacity="1" stroke-linecap="round" stroke-linejoin="round" stroke-miterlimit="10" stroke-width="3"/></g><g><path fill="rgb(111,177,217)" stroke="rgb(241,241,241)" paint-order="fill stroke markers" d=" M 500.91194020273883 0 L 502.2606235924486 119.37755058359178 L 540.249342665584 156.86247595427287 L 631.358371891485 69.70019813932674 L 606.3150273075807 0 L 500.91194020273883 0 L 500.91194020273883 0" fill-opacity="1" stroke-opacity="1" stroke-linecap="round" stroke-linejoin="round" stroke-miterlimit="10" stroke-width="3"/></g><g><path fill="rgb(111,177,217)" stroke="rgb(241,241,241)" paint-order="fill stroke markers" d=" M 540.249342665584 156.86247595427287 L 543.6614585361131 210.3003799694348 L 549.2688904169828 223.91486164956046 L 598.7900885711394 233.61270109401937 L 701.7552168261464 173.41829847336834 L 638.2083206090754 72.12942974056638 L 631.358371891485 69.70019813932674 L 540.249342665584 156.86247595427287 L 540.249342665584 156.86247595427287" fill-opacity="1" stroke-opacity="1" stroke-linecap="round" stroke-linejoin="round" stroke-miterlimit="10" stroke-width="3"/></g><g><path fill="rgb(111,177,217)" stroke="rgb(241,241,241)" paint-order="fill stroke markers" d=" M 520.3816507436832 280.14191579986255 L 533.9653979339894 361.4372884786811 L 534.7963946140875 362.0343284462795 L 651.9379642840713 370.83611751665796 L 680.0779500046693 314.2876364508577 L 598.7900885711394 233.61270109401937 L 549.2688904169828 223.91486164956046 L 520.3816507436832 280.14191579986255 L 520.3816507436832 280.14191579986255" fill-opacity="1" stroke-opacity="1" stroke-linecap="round" stroke-linejoin="round" stroke-miterlimit="10" stroke-width="3"/></g><g><path fill="rgb(111,177,217)" stroke="rgb(241,241,241)" paint-order="fill stroke markers" d=" M 534.7963946140875 362.0343284462795 L 565.3554415269065 443.3829328675401 L 606.7109796230194 455.8630376623512 L 664.1344941756713 416.7576955416892 L 651.9379642840713 370.83611751665796 L 534.7963946140875 362.0343284462795 L 534.7963946140875 362.0343284462795" fill-opacity="1" stroke-opacity="1" stroke-linecap="round" stroke-linejoin="round" stroke-miterlimit="10" stroke-width="3"/></g><g><path fill="rgb(111,177,217)" stroke="rgb(241,241,241)" paint-order="fill stroke markers" d=" M 517.8291003067899 499.05278409271995 L 581.8762368629561 547.6238791458575 L 613.6601140684713 517.492582092206 L 606.7109796230194 455.8630376623512 L 565.3554415269065 443.3829328675401 L 517.8291003067899 499.05278409271995 L 517.8291003067899 499.05278409271995" fill-opacity="1" stroke-opacity="1" stroke-linecap="round" stroke-linejoin="round" stroke-miterlimit="10" stroke-width="3"/></g><g><path fill="rgb(111,177,217)" stroke="rgb(241,241,241)" paint-order="fill stroke markers" d=" M 529.9059487887597 604.006642244016 L 606.1978112476236 686.7882945573677 L 656.1999460074951 640.2849857285322 L 581.8285753125565 555.8931845506798 L 529.9059487887597 604.006642244016 L 529.9059487887597 604.006642244016" fill-opacity="1" stroke-opacity="1" stroke-linecap="round" stroke-linejoin="round" stroke-miterlimit="10" stroke-width="3"/></g><g><path fill="rgb(111,177,217)" stroke="rgb(241,241,241)" paint-order="fill stroke markers" d=" M 447.89160969904066 621.4058428479407 L 595.3285463223058 708.0797279872432 L 606.1978112476236 686.7882945573677 L 529.9059487887597 604.006642244016 L 452.9806241125749 615.6864367821634 L 447.89160969904066 621.4058428479407 L 447.89160969904066 621.4058428479407" fill-opacity="1" stroke-opacity="1" stroke-linecap="round" stroke-linejoin="round" stroke-miterlimit="10" stroke-width="3"/></g><g><path fill="rgb(111,177,217)" stroke="rgb(241,241,241)" paint-order="fill stroke markers" d=" M 576.8388397787782 858.7254885666406 L 648.1294780656424 933.130586627689 L 701.0160285371009 886.1835123260365 L 710.4788832211498 838.0368480274483 L 581.4539178262254 780.3631969434477 L 576.8388397787782 858.7254885666406 L 576.8388397787782 858.7254885666406" fill-opacity="1" stroke-opacity="1" stroke-linecap="round" stroke-linejoin="round" stroke-miterlimit="10" stroke-width="3"/></g><g><path fill="rgb(111,177,217)" stroke="rgb(241,241,241)" paint-order="fill stroke markers" d=" M 647.0333958649854 940 L 648.1294780656424 933.130586627689 L 576.8388397787782 858.7254885666406 L 551.9851785950342 867.3822096120352 L 492.65255367708045 940 L 647.0333958649854 940 L 647.0333958649854 940" fill-opacity="1" stroke-opacity="1" stroke-linecap="round" stroke-linejoin="round" stroke-miterlimit="10" stroke-width="3"/></g><g><path fill="rgb(111,177,217)" stroke="rgb(241,241,241)" paint-order="fill stroke markers" d=" M 606.3150273075807 0 L 631.358371891485 69.70019813932674 L 638.2083206090754 72.12942974056638 L 723.6414621019595 52.688834909817 L 738.2178177897075 0 L 606.3150273075807 0 L 606.3150273075807 0" fill-opacity="1" stroke-opacity="1" stroke-linecap="round" stroke-linejoin="round" stroke-miterlimit="10" stroke-width="3"/></g><g><path fill="rgb(111,177,217)" stroke="rgb(241,241,241)" paint-order="fill stroke markers" d=" M 638.2083206090754 72.12942974056638 L 701.7552168261464 173.41829847336834 L 763.8118886209402 184.6162055267314 L 784.5826443616875 150.50500412343231 L 782.779989701271 103.67042117082792 L 723.6414621019595 52.688834909817 L 638.2083206090754 72.12942974056638 L 638.2083206090754 72.12942974056638" fill-opacity="1" stroke-opacity="1" stroke-linecap="round" stroke-linejoin="round" stroke-miterlimit="10" stroke-width="3"/></g><g><path fill="rgb(111,177,217)" stroke="rgb(241,241,241)" paint-order="fill stroke markers" d=" M 598.7900885711394 233.61270109401937 L 680.0779500046693 314.2876364508577 L 757.6582985754519 297.13224232745665 L 771.4490557663178 214.31162486480486 L 763.8118886209402 184.6162055267314 L 701.7552168261464 173.41829847336834 L 598.7900885711394 233.61270109401937 L 598.7900885711394 233.61270109401937" fill-opacity="1" stroke-opacity="1" stroke-linecap="round" stroke-linejoin="round" stroke-miterlimit="10" stroke-width="3"/></g><g><path fill="rgb(111,177,217)" stroke="rgb(241,241,241)" paint-order="fill stroke markers" d=" M 651.9379642840713 370.83611751665796 L 664.1344941756713 416.7576955416892 L 708.0560320076665 449.030363705053 L 748.0333230444252 432.0832859705965 L 775.9080675370101 316.81273000846505 L 757.6582985754519 297.13224232745665 L 680.0779500046693 314.2876364508577 L 651.9379642840713 370.83611751665796 L 651.9379642840713 370.83611751665796" fill-opacity="1" stroke-opacity="1" stroke-linecap="round" stroke-linejoin="round" stroke-miterlimit="10" stroke-width="3"/></g><g><path fill="rgb(111,177,217)" stroke="rgb(241,241,241)" paint-order="fill stroke markers" d=" M 606.7109796230194 455.8630376623512 L 613.6601140684713 517.492582092206 L 702.3265848019234 521.8819164867106 L 708.0560320076665 449.030363705053 L 664.1344941756713 416.7576955416892 L 606.7109796230194 455.8630376623512 L 606.7109796230194 455.8630376623512" fill-opacity="1" stroke-opacity="1" stroke-linecap="round" stroke-linejoin="round" stroke-miterlimit="10" stroke-width="3"/></g><g><path fill="rgb(111,177,217)" stroke="rgb(241,241,241)" paint-order="fill stroke markers" d=" M 581.8285753125565 555.8931845506798 L 656.1999460074951 640.2849857285322 L 730.1360368913593 624.613672585726 L 726.4364588050317 566.0438032075926 L 702.3265848019234 521.8819164867106 L 613.6601140684713 517.492582092206 L 581.8762368629561 547.6238791458575 L 581.8285753125565 555.8931845506798 L 581.8285753125565 555.8931845506798" fill-opacity="1" stroke-opacity="1" stroke-linecap="round" stroke-linejoin="round" stroke-miterlimit="10" stroke-width="3"/></g><g><path fill="rgb(111,177,217)" stroke="rgb(241,241,241)" paint-order="fill stroke markers" d=" M 588.5070531473189 737.2376863396222 L 735.6412689375876 770.3890831796391 L 760.2752500713178 731.5936063561614 L 754.3747470151206 643.2323354177678 L 730.1360368913593 624.613672585726 L 656.1999460074951 640.2849857285322 L 606.1978112476236 686.7882945573677 L 595.3285463223058 708.0797279872432 L 588.5070531473189 737.2376863396222 L 588.5070531473189 737.2376863396222" fill-opacity="1" stroke-opacity="1" stroke-linecap="round" stroke-linejoin="round" stroke-miterlimit="10" stroke-width="3"/></g><g><path fill="rgb(111,177,217)" stroke="rgb(241,241,241)" paint-order="fill stroke markers" d=" M 574.9862044888182 755.9750289367555 L 581.4539178262254 780.3631969434477 L 710.4788832211498 838.0368480274483 L 732.1156167402156 803.3415849471031 L 735.6412689375876 770.3890831796391 L 588.5070531473189 737.2376863396222 L 574.9862044888182 755.9750289367555 L 574.9862044888182 755.9750289367555" fill-opacity="1" stroke-opacity="1" stroke-linecap="round" stroke-linejoin="round" stroke-miterlimit="10" stroke-width="3"/></g><g><path fill="rgb(111,177,217)" stroke="rgb(241,241,241)" paint-order="fill stroke markers" d=" M 803.2728142655233 940 L 801.0381703421563 920.2503117794777 L 701.0160285371009 886.1835123260365 L 648.1294780656424 933.130586627689 L 647.0333958649854 940 L 803.2728142655233 940 L 803.2728142655233 940" fill-opacity="1" stroke-opacity="1" stroke-linecap="round" stroke-linejoin="round" stroke-miterlimit="10" stroke-width="3"/></g><g><path fill="rgb(111,177,217)" stroke="rgb(241,241,241)" paint-order="fill stroke markers" d=" M 723.6414621019595 52.688834909817 L 782.779989701271 103.67042117082792 L 847.1240883441869 30.68684158054957 L 838.2288788054013 0 L 738.2178177897075 0 L 723.6414621019595 52.688834909817 L 723.6414621019595 52.688834909817" fill-opacity="1" stroke-opacity="1" stroke-linecap="round" stroke-linejoin="round" stroke-miterlimit="10" stroke-width="3"/></g><g><path fill="rgb(111,177,217)" stroke="rgb(241,241,241)" paint-order="fill stroke markers" d=" M 763.8118886209402 184.6162055267314 L 771.4490557663178 214.31162486480486 L 925.1443562432826 245.32198292869273 L 929.6459640692104 239.52156767690866 L 940.3222735557688 146.32022720068542 L 784.5826443616875 150.50500412343231 L 763.8118886209402 184.6162055267314 L 763.8118886209402 184.6162055267314" fill-opacity="1" stroke-opacity="1" stroke-linecap="round" stroke-linejoin="round" stroke-miterlimit="10" stroke-width="3"/></g><g><path fill="rgb(111,177,217)" stroke="rgb(241,241,241)" paint-order="fill stroke markers" d=" M 757.6582985754519 297.13224232745665 L 775.9080675370101 316.81273000846505 L 776.339745695839 316.9564519912237 L 921.1629321107591 262.27296566193996 L 925.1443562432826 245.32198292869273 L 771.4490557663178 214.31162486480486 L 757.6582985754519 297.13224232745665 L 757.6582985754519 297.13224232745665" fill-opacity="1" stroke-opacity="1" stroke-linecap="round" stroke-linejoin="round" stroke-miterlimit="10" stroke-width="3"/></g><g><path fill="rgb(111,177,217)" stroke="rgb(241,241,241)" paint-order="fill stroke markers" d=" M 748.0333230444252 432.0832859705965 L 834.1796858231512 462.71560003002907 L 870.8943898489649 440.9743154499238 L 851.0584271131222 371.2537700451852 L 776.339745695839 316.9564519912237 L 775.9080675370101 316.81273000846505 L 748.0333230444252 432.0832859705965 L 748.0333230444252 432.0832859705965" fill-opacity="1" stroke-opacity="1" stroke-linecap="round" stroke-linejoin="round" stroke-miterlimit="10" stroke-width="3"/></g><g><path fill="rgb(111,177,217)" stroke="rgb(241,241,241)" paint-order="fill stroke markers" d=" M 702.3265848019234 521.8819164867106 L 726.4364588050317 566.0438032075926 L 825.3928549887307 489.24163353256006 L 834.1796858231512 462.71560003002907 L 748.0333230444252 432.0832859705965 L 708.0560320076665 449.030363705053 L 702.3265848019234 521.8819164867106 L 702.3265848019234 521.8819164867106" fill-opacity="1" stroke-opacity="1" stroke-linecap="round" stroke-linejoin="round" stroke-miterlimit="10" stroke-width="3"/></g><g><path fill="rgb(111,177,217)" stroke="rgb(241,241,241)" paint-order="fill stroke markers" d=" M 726.4364588050317 566.0438032075926 L 730.1360368913593 624.613672585726 L 754.3747470151206 643.2323354177678 L 857.3882307261324 622.7472300178222 L 865.7167758417244 605.834472430391 L 825.3928549887307 489.24163353256006 L 726.4364588050317 566.0438032075926 L 726.4364588050317 566.0438032075926" fill-opacity="1" stroke-opacity="1" stroke-linecap="round" stroke-linejoin="round" stroke-miterlimit="10" stroke-width="3"/></g><g><path fill="rgb(111,177,217)" stroke="rgb(241,241,241)" paint-order="fill stroke markers" d=" M 754.3747470151206 643.2323354177678 L 760.2752500713178 731.5936063561614 L 824.8842536433941 757.7816307118521 L 901.6641968911304 732.8564756123086 L 904.2561909680871 672.8837680650823 L 857.3882307261324 622.7472300178222 L 754.3747470151206 643.2323354177678 L 754.3747470151206 643.2323354177678" fill-opacity="1" stroke-opacity="1" stroke-linecap="round" stroke-linejoin="round" stroke-miterlimit="10" stroke-width="3"/></g><g><path fill="rgb(111,177,217)" stroke="rgb(241,241,241)" paint-order="fill stroke markers" d=" M 732.1156167402156 803.3415849471031 L 853.3382019017115 863.2687554946149 L 856.1574248235289 862.074793230897 L 824.8842536433941 757.7816307118521 L 760.2752500713178 731.5936063561614 L 735.6412689375876 770.3890831796391 L 732.1156167402156 803.3415849471031 L 732.1156167402156 803.3415849471031" fill-opacity="1" stroke-opacity="1" stroke-linecap="round" stroke-linejoin="round" stroke-miterlimit="10" stroke-width="3"/></g><g><path fill="rgb(111,177,217)" stroke="rgb(241,241,241)" paint-order="fill stroke markers" d=" M 701.0160285371009 886.1835123260365 L 801.0381703421563 920.2503117794777 L 853.3382019017115 863.2687554946149 L 732.1156167402156 803.3415849471031 L 710.4788832211498 838.0368480274483 L 701.0160285371009 886.1835123260365 L 701.0160285371009 886.1835123260365" fill-opacity="1" stroke-opacity="1" stroke-linecap="round" stroke-linejoin="round" stroke-miterlimit="10" stroke-width="3"/></g><g><path fill="rgb(111,177,217)" stroke="rgb(241,241,241)" paint-order="fill stroke markers" d=" M 838.2288788054013 0 L 847.1240883441869 30.68684158054957 L 938.5972847825502 77.03266129848824 L 939.6414518220096 0 L 838.2288788054013 0 L 838.2288788054013 0" fill-opacity="1" stroke-opacity="1" stroke-linecap="round" stroke-linejoin="round" stroke-miterlimit="10" stroke-width="3"/></g><g><path fill="rgb(111,177,217)" stroke="rgb(241,241,241)" paint-order="fill stroke markers" d=" M 782.779989701271 103.67042117082792 L 784.5826443616875 150.50500412343231 L 940.3222735557688 146.32022720068542 L 967.2495079460209 108.44434362365966 L 938.5972847825502 77.03266129848824 L 847.1240883441869 30.68684158054957 L 782.779989701271 103.67042117082792 L 782.779989701271 103.67042117082792" fill-opacity="1" stroke-opacity="1" stroke-linecap="round" stroke-linejoin="round" stroke-miterlimit="10" stroke-width="3"/></g><g><path fill="rgb(111,177,217)" stroke="rgb(241,241,241)" paint-order="fill stroke markers" d=" M 776.339745695839 316.9564519912237 L 851.0584271131222 371.2537700451852 L 925.2379584764677 302.92636477583284 L 921.1629321107591 262.27296566193996 L 776.339745695839 316.9564519912237 L 776.339745695839 316.9564519912237" fill-opacity="1" stroke-opacity="1" stroke-linecap="round" stroke-linejoin="round" stroke-miterlimit="10" stroke-width="3"/></g><g><path fill="rgb(111,177,217)" stroke="rgb(241,241,241)" paint-order="fill stroke markers" d=" M 851.0584271131222 371.2537700451852 L 870.8943898489649 440.9743154499238 L 958.4716002950591 461.6206867716011 L 961.73219130623 458.94483615293854 L 971.1174443867689 441.5660858855453 L 952.8235585571745 335.76503465538144 L 925.2379584764677 302.92636477583284 L 851.0584271131222 371.2537700451852 L 851.0584271131222 371.2537700451852" fill-opacity="1" stroke-opacity="1" stroke-linecap="round" stroke-linejoin="round" stroke-miterlimit="10" stroke-width="3"/></g><g><path fill="rgb(111,177,217)" stroke="rgb(241,241,241)" paint-order="fill stroke markers" d=" M 825.3928549887307 489.24163353256006 L 865.7167758417244 605.834472430391 L 948.0068364434406 538.0428009675088 L 958.12748968254 491.3576368236816 L 958.4716002950591 461.6206867716011 L 870.8943898489649 440.9743154499238 L 834.1796858231512 462.71560003002907 L 825.3928549887307 489.24163353256006 L 825.3928549887307 489.24163353256006" fill-opacity="1" stroke-opacity="1" stroke-linecap="round" stroke-linejoin="round" stroke-miterlimit="10" stroke-width="3"/></g><g><path fill="rgb(111,177,217)" stroke="rgb(241,241,241)" paint-order="fill stroke markers" d=" M 857.3882307261324 622.7472300178222 L 904.2561909680871 672.8837680650823 L 984.859574266716 660.1561631706008 L 1006.1204053628853 615.3571290899652 L 948.0068364434406 538.0428009675088 L 865.7167758417244 605.834472430391 L 857.3882307261324 622.7472300178222 L 857.3882307261324 622.7472300178222" fill-opacity="1" stroke-opacity="1" stroke-linecap="round" stroke-linejoin="round" stroke-miterlimit="10" stroke-width="3"/></g><g><path fill="rgb(111,177,217)" stroke="rgb(241,241,241)" paint-order="fill stroke markers" d=" M 901.6641968911304 732.8564756123086 L 945.7799349271838 793.485746991226 L 1038.7752248880747 741.2317561296293 L 984.859574266716 660.1561631706008 L 904.2561909680871 672.8837680650823 L 901.6641968911304 732.8564756123086 L 901.6641968911304 732.8564756123086" fill-opacity="1" stroke-opacity="1" stroke-linecap="round" stroke-linejoin="round" stroke-miterlimit="10" stroke-width="3"/></g><g><path fill="rgb(111,177,217)" stroke="rgb(241,241,241)" paint-order="fill stroke markers" d=" M 824.8842536433941 757.7816307118521 L 856.1574248235289 862.074793230897 L 929.9535200709646 864.2956489425956 L 945.7799349271838 793.485746991226 L 901.6641968911304 732.8564756123086 L 824.8842536433941 757.7816307118521 L 824.8842536433941 757.7816307118521" fill-opacity="1" stroke-opacity="1" stroke-linecap="round" stroke-linejoin="round" stroke-miterlimit="10" stroke-width="3"/></g><g><path fill="rgb(111,177,217)" stroke="rgb(241,241,241)" paint-order="fill stroke markers" d=" M 801.0381703421563 920.2503117794777 L 803.2728142655233 940 L 949.2001086966287 940 L 952.6508292994995 894.3377092641724 L 929.9535200709646 864.2956489425956 L 856.1574248235289 862.074793230897 L 853.3382019017115 863.2687554946149 L 801.0381703421563 920.2503117794777 L 801.0381703421563 920.2503117794777" fill-opacity="1" stroke-opacity="1" stroke-linecap="round" stroke-linejoin="round" stroke-miterlimit="10" stroke-width="3"/></g><g><path fill="rgb(111,177,217)" stroke="rgb(241,241,241)" paint-order="fill stroke markers" d=" M 938.5972847825502 77.03266129848824 L 967.2495079460209 108.44434362365966 L 1023.5192047931008 98.15891069578005 L 1060.384662527884 44.31153249389659 L 1062.7618064411417 0 L 939.6414518220096 0 L 938.5972847825502 77.03266129848824 L 938.5972847825502 77.03266129848824" fill-opacity="1" stroke-opacity="1" stroke-linecap="round" stroke-linejoin="round" stroke-miterlimit="10" stroke-width="3"/></g><g><path fill="rgb(111,177,217)" stroke="rgb(241,241,241)" paint-order="fill stroke markers" d=" M 929.6459640692104 239.52156767690866 L 1060.6105240528582 270.4316088574072 L 1053.8339326263679 135.6895915132178 L 1023.5192047931008 98.15891069578005 L 967.2495079460209 108.44434362365966 L 940.3222735557688 146.32022720068542 L 929.6459640692104 239.52156767690866 L 929.6459640692104 239.52156767690866" fill-opacity="1" stroke-opacity="1" stroke-linecap="round" stroke-linejoin="round" stroke-miterlimit="10" stroke-width="3"/></g><g><path fill="rgb(111,177,217)" stroke="rgb(241,241,241)" paint-order="fill stroke markers" d=" M 921.1629321107591 262.27296566193996 L 925.2379584764677 302.92636477583284 L 952.8235585571745 335.76503465538144 L 1086.4982105339516 302.8814513521969 L 1060.6105240528582 270.4316088574072 L 929.6459640692104 239.52156767690866 L 925.1443562432826 245.32198292869273 L 921.1629321107591 262.27296566193996 L 921.1629321107591 262.27296566193996" fill-opacity="1" stroke-opacity="1" stroke-linecap="round" stroke-linejoin="round" stroke-miterlimit="10" stroke-width="3"/></g><g><path fill="rgb(111,177,217)" stroke="rgb(241,241,241)" paint-order="fill stroke markers" d=" M 952.8235585571745 335.76503465538144 L 971.1174443867689 441.5660858855453 L 1076.0170428094473 374.7298568873185 L 1105.6279495261695 316.53385852075354 L 1086.4982105339516 302.8814513521969 L 952.8235585571745 335.76503465538144 L 952.8235585571745 335.76503465538144" fill-opacity="1" stroke-opacity="1" stroke-linecap="round" stroke-linejoin="round" stroke-miterlimit="10" stroke-width="3"/></g><g><path fill="rgb(111,177,217)" stroke="rgb(241,241,241)" paint-order="fill stroke markers" d=" M 958.12748968254 491.3576368236816 L 1069.2618757299315 568.1097343291484 L 1090.3664488741101 500.7440669778105 L 961.73219130623 458.94483615293854 L 958.4716002950591 461.6206867716011 L 958.12748968254 491.3576368236816 L 958.12748968254 491.3576368236816" fill-opacity="1" stroke-opacity="1" stroke-linecap="round" stroke-linejoin="round" stroke-miterlimit="10" stroke-width="3"/></g><g><path fill="rgb(111,177,217)" stroke="rgb(241,241,241)" paint-order="fill stroke markers" d=" M 948.0068364434406 538.0428009675088 L 1006.1204053628853 615.3571290899652 L 1071.8824294227081 600.4023503688095 L 1069.2618757299315 568.1097343291484 L 958.12748968254 491.3576368236816 L 948.0068364434406 538.0428009675088 L 948.0068364434406 538.0428009675088" fill-opacity="1" stroke-opacity="1" stroke-linecap="round" stroke-linejoin="round" stroke-miterlimit="10" stroke-width="3"/></g><g><path fill="rgb(111,177,217)" stroke="rgb(241,241,241)" paint-order="fill stroke markers" d=" M 984.859574266716 660.1561631706008 L 1038.7752248880747 741.2317561296293 L 1040.346369981597 741.4735561299123 L 1101.5539476088497 619.5366289222491 L 1101.4637178680946 618.9534709028495 L 1071.8824294227081 600.4023503688095 L 1006.1204053628853 615.3571290899652 L 984.859574266716 660.1561631706008 L 984.859574266716 660.1561631706008" fill-opacity="1" stroke-opacity="1" stroke-linecap="round" stroke-linejoin="round" stroke-miterlimit="10" stroke-width="3"/></g><g><path fill="rgb(111,177,217)" stroke="rgb(241,241,241)" paint-order="fill stroke markers" d=" M 929.9535200709646 864.2956489425956 L 952.6508292994995 894.3377092641724 L 1067.654163501036 881.6555570389618 L 1084.9739027806454 861.146668346759 L 1085.8523394849244 769.9897130833259 L 1040.346369981597 741.4735561299123 L 1038.7752248880747 741.2317561296293 L 945.7799349271838 793.485746991226 L 929.9535200709646 864.2956489425956 L 929.9535200709646 864.2956489425956" fill-opacity="1" stroke-opacity="1" stroke-linecap="round" stroke-linejoin="round" stroke-miterlimit="10" stroke-width="3"/></g><g><path fill="rgb(111,177,217)" stroke="rgb(241,241,241)" paint-order="fill stroke markers" d=" M 1087.625367697531 940 L 1067.654163501036 881.6555570389618 L 952.6508292994995 894.3377092641724 L 949.2001086966287 940 L 1087.625367697531 940 L 1087.625367697531 940" fill-opacity="1" stroke-opacity="1" stroke-linecap="round" stroke-linejoin="round" stroke-miterlimit="10" stroke-width="3"/></g><g><path fill="rgb(111,177,217)" stroke="rgb(241,241,241)" paint-order="fill stroke markers" d=" M 1060.384662527884 44.31153249389659 L 1172.2618206683364 61.331697011393715 L 1236.244932202213 25.30495665486825 L 1243.1433081166817 0 L 1062.7618064411417 0 L 1060.384662527884 44.31153249389659 L 1060.384662527884 44.31153249389659" fill-opacity="1" stroke-opacity="1" stroke-linecap="round" stroke-linejoin="round" stroke-miterlimit="10" stroke-width="3"/></g><g><path fill="rgb(111,177,217)" stroke="rgb(241,241,241)" paint-order="fill stroke markers" d=" M 1023.5192047931008 98.15891069578005 L 1053.8339326263679 135.6895915132178 L 1155.0481660858886 170.80569464894182 L 1176.8894951389095 140.95103231760197 L 1172.2618206683364 61.331697011393715 L 1060.384662527884 44.31153249389659 L 1023.5192047931008 98.15891069578005 L 1023.5192047931008 98.15891069578005" fill-opacity="1" stroke-opacity="1" stroke-linecap="round" stroke-linejoin="round" stroke-miterlimit="10" stroke-width="3"/></g><g><path fill="rgb(111,177,217)" stroke="rgb(241,241,241)" paint-order="fill stroke markers" d=" M 1053.8339326263679 135.6895915132178 L 1060.6105240528582 270.4316088574072 L 1086.4982105339516 302.8814513521969 L 1105.6279495261695 316.53385852075354 L 1124.7743902087955 313.4393486863646 L 1175.1409783593015 227.28978862384292 L 1155.0481660858886 170.80569464894182 L 1053.8339326263679 135.6895915132178 L 1053.8339326263679 135.6895915132178" fill-opacity="1" stroke-opacity="1" stroke-linecap="round" stroke-linejoin="round" stroke-miterlimit="10" stroke-width="3"/></g><g><path fill="rgb(111,177,217)" stroke="rgb(241,241,241)" paint-order="fill stroke markers" d=" M 1076.0170428094473 374.7298568873185 L 1120.8474344878134 476.0394118319183 L 1234.7004642066693 420.56350204576376 L 1236.826963612245 413.1815503797846 L 1155.7095533937622 332.8424820161312 L 1124.7743902087955 313.4393486863646 L 1105.6279495261695 316.53385852075354 L 1076.0170428094473 374.7298568873185 L 1076.0170428094473 374.7298568873185" fill-opacity="1" stroke-opacity="1" stroke-linecap="round" stroke-linejoin="round" stroke-miterlimit="10" stroke-width="3"/></g><g><path fill="rgb(111,177,217)" stroke="rgb(241,241,241)" paint-order="fill stroke markers" d=" M 961.73219130623 458.94483615293854 L 1090.3664488741101 500.7440669778105 L 1115.5733542149371 488.6009367627708 L 1120.8474344878134 476.0394118319183 L 1076.0170428094473 374.7298568873185 L 971.1174443867689 441.5660858855453 L 961.73219130623 458.94483615293854 L 961.73219130623 458.94483615293854" fill-opacity="1" stroke-opacity="1" stroke-linecap="round" stroke-linejoin="round" stroke-miterlimit="10" stroke-width="3"/></g><g><path fill="rgb(111,177,217)" stroke="rgb(241,241,241)" paint-order="fill stroke markers" d=" M 1069.2618757299315 568.1097343291484 L 1071.8824294227081 600.4023503688095 L 1101.4637178680946 618.9534709028495 L 1185.6878952229072 570.2134199931209 L 1115.5733542149371 488.6009367627708 L 1090.3664488741101 500.7440669778105 L 1069.2618757299315 568.1097343291484 L 1069.2618757299315 568.1097343291484" fill-opacity="1" stroke-opacity="1" stroke-linecap="round" stroke-linejoin="round" stroke-miterlimit="10" stroke-width="3"/></g><g><path fill="rgb(111,177,217)" stroke="rgb(241,241,241)" paint-order="fill stroke markers" d=" M 1040.346369981597 741.4735561299123 L 1085.8523394849244 769.9897130833259 L 1136.091761272249 751.6297923931884 L 1151.0669987495992 687.8800490001055 L 1101.5539476088497 619.5366289222491 L 1040.346369981597 741.4735561299123 L 1040.346369981597 741.4735561299123" fill-opacity="1" stroke-opacity="1" stroke-linecap="round" stroke-linejoin="round" stroke-miterlimit="10" stroke-width="3"/></g><g><path fill="rgb(111,177,217)" stroke="rgb(241,241,241)" paint-order="fill stroke markers" d=" M 1084.9739027806454 861.146668346759 L 1183.4719364459881 874.9153275858174 L 1208.3386398915131 780.5870904691996 L 1136.091761272249 751.6297923931884 L 1085.8523394849244 769.9897130833259 L 1084.9739027806454 861.146668346759 L 1084.9739027806454 861.146668346759" fill-opacity="1" stroke-opacity="1" stroke-linecap="round" stroke-linejoin="round" stroke-miterlimit="10" stroke-width="3"/></g><g><path fill="rgb(111,177,217)" stroke="rgb(241,241,241)" paint-order="fill stroke markers" d=" M 1067.654163501036 881.6555570389618 L 1087.625367697531 940 L 1209.9797145363466 940 L 1195.332870248809 891.5008779137751 L 1183.4719364459881 874.9153275858174 L 1084.9739027806454 861.146668346759 L 1067.654163501036 881.6555570389618 L 1067.654163501036 881.6555570389618" fill-opacity="1" stroke-opacity="1" stroke-linecap="round" stroke-linejoin="round" stroke-miterlimit="10" stroke-width="3"/></g><g><path fill="rgb(111,177,217)" stroke="rgb(241,241,241)" paint-order="fill stroke markers" d=" M 1172.2618206683364 61.331697011393715 L 1176.8894951389095 140.95103231760197 L 1291.4280755414177 128.52876907831657 L 1236.244932202213 25.30495665486825 L 1172.2618206683364 61.331697011393715 L 1172.2618206683364 61.331697011393715" fill-opacity="1" stroke-opacity="1" stroke-linecap="round" stroke-linejoin="round" stroke-miterlimit="10" stroke-width="3"/></g><g><path fill="rgb(111,177,217)" stroke="rgb(241,241,241)" paint-order="fill stroke markers" d=" M 1155.0481660858886 170.80569464894182 L 1175.1409783593015 227.28978862384292 L 1289.97190484842 218.8747310249894 L 1302.8239745032274 138.0116060715 L 1291.4280755414177 128.52876907831657 L 1176.8894951389095 140.95103231760197 L 1155.0481660858886 170.80569464894182 L 1155.0481660858886 170.80569464894182" fill-opacity="1" stroke-opacity="1" stroke-linecap="round" stroke-linejoin="round" stroke-miterlimit="10" stroke-width="3"/></g><g><path fill="rgb(111,177,217)" stroke="rgb(241,241,241)" paint-order="fill stroke markers" d=" M 1124.7743902087955 313.4393486863646 L 1155.7095533937622 332.8424820161312 L 1296.0516823933197 269.2224449537967 L 1301.2253050369286 238.03484764747404 L 1289.97190484842 218.8747310249894 L 1175.1409783593015 227.28978862384292 L 1124.7743902087955 313.4393486863646 L 1124.7743902087955 313.4393486863646" fill-opacity="1" stroke-opacity="1" stroke-linecap="round" stroke-linejoin="round" stroke-miterlimit="10" stroke-width="3"/></g><g><path fill="rgb(111,177,217)" stroke="rgb(241,241,241)" paint-order="fill stroke markers" d=" M 1155.7095533937622 332.8424820161312 L 1236.826963612245 413.1815503797846 L 1255.37413810514 404.3226799870976 L 1302.7500893345018 328.3874235835759 L 1296.0516823933197 269.2224449537967 L 1155.7095533937622 332.8424820161312 L 1155.7095533937622 332.8424820161312" fill-opacity="1" stroke-opacity="1" stroke-linecap="round" stroke-linejoin="round" stroke-miterlimit="10" stroke-width="3"/></g><g><path fill="rgb(111,177,217)" stroke="rgb(241,241,241)" paint-order="fill stroke markers" d=" M 1115.5733542149371 488.6009367627708 L 1185.6878952229072 570.2134199931209 L 1263.3902132475291 574.6850161324431 L 1234.7004642066693 420.56350204576376 L 1120.8474344878134 476.0394118319183 L 1115.5733542149371 488.6009367627708 L 1115.5733542149371 488.6009367627708" fill-opacity="1" stroke-opacity="1" stroke-linecap="round" stroke-linejoin="round" stroke-miterlimit="10" stroke-width="3"/></g><g><path fill="rgb(111,177,217)" stroke="rgb(241,241,241)" paint-order="fill stroke markers" d=" M 1101.4637178680946 618.9534709028495 L 1101.5539476088497 619.5366289222491 L 1151.0669987495992 687.8800490001055 L 1233.1313275473685 656.8698432839745 L 1266.9114268382355 595.8069027680482 L 1264.1026855538407 575.3044237895799 L 1263.3902132475291 574.6850161324431 L 1185.6878952229072 570.2134199931209 L 1101.4637178680946 618.9534709028495 L 1101.4637178680946 618.9534709028495" fill-opacity="1" stroke-opacity="1" stroke-linecap="round" stroke-linejoin="round" stroke-miterlimit="10" stroke-width="3"/></g><g><path fill="rgb(111,177,217)" stroke="rgb(241,241,241)" paint-order="fill stroke markers" d=" M 1136.091761272249 751.6297923931884 L 1208.3386398915131 780.5870904691996 L 1228.7071034906176 773.7119017030565 L 1240.5665110031912 747.8816141930682 L 1233.1313275473685 656.8698432839745 L 1151.0669987495992 687.8800490001055 L 1136.091761272249 751.6297923931884 L 1136.091761272249 751.6297923931884" fill-opacity="1" stroke-opacity="1" stroke-linecap="round" stroke-linejoin="round" stroke-miterlimit="10" stroke-width="3"/></g><g><path fill="rgb(111,177,217)" stroke="rgb(241,241,241)" paint-order="fill stroke markers" d=" M 1183.4719364459881 874.9153275858174 L 1195.332870248809 891.5008779137751 L 1309.2513667480578 830.0321574313163 L 1228.7071034906176 773.7119017030565 L 1208.3386398915131 780.5870904691996 L 1183.4719364459881 874.9153275858174 L 1183.4719364459881 874.9153275858174" fill-opacity="1" stroke-opacity="1" stroke-linecap="round" stroke-linejoin="round" stroke-miterlimit="10" stroke-width="3"/></g><g><path fill="rgb(111,177,217)" stroke="rgb(241,241,241)" paint-order="fill stroke markers" d=" M 1195.332870248809 891.5008779137751 L 1209.9797145363466 940 L 1281.200441304464 940 L 1317.4642475541286 832.7293064635198 L 1309.2513667480578 830.0321574313163 L 1195.332870248809 891.5008779137751 L 1195.332870248809 891.5008779137751" fill-opacity="1" stroke-opacity="1" stroke-linecap="round" stroke-linejoin="round" stroke-miterlimit="10" stroke-width="3"/></g><g><path fill="rgb(111,177,217)" stroke="rgb(241,241,241)" paint-order="fill stroke markers" d=" M 1236.244932202213 25.30495665486825 L 1291.4280755414177 128.52876907831657 L 1302.8239745032274 138.0116060715 L 1390.8120134274484 102.98707842009759 L 1412.9307460210916 85.22740670867216 L 1413.6523559624245 81.61209427997359 L 1384.239391254355 0 L 1243.1433081166817 0 L 1236.244932202213 25.30495665486825 L 1236.244932202213 25.30495665486825" fill-opacity="1" stroke-opacity="1" stroke-linecap="round" stroke-linejoin="round" stroke-miterlimit="10" stroke-width="3"/></g><g><path fill="rgb(111,177,217)" stroke="rgb(241,241,241)" paint-order="fill stroke markers" d=" M 1289.97190484842 218.8747310249894 L 1301.2253050369286 238.03484764747404 L 1372.9047030333118 248.14883414797794 L 1406.6775420713361 241.82903591123303 L 1390.8120134274484 102.98707842009759 L 1302.8239745032274 138.0116060715 L 1289.97190484842 218.8747310249894 L 1289.97190484842 218.8747310249894" fill-opacity="1" stroke-opacity="1" stroke-linecap="round" stroke-linejoin="round" stroke-miterlimit="10" stroke-width="3"/></g><g><path fill="rgb(111,177,217)" stroke="rgb(241,241,241)" paint-order="fill stroke markers" d=" M 1296.0516823933197 269.2224449537967 L 1302.7500893345018 328.3874235835759 L 1379.410372252807 345.93227171963855 L 1372.9047030333118 248.14883414797794 L 1301.2253050369286 238.03484764747404 L 1296.0516823933197 269.2224449537967 L 1296.0516823933197 269.2224449537967" fill-opacity="1" stroke-opacity="1" stroke-linecap="round" stroke-linejoin="round" stroke-miterlimit="10" stroke-width="3"/></g><g><path fill="rgb(111,177,217)" stroke="rgb(241,241,241)" paint-order="fill stroke markers" d=" M 1255.37413810514 404.3226799870976 L 1373.0621001506654 435.4372751520018 L 1389.2011449328174 352.56051477617115 L 1379.410372252807 345.93227171963855 L 1302.7500893345018 328.3874235835759 L 1255.37413810514 404.3226799870976 L 1255.37413810514 404.3226799870976" fill-opacity="1" stroke-opacity="1" stroke-linecap="round" stroke-linejoin="round" stroke-miterlimit="10" stroke-width="3"/></g><g><path fill="rgb(111,177,217)" stroke="rgb(241,241,241)" paint-order="fill stroke markers" d=" M 1234.7004642066693 420.56350204576376 L 1263.3902132475291 574.6850161324431 L 1264.1026855538407 575.3044237895799 L 1333.1950714341149 547.2654653777835 L 1390.8761883333793 460.7180782575419 L 1390.8038252921585 459.9459999578215 L 1373.0621001506654 435.4372751520018 L 1255.37413810514 404.3226799870976 L 1236.826963612245 413.1815503797846 L 1234.7004642066693 420.56350204576376 L 1234.7004642066693 420.56350204576376" fill-opacity="1" stroke-opacity="1" stroke-linecap="round" stroke-linejoin="round" stroke-miterlimit="10" stroke-width="3"/></g><g><path fill="rgb(111,177,217)" stroke="rgb(241,241,241)" paint-order="fill stroke markers" d=" M 1264.1026855538407 575.3044237895799 L 1266.9114268382355 595.8069027680482 L 1371.4623749319042 704.5645687773083 L 1382.1697082938406 710.1520574264571 L 1477.5837581017195 630.848630403567 L 1471.5693331574305 608.2253349782551 L 1333.1950714341149 547.2654653777835 L 1264.1026855538407 575.3044237895799 L 1264.1026855538407 575.3044237895799" fill-opacity="1" stroke-opacity="1" stroke-linecap="round" stroke-linejoin="round" stroke-miterlimit="10" stroke-width="3"/></g><g><path fill="rgb(111,177,217)" stroke="rgb(241,241,241)" paint-order="fill stroke markers" d=" M 1233.1313275473685 656.8698432839745 L 1240.5665110031912 747.8816141930682 L 1371.4623749319042 704.5645687773083 L 1266.9114268382355 595.8069027680482 L 1233.1313275473685 656.8698432839745 L 1233.1313275473685 656.8698432839745" fill-opacity="1" stroke-opacity="1" stroke-linecap="round" stroke-linejoin="round" stroke-miterlimit="10" stroke-width="3"/></g><g><path fill="rgb(111,177,217)" stroke="rgb(241,241,241)" paint-order="fill stroke markers" d=" M 1228.7071034906176 773.7119017030565 L 1309.2513667480578 830.0321574313163 L 1317.4642475541286 832.7293064635198 L 1332.6944590639407 828.9747273018887 L 1384.127168351805 724.605594819352 L 1382.1697082938406 710.1520574264571 L 1371.4623749319042 704.5645687773083 L 1240.5665110031912 747.8816141930682 L 1228.7071034906176 773.7119017030565 L 1228.7071034906176 773.7119017030565" fill-opacity="1" stroke-opacity="1" stroke-linecap="round" stroke-linejoin="round" stroke-miterlimit="10" stroke-width="3"/></g><g><path fill="rgb(111,177,217)" stroke="rgb(241,241,241)" paint-order="fill stroke markers" d=" M 1415.2178831555775 940 L 1402.5821402924469 884.342545755486 L 1332.6944590639407 828.9747273018887 L 1317.4642475541286 832.7293064635198 L 1281.200441304464 940 L 1415.2178831555775 940 L 1415.2178831555775 940" fill-opacity="1" stroke-opacity="1" stroke-linecap="round" stroke-linejoin="round" stroke-miterlimit="10" stroke-width="3"/></g><g><path fill="rgb(111,177,217)" stroke="rgb(241,241,241)" paint-order="fill stroke markers" d=" M 1384.239391254355 0 L 1413.6523559624245 81.61209427997359 L 1573.4592103848977 0 L 1384.239391254355 0 L 1384.239391254355 0" fill-opacity="1" stroke-opacity="1" stroke-linecap="round" stroke-linejoin="round" stroke-miterlimit="10" stroke-width="3"/></g><g><path fill="rgb(111,177,217)" stroke="rgb(241,241,241)" paint-order="fill stroke markers" d=" M 1390.8120134274484 102.98707842009759 L 1406.6775420713361 241.82903591123303 L 1447.0246379055277 253.7776778199186 L 1510.4681911190737 184.47724321435498 L 1497.507794667611 161.27433578498284 L 1412.9307460210916 85.22740670867216 L 1390.8120134274484 102.98707842009759 L 1390.8120134274484 102.98707842009759" fill-opacity="1" stroke-opacity="1" stroke-linecap="round" stroke-linejoin="round" stroke-miterlimit="10" stroke-width="3"/></g><g><path fill="rgb(111,177,217)" stroke="rgb(241,241,241)" paint-order="fill stroke markers" d=" M 1372.9047030333118 248.14883414797794 L 1379.410372252807 345.93227171963855 L 1389.2011449328174 352.56051477617115 L 1439.7652542952658 336.2258890355018 L 1459.3219519126785 300.7153921244641 L 1447.0246379055277 253.7776778199186 L 1406.6775420713361 241.82903591123303 L 1372.9047030333118 248.14883414797794 L 1372.9047030333118 248.14883414797794" fill-opacity="1" stroke-opacity="1" stroke-linecap="round" stroke-linejoin="round" stroke-miterlimit="10" stroke-width="3"/></g><g><path fill="rgb(111,177,217)" stroke="rgb(241,241,241)" paint-order="fill stroke markers" d=" M 1373.0621001506654 435.4372751520018 L 1390.8038252921585 459.9459999578215 L 1476.1424371076257 404.7111692536826 L 1439.7652542952658 336.2258890355018 L 1389.2011449328174 352.56051477617115 L 1373.0621001506654 435.4372751520018 L 1373.0621001506654 435.4372751520018" fill-opacity="1" stroke-opacity="1" stroke-linecap="round" stroke-linejoin="round" stroke-miterlimit="10" stroke-width="3"/></g><g><path fill="rgb(111,177,217)" stroke="rgb(241,241,241)" paint-order="fill stroke markers" d=" M 1390.8038252921585 459.9459999578215 L 1390.8761883333793 460.7180782575419 L 1487.9698889756091 531.4614678953928 L 1538.112515002146 488.36828608132043 L 1518.3865822075177 417.080047299922 L 1476.1424371076257 404.7111692536826 L 1390.8038252921585 459.9459999578215 L 1390.8038252921585 459.9459999578215" fill-opacity="1" stroke-opacity="1" stroke-linecap="round" stroke-linejoin="round" stroke-miterlimit="10" stroke-width="3"/></g><g><path fill="rgb(111,177,217)" stroke="rgb(241,241,241)" paint-order="fill stroke markers" d=" M 1333.1950714341149 547.2654653777835 L 1471.5693331574305 608.2253349782551 L 1487.9698889756091 531.4614678953928 L 1390.8761883333793 460.7180782575419 L 1333.1950714341149 547.2654653777835 L 1333.1950714341149 547.2654653777835" fill-opacity="1" stroke-opacity="1" stroke-linecap="round" stroke-linejoin="round" stroke-miterlimit="10" stroke-width="3"/></g><g><path fill="rgb(111,177,217)" stroke="rgb(241,241,241)" paint-order="fill stroke markers" d=" M 1382.1697082938406 710.1520574264571 L 1384.127168351805 724.605594819352 L 1478.4124181385637 805.28746728502 L 1487.3663395306173 805.4517808487843 L 1517.8317143611284 768.9969630334858 L 1536.0232097330363 659.1846924789779 L 1477.5837581017195 630.848630403567 L 1382.1697082938406 710.1520574264571 L 1382.1697082938406 710.1520574264571" fill-opacity="1" stroke-opacity="1" stroke-linecap="round" stroke-linejoin="round" stroke-miterlimit="10" stroke-width="3"/></g><g><path fill="rgb(111,177,217)" stroke="rgb(241,241,241)" paint-order="fill stroke markers" d=" M 1332.6944590639407 828.9747273018887 L 1402.5821402924469 884.342545755486 L 1478.4124181385637 805.28746728502 L 1384.127168351805 724.605594819352 L 1332.6944590639407 828.9747273018887 L 1332.6944590639407 828.9747273018887" fill-opacity="1" stroke-opacity="1" stroke-linecap="round" stroke-linejoin="round" stroke-miterlimit="10" stroke-width="3"/></g><g><path fill="rgb(111,177,217)" stroke="rgb(241,241,241)" paint-order="fill stroke markers" d=" M 1402.5821402924469 884.342545755486 L 1415.2178831555775 940 L 1488.239865525519 940 L 1511.0566171967118 834.0406163428638 L 1487.3663395306173 805.4517808487843 L 1478.4124181385637 805.28746728502 L 1402.5821402924469 884.342545755486 L 1402.5821402924469 884.342545755486" fill-opacity="1" stroke-opacity="1" stroke-linecap="round" stroke-linejoin="round" stroke-miterlimit="10" stroke-width="3"/></g><g><path fill="rgb(111,177,217)" stroke="rgb(241,241,241)" paint-order="fill stroke markers" d=" M 1412.9307460210916 85.22740670867216 L 1497.507794667611 161.27433578498284 L 1600 1.777668810884336 L 1600 0 L 1573.4592103848977 0 L 1413.6523559624245 81.61209427997359 L 1412.9307460210916 85.22740670867216 L 1412.9307460210916 85.22740670867216" fill-opacity="1" stroke-opacity="1" stroke-linecap="round" stroke-linejoin="round" stroke-miterlimit="10" stroke-width="3"/></g><g><path fill="rgb(111,177,217)" stroke="rgb(241,241,241)" paint-order="fill stroke markers" d=" M 1497.507794667611 161.27433578498284 L 1510.4681911190737 184.47724321435498 L 1600 208.2091540809421 L 1600 1.777668810884336 L 1497.507794667611 161.27433578498284 L 1497.507794667611 161.27433578498284" fill-opacity="1" stroke-opacity="1" stroke-linecap="round" stroke-linejoin="round" stroke-miterlimit="10" stroke-width="3"/></g><g><path fill="rgb(111,177,217)" stroke="rgb(241,241,241)" paint-order="fill stroke markers" d=" M 1447.0246379055277 253.7776778199186 L 1459.3219519126785 300.7153921244641 L 1586.2457123180093 329.8262766753955 L 1600 323.80750400403696 L 1600 208.2091540809421 L 1510.4681911190737 184.47724321435498 L 1447.0246379055277 253.7776778199186 L 1447.0246379055277 253.7776778199186" fill-opacity="1" stroke-opacity="1" stroke-linecap="round" stroke-linejoin="round" stroke-miterlimit="10" stroke-width="3"/></g><g><path fill="rgb(111,177,217)" stroke="rgb(241,241,241)" paint-order="fill stroke markers" d=" M 1439.7652542952658 336.2258890355018 L 1476.1424371076257 404.7111692536826 L 1518.3865822075177 417.080047299922 L 1586.2457123180093 329.8262766753955 L 1459.3219519126785 300.7153921244641 L 1439.7652542952658 336.2258890355018 L 1439.7652542952658 336.2258890355018" fill-opacity="1" stroke-opacity="1" stroke-linecap="round" stroke-linejoin="round" stroke-miterlimit="10" stroke-width="3"/></g><g><path fill="rgb(111,177,217)" stroke="rgb(241,241,241)" paint-order="fill stroke markers" d=" M 1518.3865822075177 417.080047299922 L 1538.112515002146 488.36828608132043 L 1600 499.6743672939044 L 1600 323.80750400403696 L 1586.2457123180093 329.8262766753955 L 1518.3865822075177 417.080047299922 L 1518.3865822075177 417.080047299922" fill-opacity="1" stroke-opacity="1" stroke-linecap="round" stroke-linejoin="round" stroke-miterlimit="10" stroke-width="3"/></g><g><path fill="rgb(111,177,217)" stroke="rgb(241,241,241)" paint-order="fill stroke markers" d=" M 1471.5693331574305 608.2253349782551 L 1477.5837581017195 630.848630403567 L 1536.0232097330363 659.1846924789779 L 1600 655.6681987731986 L 1600 499.6743672939044 L 1538.112515002146 488.36828608132043 L 1487.9698889756091 531.4614678953928 L 1471.5693331574305 608.2253349782551 L 1471.5693331574305 608.2253349782551" fill-opacity="1" stroke-opacity="1" stroke-linecap="round" stroke-linejoin="round" stroke-miterlimit="10" stroke-width="3"/></g><g><path fill="rgb(111,177,217)" stroke="rgb(241,241,241)" paint-order="fill stroke markers" d=" M 1517.8317143611284 768.9969630334858 L 1600 784.3099938271001 L 1600 655.6681987731986 L 1536.0232097330363 659.1846924789779 L 1517.8317143611284 768.9969630334858 L 1517.8317143611284 768.9969630334858" fill-opacity="1" stroke-opacity="1" stroke-linecap="round" stroke-linejoin="round" stroke-miterlimit="10" stroke-width="3"/></g><g><path fill="rgb(111,177,217)" stroke="rgb(241,241,241)" paint-order="fill stroke markers" d=" M 1487.3663395306173 805.4517808487843 L 1511.0566171967118 834.0406163428638 L 1600 866.1847979834226 L 1600 784.3099938271001 L 1517.8317143611284 768.9969630334858 L 1487.3663395306173 805.4517808487843 L 1487.3663395306173 805.4517808487843" fill-opacity="1" stroke-opacity="1" stroke-linecap="round" stroke-linejoin="round" stroke-miterlimit="10" stroke-width="3"/></g><g><path fill="rgb(111,177,217)" stroke="rgb(241,241,241)" paint-order="fill stroke markers" d=" M 1600 866.1847979834226 L 1511.0566171967118 834.0406163428638 L 1488.239865525519 940 L 1600 940 L 1600 866.1847979834226 L 1600 866.1847979834226" fill-opacity="1" stroke-opacity="1" stroke-linecap="round" stroke-linejoin="round" stroke-miterlimit="10" stroke-width="3"/></g></g></g></svg>