<svg version="1.1" xmlns="http://www.w3.org/2000/svg" xmlns:xlink="http://www.w3.org/1999/xlink" width="1600" height="940" viewBox="0 0 1600 940"><defs/><g transform="scale(1,1)"><g transform="scale(1,1)"><g transform="scale(1,1)"><rect fill="rgb(255,255,255)" stroke="none" x="0" y="0" width="1600" height="940" fill-opacity="1"/></g><g><path fill="rgb(111,177,217)" stroke="rgb(241,241,241)" paint-order="fill stroke markers" d=" M 1196.8416012691896 250.53556585517254 L 1317.8962039141295 267.005640838065 L 1317.4075137042691 233.20762608892787 L 1295.317024400136 202.20915938357874 L 1196.8416012691896 250.53556585517254 L 1196.8416012691896 250.53556585517254" fill-opacity="1" stroke-opacity="1" stroke-linecap="round" stroke-linejoin="round" stroke-miterlimit="10" stroke-width="3"/></g><g><path fill="rgb(111,177,217)" stroke="rgb(241,241,241)" paint-order="fill stroke markers" d=" M 561.6534558030636 525.1255986971946 L 565.7140769178134 532.4440307462676 L 582.4429759139168 524.1004809069036 L 690.9244004957962 393.4281364419578 L 674.4247243738323 387.80930642521173 L 616.7253457196665 419.8034243830658 L 585.0848600536331 466.2093835390569 L 561.6534558030636 525.1255986971946 L 561.6534558030636 525.1255986971946" fill-opacity="1" stroke-opacity="1" stroke-linecap="round" stroke-linejoin="round" stroke-miterlimit="10" stroke-width="3"/></g><g><path fill="rgb(111,177,217)" stroke="rgb(241,241,241)" paint-order="fill stroke markers" d=" M 0 873.0205467059161 L 71.83236845264383 928.6303130723732 L 97.62232566373204 794.6925503065994 L 93.7755109076123 781.231953638612 L 81.42364109956222 768.4536379563376 L 0 775.6727611710295 L 0 873.0205467059161 L 0 873.0205467059161" fill-opacity="1" stroke-opacity="1" stroke-linecap="round" stroke-linejoin="round" stroke-miterlimit="10" stroke-width="3"/></g><g><path fill="rgb(111,177,217)" stroke="rgb(241,241,241)" paint-order="fill stroke markers" d=" M 1202.1119351974723 584.4534369132306 L 1244.0564546497455 704.96799621491 L 1302.9090336589088 602.7894001081958 L 1296.7173905749676 570.3105073666247 L 1228.1909433821493 559.6616203965694 L 1202.1119351974723 584.4534369132306 L 1202.1119351974723 584.4534369132306" fill-opacity="1" stroke-opacity="1" stroke-linecap="round" stroke-linejoin="round" stroke-miterlimit="10" stroke-width="3"/></g><g><path fill="rgb(111,177,217)" stroke="rgb(241,241,241)" paint-order="fill stroke markers" d=" M 1259.5402760382551 17.50420868505369 L 1346.2375880765112 102.07033679071719 L 1600 67.95882372707408 L 1600 0 L 1262.6344504666215 0 L 1259.5402760382551 17.50420868505369 L 1259.5402760382551 17.50420868505369" fill-opacity="1" stroke-opacity="1" stroke-linecap="round" stroke-linejoin="round" stroke-miterlimit="10" stroke-width="3"/></g><g><path fill="rgb(111,177,217)" stroke="rgb(241,241,241)" paint-order="fill stroke markers" d=" M 349.488385996813 36.61927938009085 L 424.04548008006606 188.49919919171623 L 454.79011528674386 185.27525129254406 L 475.71317571541255 107.07733832000028 L 355.29977545297584 22.165372476344075 L 349.488385996813 36.61927938009085 L 349.488385996813 36.61927938009085" fill-opacity="1" stroke-opacity="1" stroke-linecap="round" stroke-linejoin="round" stroke-miterlimit="10" stroke-width="3"/></g><g><path fill="rgb(111,177,217)" stroke="rgb(241,241,241)" paint-order="fill stroke markers" d=" M 0 775.6727611710295 L 81.42364109956222 768.4536379563376 L 108.54029297416777 701.5009444155595 L 66.1181762117739 617.4045508609539 L 0 576.0770129303659 L 0 775.6727611710295 L 0 775.6727611710295" fill-opacity="1" stroke-opacity="1" stroke-linecap="round" stroke-linejoin="round" stroke-miterlimit="10" stroke-width="3"/></g><g><path fill="rgb(111,177,217)" stroke="rgb(241,241,241)" paint-order="fill stroke markers" d=" M 1058.3532852091264 28.10203369267357 L 1068.0895004110246 64.28462777695226 L 1145.4938628895509 105.07419477944691 L 1158.561975606122 96.33986794981517 L 1120.0391381490138 0 L 1071.1048153939537 0 L 1058.655375594552 18.09871655010317 L 1058.3532852091264 28.10203369267357 L 1058.3532852091264 28.10203369267357" fill-opacity="1" stroke-opacity="1" stroke-linecap="round" stroke-linejoin="round" stroke-miterlimit="10" stroke-width="3"/></g><g><path fill="rgb(111,177,217)" stroke="rgb(241,241,241)" paint-order="fill stroke markers" d=" M 966.4232725770396 86.38765208920285 L 1002.3576382047904 113.49686994501567 L 1019.8590705989012 96.07274689833869 L 1058.3532852091264 28.10203369267357 L 1058.655375594552 18.09871655010317 L 975.9348007452596 49.62572530275246 L 966.4232725770396 86.38765208920285 L 966.4232725770396 86.38765208920285" fill-opacity="1" stroke-opacity="1" stroke-linecap="round" stroke-linejoin="round" stroke-miterlimit="10" stroke-width="3"/></g><g><path fill="rgb(111,177,217)" stroke="rgb(241,241,241)" paint-order="fill stroke markers" d=" M 1313.049164016973 319.3711729403058 L 1363.566390361036 416.02781163373595 L 1435.0336336174696 411.5395783433404 L 1484.6986360749581 309.879053971953 L 1325.0255518276476 302.20836711607654 L 1313.049164016973 319.3711729403058 L 1313.049164016973 319.3711729403058" fill-opacity="1" stroke-opacity="1" stroke-linecap="round" stroke-linejoin="round" stroke-miterlimit="10" stroke-width="3"/></g><g><path fill="rgb(111,177,217)" stroke="rgb(241,241,241)" paint-order="fill stroke markers" d=" M 0 143.81336690782032 L 122.92843975698082 204.45309141039237 L 162.10849629033478 211.0742750330354 L 168.568471433111 201.44763769780087 L 80.62691348637426 89.51655303140483 L 0 97.8316590317455 L 0 143.81336690782032 L 0 143.81336690782032" fill-opacity="1" stroke-opacity="1" stroke-linecap="round" stroke-linejoin="round" stroke-miterlimit="10" stroke-width="3"/></g><g><path fill="rgb(111,177,217)" stroke="rgb(241,241,241)" paint-order="fill stroke markers" d=" M 861.4130867178771 106.58734062037239 L 966.4232725770396 86.38765208920285 L 975.9348007452596 49.62572530275246 L 969.4161158463046 0 L 881.6968934322716 0 L 861.4130867178771 106.58734062037239 L 861.4130867178771 106.58734062037239" fill-opacity="1" stroke-opacity="1" stroke-linecap="round" stroke-linejoin="round" stroke-miterlimit="10" stroke-width="3"/></g><g><path fill="rgb(111,177,217)" stroke="rgb(241,241,241)" paint-order="fill stroke markers" d=" M 853.5412827058473 452.81677694276425 L 856.2150749632322 489.03929755447854 L 894.6892279991345 490.9186274482809 L 915.0187821722229 468.39080274009837 L 929.727948602852 421.1315862678347 L 853.5412827058473 452.81677694276425 L 853.5412827058473 452.81677694276425" fill-opacity="1" stroke-opacity="1" stroke-linecap="round" stroke-linejoin="round" stroke-miterlimit="10" stroke-width="3"/></g><g><path fill="rgb(111,177,217)" stroke="rgb(241,241,241)" paint-order="fill stroke markers" d=" M 391.12735758788443 329.60111333627515 L 401.44490910374196 448.562142666189 L 497.2476105459699 417.841394368411 L 500.7606529109438 409.4053951190983 L 504.2155913412563 386.5967956358654 L 472.9196399347178 359.9823707144045 L 391.12735758788443 329.60111333627515 L 391.12735758788443 329.60111333627515" fill-opacity="1" stroke-opacity="1" stroke-linecap="round" stroke-linejoin="round" stroke-miterlimit="10" stroke-width="3"/></g><g><path fill="rgb(111,177,217)" stroke="rgb(241,241,241)" paint-order="fill stroke markers" d=" M 1010.9462874652002 672.8128856037235 L 1042.9350388971657 760.6276280668372 L 1080.691002067798 776.381465715414 L 1092.3391846969496 777.6772010437444 L 1169.6942267048323 695.1499160949277 L 1069.8906793323156 644.6543778012973 L 1010.9462874652002 672.8128856037235 L 1010.9462874652002 672.8128856037235" fill-opacity="1" stroke-opacity="1" stroke-linecap="round" stroke-linejoin="round" stroke-miterlimit="10" stroke-width="3"/></g><g><path fill="rgb(111,177,217)" stroke="rgb(241,241,241)" paint-order="fill stroke markers" d=" M 355.29977545297584 22.165372476344075 L 475.71317571541255 107.07733832000028 L 523.5265785402405 33.32336059881475 L 506.92583541383914 0 L 362.5629824503791 0 L 355.29977545297584 22.165372476344075 L 355.29977545297584 22.165372476344075" fill-opacity="1" stroke-opacity="1" stroke-linecap="round" stroke-linejoin="round" stroke-miterlimit="10" stroke-width="3"/></g><g><path fill="rgb(111,177,217)" stroke="rgb(241,241,241)" paint-order="fill stroke markers" d=" M 947.7094461637764 325.95916226456893 L 970.3621788337346 397.7729855779686 L 1050.2771031108778 445.0792863721559 L 1057.5359461912358 445.00378189636115 L 1122.7187169626088 406.63752969687334 L 1103.5165770941794 333.01576073958336 L 998.272113130375 252.75285730625018 L 947.7094461637764 325.95916226456893 L 947.7094461637764 325.95916226456893" fill-opacity="1" stroke-opacity="1" stroke-linecap="round" stroke-linejoin="round" stroke-miterlimit="10" stroke-width="3"/></g><g><path fill="rgb(111,177,217)" stroke="rgb(241,241,241)" paint-order="fill stroke markers" d=" M 509.71701693781057 196.6093561327712 L 523.3695610879151 268.7636840546946 L 564.0750790646133 328.3607089040569 L 594.261605638086 327.254243683529 L 652.5744609658215 202.14507065518737 L 628.126551624378 139.92791216379567 L 625.8017828273938 136.81573374836444 L 622.0759691234796 136.35417683457925 L 509.71701693781057 196.6093561327712 L 509.71701693781057 196.6093561327712" fill-opacity="1" stroke-opacity="1" stroke-linecap="round" stroke-linejoin="round" stroke-miterlimit="10" stroke-width="3"/></g><g><path fill="rgb(111,177,217)" stroke="rgb(241,241,241)" paint-order="fill stroke markers" d=" M 0 317.19363692726495 L 57.8847040049088 266.223803868582 L 122.92843975698082 204.45309141039237 L 0 143.81336690782032 L 0 317.19363692726495 L 0 317.19363692726495" fill-opacity="1" stroke-opacity="1" stroke-linecap="round" stroke-linejoin="round" stroke-miterlimit="10" stroke-width="3"/></g><g><path fill="rgb(111,177,217)" stroke="rgb(241,241,241)" paint-order="fill stroke markers" d=" M 343.7706830831228 270.6415172913901 L 345.80137236792643 277.8873675493553 L 391.12735758788443 329.60111333627515 L 472.9196399347178 359.9823707144045 L 468.31531837560226 294.52795998672156 L 367.0364922711384 253.69337703684465 L 343.7706830831228 270.6415172913901 L 343.7706830831228 270.6415172913901" fill-opacity="1" stroke-opacity="1" stroke-linecap="round" stroke-linejoin="round" stroke-miterlimit="10" stroke-width="3"/></g><g><path fill="rgb(111,177,217)" stroke="rgb(241,241,241)" paint-order="fill stroke markers" d=" M 1161.8054988697108 408.4133580151627 L 1220.3862221702805 549.3081999200172 L 1228.1909433821493 559.6616203965694 L 1296.7173905749676 570.3105073666247 L 1328.8875385022836 536.2025430028476 L 1320.354676530156 475.34756591217575 L 1213.4487429214823 383.114940550462 L 1161.8054988697108 408.4133580151627 L 1161.8054988697108 408.4133580151627" fill-opacity="1" stroke-opacity="1" stroke-linecap="round" stroke-linejoin="round" stroke-miterlimit="10" stroke-width="3"/></g><g><path fill="rgb(111,177,217)" stroke="rgb(241,241,241)" paint-order="fill stroke markers" d=" M 1437.0821733971131 535.2001482320271 L 1488.9274912652818 574.7625482905286 L 1600 537.0541237216894 L 1600 452.9897758380471 L 1445.2643971267912 445.66140461697427 L 1437.0821733971131 535.2001482320271 L 1437.0821733971131 535.2001482320271" fill-opacity="1" stroke-opacity="1" stroke-linecap="round" stroke-linejoin="round" stroke-miterlimit="10" stroke-width="3"/></g><g><path fill="rgb(111,177,217)" stroke="rgb(241,241,241)" paint-order="fill stroke markers" d=" M 727.8251764019806 326.07484422066614 L 751.1043856235972 375.1174792228204 L 769.0527043692292 361.83365767876774 L 831.1247774169592 292.19049546259066 L 826.0054777221674 221.98114385885896 L 739.8397714637919 220.56877699260104 L 727.8251764019806 326.07484422066614 L 727.8251764019806 326.07484422066614" fill-opacity="1" stroke-opacity="1" stroke-linecap="round" stroke-linejoin="round" stroke-miterlimit="10" stroke-width="3"/></g><g><path fill="rgb(111,177,217)" stroke="rgb(241,241,241)" paint-order="fill stroke markers" d=" M 769.0527043692292 361.83365767876774 L 929.9228639095314 420.91045820052335 L 970.3621788337346 397.7729855779686 L 947.7094461637764 325.95916226456893 L 831.1247774169592 292.19049546259066 L 769.0527043692292 361.83365767876774 L 769.0527043692292 361.83365767876774" fill-opacity="1" stroke-opacity="1" stroke-linecap="round" stroke-linejoin="round" stroke-miterlimit="10" stroke-width="3"/></g><g><path fill="rgb(111,177,217)" stroke="rgb(241,241,241)" paint-order="fill stroke markers" d=" M 1076.0029029447094 175.03803334452454 L 1134.6009313640732 237.47134921751052 L 1180.9838006571492 241.52809822032847 L 1229.7769612535997 142.94342277679942 L 1192.2270259426825 99.21860804043787 L 1158.561975606122 96.33986794981517 L 1145.4938628895509 105.07419477944691 L 1076.0029029447094 175.03803334452454 L 1076.0029029447094 175.03803334452454" fill-opacity="1" stroke-opacity="1" stroke-linecap="round" stroke-linejoin="round" stroke-miterlimit="10" stroke-width="3"/></g><g><path fill="rgb(111,177,217)" stroke="rgb(241,241,241)" paint-order="fill stroke markers" d=" M 270.8411190164811 670.5935569961395 L 301.3812222636271 760.4135781860745 L 353.12862359264363 760.7541194041949 L 413.617819036257 745.8510013388216 L 443.24252545048336 664.444807034951 L 324.2382029789968 642.1998803331397 L 270.8411190164811 670.5935569961395 L 270.8411190164811 670.5935569961395" fill-opacity="1" stroke-opacity="1" stroke-linecap="round" stroke-linejoin="round" stroke-miterlimit="10" stroke-width="3"/></g><g><path fill="rgb(111,177,217)" stroke="rgb(241,241,241)" paint-order="fill stroke markers" d=" M 378.03034644119685 470.27900348440966 L 381.0722513292504 482.3095420614898 L 413.50651845676333 535.6237494874711 L 523.5474306888347 484.0589397145769 L 497.2476105459699 417.841394368411 L 401.44490910374196 448.562142666189 L 378.03034644119685 470.27900348440966 L 378.03034644119685 470.27900348440966" fill-opacity="1" stroke-opacity="1" stroke-linecap="round" stroke-linejoin="round" stroke-miterlimit="10" stroke-width="3"/></g><g><path fill="rgb(111,177,217)" stroke="rgb(241,241,241)" paint-order="fill stroke markers" d=" M 1167.0675115304514 805.2830663913596 L 1244.3595707769932 879.6581962336999 L 1317.3031246809508 833.1085625430045 L 1274.7825732138285 770.3684679653671 L 1237.2165338433147 746.1551601457287 L 1167.0675115304514 805.2830663913596 L 1167.0675115304514 805.2830663913596" fill-opacity="1" stroke-opacity="1" stroke-linecap="round" stroke-linejoin="round" stroke-miterlimit="10" stroke-width="3"/></g><g><path fill="rgb(111,177,217)" stroke="rgb(241,241,241)" paint-order="fill stroke markers" d=" M 1090.4123418385445 532.7009353913652 L 1093.2955484787394 605.8990704420269 L 1196.3411920674507 589.5537808544977 L 1202.1119351974723 584.4534369132306 L 1228.1909433821493 559.6616203965694 L 1220.3862221702805 549.3081999200172 L 1090.4123418385445 532.7009353913652 L 1090.4123418385445 532.7009353913652" fill-opacity="1" stroke-opacity="1" stroke-linecap="round" stroke-linejoin="round" stroke-miterlimit="10" stroke-width="3"/></g><g><path fill="rgb(111,177,217)" stroke="rgb(241,241,241)" paint-order="fill stroke markers" d=" M 1069.8906793323156 644.6543778012973 L 1169.6942267048323 695.1499160949277 L 1180.2008178762187 695.9581122150149 L 1196.3411920674507 589.5537808544977 L 1093.2955484787394 605.8990704420269 L 1069.8906793323156 644.6543778012973 L 1069.8906793323156 644.6543778012973" fill-opacity="1" stroke-opacity="1" stroke-linecap="round" stroke-linejoin="round" stroke-miterlimit="10" stroke-width="3"/></g><g><path fill="rgb(111,177,217)" stroke="rgb(241,241,241)" paint-order="fill stroke markers" d=" M 71.83236845264383 928.6303130723732 L 74.11706845468719 940 L 209.4962610120889 940 L 97.62232566373204 794.6925503065994 L 71.83236845264383 928.6303130723732 L 71.83236845264383 928.6303130723732" fill-opacity="1" stroke-opacity="1" stroke-linecap="round" stroke-linejoin="round" stroke-miterlimit="10" stroke-width="3"/></g><g><path fill="rgb(111,177,217)" stroke="rgb(241,241,241)" paint-order="fill stroke markers" d=" M 1413.4624307241588 940 L 1384.9209760442757 862.2471130327301 L 1317.3031246809508 833.1085625430045 L 1244.3595707769932 879.6581962336999 L 1187.7142341235945 940 L 1413.4624307241588 940 L 1413.4624307241588 940" fill-opacity="1" stroke-opacity="1" stroke-linecap="round" stroke-linejoin="round" stroke-miterlimit="10" stroke-width="3"/></g><g><path fill="rgb(111,177,217)" stroke="rgb(241,241,241)" paint-order="fill stroke markers" d=" M 353.12862359264363 760.7541194041949 L 406.7380432710212 940 L 472.93156667578296 940 L 500.79558268213003 845.0241911314249 L 413.617819036257 745.8510013388216 L 353.12862359264363 760.7541194041949 L 353.12862359264363 760.7541194041949" fill-opacity="1" stroke-opacity="1" stroke-linecap="round" stroke-linejoin="round" stroke-miterlimit="10" stroke-width="3"/></g><g><path fill="rgb(111,177,217)" stroke="rgb(241,241,241)" paint-order="fill stroke markers" d=" M 582.4429759139168 524.1004809069036 L 672.3218797006206 509.68443802108595 L 733.4499872623114 454.6060678916996 L 730.332179167396 398.23599903319325 L 690.9244004957962 393.4281364419578 L 582.4429759139168 524.1004809069036 L 582.4429759139168 524.1004809069036" fill-opacity="1" stroke-opacity="1" stroke-linecap="round" stroke-linejoin="round" stroke-miterlimit="10" stroke-width="3"/></g><g><path fill="rgb(111,177,217)" stroke="rgb(241,241,241)" paint-order="fill stroke markers" d=" M 0 446.98329776952284 L 149.07102422216036 558.3773337385237 L 204.48305619090956 560.1026645286136 L 206.8967756394032 540.5056680376315 L 8.34965503096646 390.29199216518236 L 0 391.3754271177196 L 0 446.98329776952284 L 0 446.98329776952284" fill-opacity="1" stroke-opacity="1" stroke-linecap="round" stroke-linejoin="round" stroke-miterlimit="10" stroke-width="3"/></g><g><path fill="rgb(111,177,217)" stroke="rgb(241,241,241)" paint-order="fill stroke markers" d=" M 915.0187821722229 468.39080274009837 L 961.1736578499074 562.9133508554454 L 1050.2771031108778 445.0792863721559 L 970.3621788337346 397.7729855779686 L 929.9228639095314 420.91045820052335 L 929.727948602852 421.1315862678347 L 915.0187821722229 468.39080274009837 L 915.0187821722229 468.39080274009837" fill-opacity="1" stroke-opacity="1" stroke-linecap="round" stroke-linejoin="round" stroke-miterlimit="10" stroke-width="3"/></g><g><path fill="rgb(111,177,217)" stroke="rgb(241,241,241)" paint-order="fill stroke markers" d=" M 413.50651845676333 535.6237494874711 L 419.1507682048422 565.0369961594137 L 472.4965135244346 633.8846145778465 L 490.8046936632998 632.3902380367915 L 503.3832632451091 625.7757711653588 L 564.528765263969 549.5347405332994 L 565.7140769178134 532.4440307462676 L 561.6534558030636 525.1255986971946 L 523.5474306888347 484.0589397145769 L 413.50651845676333 535.6237494874711 L 413.50651845676333 535.6237494874711" fill-opacity="1" stroke-opacity="1" stroke-linecap="round" stroke-linejoin="round" stroke-miterlimit="10" stroke-width="3"/></g><g><path fill="rgb(111,177,217)" stroke="rgb(241,241,241)" paint-order="fill stroke markers" d=" M 297.29152324237725 556.5990158539963 L 316.84949112089197 558.6855091036731 L 381.0722513292504 482.3095420614898 L 378.03034644119685 470.27900348440966 L 310.23621244317525 444.988636072217 L 297.29152324237725 556.5990158539963 L 297.29152324237725 556.5990158539963" fill-opacity="1" stroke-opacity="1" stroke-linecap="round" stroke-linejoin="round" stroke-miterlimit="10" stroke-width="3"/></g><g><path fill="rgb(111,177,217)" stroke="rgb(241,241,241)" paint-order="fill stroke markers" d=" M 162.10849629033478 211.0742750330354 L 162.8951425219633 220.21871206682678 L 174.50330103612094 324.7335740797816 L 339.33131263423854 269.2722692866478 L 238.71251050028835 134.90548928829858 L 168.568471433111 201.44763769780087 L 162.10849629033478 211.0742750330354 L 162.10849629033478 211.0742750330354" fill-opacity="1" stroke-opacity="1" stroke-linecap="round" stroke-linejoin="round" stroke-miterlimit="10" stroke-width="3"/></g><g><path fill="rgb(111,177,217)" stroke="rgb(241,241,241)" paint-order="fill stroke markers" d=" M 367.0364922711384 253.69337703684465 L 468.31531837560226 294.52795998672156 L 523.3695610879151 268.7636840546946 L 509.71701693781057 196.6093561327712 L 454.79011528674386 185.27525129254406 L 424.04548008006606 188.49919919171623 L 367.0364922711384 253.69337703684465 L 367.0364922711384 253.69337703684465" fill-opacity="1" stroke-opacity="1" stroke-linecap="round" stroke-linejoin="round" stroke-miterlimit="10" stroke-width="3"/></g><g><path fill="rgb(111,177,217)" stroke="rgb(241,241,241)" paint-order="fill stroke markers" d=" M 1278.769774342993 161.49783207516214 L 1295.317024400136 202.20915938357874 L 1317.4075137042691 233.20762608892787 L 1600 79.90822429645394 L 1600 67.95882372707408 L 1346.2375880765112 102.07033679071719 L 1278.769774342993 161.49783207516214 L 1278.769774342993 161.49783207516214" fill-opacity="1" stroke-opacity="1" stroke-linecap="round" stroke-linejoin="round" stroke-miterlimit="10" stroke-width="3"/></g><g><path fill="rgb(111,177,217)" stroke="rgb(241,241,241)" paint-order="fill stroke markers" d=" M 1317.4075137042691 233.20762608892787 L 1317.8962039141295 267.005640838065 L 1325.0255518276476 302.20836711607654 L 1484.6986360749581 309.879053971953 L 1600 240.9498796858462 L 1600 79.90822429645394 L 1317.4075137042691 233.20762608892787 L 1317.4075137042691 233.20762608892787" fill-opacity="1" stroke-opacity="1" stroke-linecap="round" stroke-linejoin="round" stroke-miterlimit="10" stroke-width="3"/></g><g><path fill="rgb(111,177,217)" stroke="rgb(241,241,241)" paint-order="fill stroke markers" d=" M 1213.4487429214823 383.114940550462 L 1320.354676530156 475.34756591217575 L 1363.566390361036 416.02781163373595 L 1313.049164016973 319.3711729403058 L 1225.575918077935 366.1924377492453 L 1213.4487429214823 383.114940550462 L 1213.4487429214823 383.114940550462" fill-opacity="1" stroke-opacity="1" stroke-linecap="round" stroke-linejoin="round" stroke-miterlimit="10" stroke-width="3"/></g><g><path fill="rgb(111,177,217)" stroke="rgb(241,241,241)" paint-order="fill stroke markers" d=" M 1230.84419675173 729.8854440702328 L 1237.2165338433147 746.1551601457287 L 1274.7825732138285 770.3684679653671 L 1323.3225372531363 722.2627419246598 L 1328.8962996693836 630.021662036684 L 1302.9090336589088 602.7894001081958 L 1244.0564546497455 704.96799621491 L 1230.84419675173 729.8854440702328 L 1230.84419675173 729.8854440702328" fill-opacity="1" stroke-opacity="1" stroke-linecap="round" stroke-linejoin="round" stroke-miterlimit="10" stroke-width="3"/></g><g><path fill="rgb(111,177,217)" stroke="rgb(241,241,241)" paint-order="fill stroke markers" d=" M 998.272113130375 252.75285730625018 L 1103.5165770941794 333.01576073958336 L 1134.6009313640732 237.47134921751052 L 1076.0029029447094 175.03803334452454 L 1047.1577493294635 177.34356706174043 L 1001.3156654165796 232.56034121796807 L 998.272113130375 252.75285730625018 L 998.272113130375 252.75285730625018" fill-opacity="1" stroke-opacity="1" stroke-linecap="round" stroke-linejoin="round" stroke-miterlimit="10" stroke-width="3"/></g><g><path fill="rgb(111,177,217)" stroke="rgb(241,241,241)" paint-order="fill stroke markers" d=" M 204.48305619090956 560.1026645286136 L 216.07336424535484 580.2528976891441 L 297.29152324237725 556.5990158539963 L 310.23621244317525 444.988636072217 L 302.0573738171226 440.215252233261 L 235.98830518387874 446.13453186334505 L 206.8967756394032 540.5056680376315 L 204.48305619090956 560.1026645286136 L 204.48305619090956 560.1026645286136" fill-opacity="1" stroke-opacity="1" stroke-linecap="round" stroke-linejoin="round" stroke-miterlimit="10" stroke-width="3"/></g><g><path fill="rgb(111,177,217)" stroke="rgb(241,241,241)" paint-order="fill stroke markers" d=" M 1435.0336336174696 411.5395783433404 L 1445.2643971267912 445.66140461697427 L 1600 452.9897758380471 L 1600 240.9498796858462 L 1484.6986360749581 309.879053971953 L 1435.0336336174696 411.5395783433404 L 1435.0336336174696 411.5395783433404" fill-opacity="1" stroke-opacity="1" stroke-linecap="round" stroke-linejoin="round" stroke-miterlimit="10" stroke-width="3"/></g><g><path fill="rgb(111,177,217)" stroke="rgb(241,241,241)" paint-order="fill stroke markers" d=" M 1150.13573539097 940 L 1138.1216826125365 914.0333196674571 L 1083.4189595805362 882.21048565852 L 1016.7051910281132 873.1920733890978 L 939.0675245741782 940 L 1150.13573539097 940 L 1150.13573539097 940" fill-opacity="1" stroke-opacity="1" stroke-linecap="round" stroke-linejoin="round" stroke-miterlimit="10" stroke-width="3"/></g><g><path fill="rgb(111,177,217)" stroke="rgb(241,241,241)" paint-order="fill stroke markers" d=" M 836.6305138996337 790.4532761403366 L 862.091078916334 829.9305223403004 L 1025.124317828805 788.9506713972684 L 1042.9350388971657 760.6276280668372 L 1010.9462874652002 672.8128856037235 L 1009.523303676533 672.3110149191631 L 871.0747392963326 731.4572990846117 L 836.6305138996337 790.4532761403366 L 836.6305138996337 790.4532761403366" fill-opacity="1" stroke-opacity="1" stroke-linecap="round" stroke-linejoin="round" stroke-miterlimit="10" stroke-width="3"/></g><g><path fill="rgb(111,177,217)" stroke="rgb(241,241,241)" paint-order="fill stroke markers" d=" M 564.528765263969 549.5347405332994 L 672.7929395963392 611.8814002315548 L 672.3218797006206 509.68443802108595 L 582.4429759139168 524.1004809069036 L 565.7140769178134 532.4440307462676 L 564.528765263969 549.5347405332994 L 564.528765263969 549.5347405332994" fill-opacity="1" stroke-opacity="1" stroke-linecap="round" stroke-linejoin="round" stroke-miterlimit="10" stroke-width="3"/></g><g><path fill="rgb(111,177,217)" stroke="rgb(241,241,241)" paint-order="fill stroke markers" d=" M 623.0605396845738 789.1158317981517 L 692.0519842742696 813.1979797395196 L 749.2723238776917 783.9786649011712 L 714.7751279178068 625.885767816668 L 681.4723081909875 620.5259162322874 L 623.0605396845738 789.1158317981517 L 623.0605396845738 789.1158317981517" fill-opacity="1" stroke-opacity="1" stroke-linecap="round" stroke-linejoin="round" stroke-miterlimit="10" stroke-width="3"/></g><g><path fill="rgb(111,177,217)" stroke="rgb(241,241,241)" paint-order="fill stroke markers" d=" M 80.62691348637426 89.51655303140483 L 168.568471433111 201.44763769780087 L 238.71251050028835 134.90548928829858 L 240.35361011278235 115.94771312492624 L 167.9954965834615 61.62428150490304 L 80.62691348637426 89.51655303140483 L 80.62691348637426 89.51655303140483" fill-opacity="1" stroke-opacity="1" stroke-linecap="round" stroke-linejoin="round" stroke-miterlimit="10" stroke-width="3"/></g><g><path fill="rgb(111,177,217)" stroke="rgb(241,241,241)" paint-order="fill stroke markers" d=" M 1443.4722748909696 771.9033208257969 L 1543.7836408179196 799.432765001373 L 1569.0467599360638 705.8867248703879 L 1463.942550526685 678.4002875807022 L 1461.519674842023 680.9633335439236 L 1445.9248613413884 726.5775306577184 L 1443.4722748909696 771.9033208257969 L 1443.4722748909696 771.9033208257969" fill-opacity="1" stroke-opacity="1" stroke-linecap="round" stroke-linejoin="round" stroke-miterlimit="10" stroke-width="3"/></g><g><path fill="rgb(111,177,217)" stroke="rgb(241,241,241)" paint-order="fill stroke markers" d=" M 216.07336424535484 580.2528976891441 L 223.1436866137102 638.3346403603499 L 270.8411190164811 670.5935569961395 L 324.2382029789968 642.1998803331397 L 343.72054433253953 590.4789506519026 L 316.84949112089197 558.6855091036731 L 297.29152324237725 556.5990158539963 L 216.07336424535484 580.2528976891441 L 216.07336424535484 580.2528976891441" fill-opacity="1" stroke-opacity="1" stroke-linecap="round" stroke-linejoin="round" stroke-miterlimit="10" stroke-width="3"/></g><g><path fill="rgb(111,177,217)" stroke="rgb(241,241,241)" paint-order="fill stroke markers" d=" M 625.8017828273938 136.81573374836444 L 628.126551624378 139.92791216379567 L 845.4249015044833 162.55379287060242 L 856.1764395947716 110.49012804877272 L 719.0070073659386 8.760987487185998 L 625.8017828273938 136.81573374836444 L 625.8017828273938 136.81573374836444" fill-opacity="1" stroke-opacity="1" stroke-linecap="round" stroke-linejoin="round" stroke-miterlimit="10" stroke-width="3"/></g><g><path fill="rgb(111,177,217)" stroke="rgb(241,241,241)" paint-order="fill stroke markers" d=" M 1019.8590705989012 96.07274689833869 L 1068.0895004110246 64.28462777695226 L 1058.3532852091264 28.10203369267357 L 1019.8590705989012 96.07274689833869 L 1019.8590705989012 96.07274689833869" fill-opacity="1" stroke-opacity="1" stroke-linecap="round" stroke-linejoin="round" stroke-miterlimit="10" stroke-width="3"/></g><g><path fill="rgb(111,177,217)" stroke="rgb(241,241,241)" paint-order="fill stroke markers" d=" M 660.2485591202532 207.554202831049 L 727.8251764019806 326.07484422066614 L 739.8397714637919 220.56877699260104 L 660.2485591202532 207.554202831049 L 660.2485591202532 207.554202831049" fill-opacity="1" stroke-opacity="1" stroke-linecap="round" stroke-linejoin="round" stroke-miterlimit="10" stroke-width="3"/></g><g><path fill="rgb(111,177,217)" stroke="rgb(241,241,241)" paint-order="fill stroke markers" d=" M 1057.5359461912358 445.00378189636115 L 1090.4123418385445 532.7009353913652 L 1220.3862221702805 549.3081999200172 L 1161.8054988697108 408.4133580151627 L 1122.7187169626088 406.63752969687334 L 1057.5359461912358 445.00378189636115 L 1057.5359461912358 445.00378189636115" fill-opacity="1" stroke-opacity="1" stroke-linecap="round" stroke-linejoin="round" stroke-miterlimit="10" stroke-width="3"/></g><g><path fill="rgb(111,177,217)" stroke="rgb(241,241,241)" paint-order="fill stroke markers" d=" M 8.34965503096646 390.29199216518236 L 206.8967756394032 540.5056680376315 L 235.98830518387874 446.13453186334505 L 152.29764097719118 358.77311835269546 L 8.34965503096646 390.29199216518236 L 8.34965503096646 390.29199216518236" fill-opacity="1" stroke-opacity="1" stroke-linecap="round" stroke-linejoin="round" stroke-miterlimit="10" stroke-width="3"/></g><g><path fill="rgb(111,177,217)" stroke="rgb(241,241,241)" paint-order="fill stroke markers" d=" M 57.8847040049088 266.223803868582 L 162.8951425219633 220.21871206682678 L 162.10849629033478 211.0742750330354 L 122.92843975698082 204.45309141039237 L 57.8847040049088 266.223803868582 L 57.8847040049088 266.223803868582" fill-opacity="1" stroke-opacity="1" stroke-linecap="round" stroke-linejoin="round" stroke-miterlimit="10" stroke-width="3"/></g><g><path fill="rgb(111,177,217)" stroke="rgb(241,241,241)" paint-order="fill stroke markers" d=" M 490.8046936632998 632.3902380367915 L 570.9048029125048 796.3580494172941 L 617.6325427514498 787.9834508411083 L 603.1464917066552 672.4724584856646 L 503.3832632451091 625.7757711653588 L 490.8046936632998 632.3902380367915 L 490.8046936632998 632.3902380367915" fill-opacity="1" stroke-opacity="1" stroke-linecap="round" stroke-linejoin="round" stroke-miterlimit="10" stroke-width="3"/></g><g><path fill="rgb(111,177,217)" stroke="rgb(241,241,241)" paint-order="fill stroke markers" d=" M 302.0573738171226 440.215252233261 L 310.23621244317525 444.988636072217 L 378.03034644119685 470.27900348440966 L 401.44490910374196 448.562142666189 L 391.12735758788443 329.60111333627515 L 345.80137236792643 277.8873675493553 L 302.0573738171226 440.215252233261 L 302.0573738171226 440.215252233261" fill-opacity="1" stroke-opacity="1" stroke-linecap="round" stroke-linejoin="round" stroke-miterlimit="10" stroke-width="3"/></g><g><path fill="rgb(111,177,217)" stroke="rgb(241,241,241)" paint-order="fill stroke markers" d=" M 1384.9209760442757 862.2471130327301 L 1413.4624307241588 940 L 1600 940 L 1600 846.8954766764598 L 1543.7836408179196 799.432765001373 L 1443.4722748909696 771.9033208257969 L 1384.9209760442757 862.2471130327301 L 1384.9209760442757 862.2471130327301" fill-opacity="1" stroke-opacity="1" stroke-linecap="round" stroke-linejoin="round" stroke-miterlimit="10" stroke-width="3"/></g><g><path fill="rgb(111,177,217)" stroke="rgb(241,241,241)" paint-order="fill stroke markers" d=" M 468.31531837560226 294.52795998672156 L 472.9196399347178 359.9823707144045 L 504.2155913412563 386.5967956358654 L 564.0750790646133 328.3607089040569 L 523.3695610879151 268.7636840546946 L 468.31531837560226 294.52795998672156 L 468.31531837560226 294.52795998672156" fill-opacity="1" stroke-opacity="1" stroke-linecap="round" stroke-linejoin="round" stroke-miterlimit="10" stroke-width="3"/></g><g><path fill="rgb(111,177,217)" stroke="rgb(241,241,241)" paint-order="fill stroke markers" d=" M 1543.7836408179196 799.432765001373 L 1600 846.8954766764598 L 1600 700.9706852933066 L 1569.0467599360638 705.8867248703879 L 1543.7836408179196 799.432765001373 L 1543.7836408179196 799.432765001373" fill-opacity="1" stroke-opacity="1" stroke-linecap="round" stroke-linejoin="round" stroke-miterlimit="10" stroke-width="3"/></g><g><path fill="rgb(111,177,217)" stroke="rgb(241,241,241)" paint-order="fill stroke markers" d=" M 1320.354676530156 475.34756591217575 L 1328.8875385022836 536.2025430028476 L 1437.0821733971131 535.2001482320271 L 1445.2643971267912 445.66140461697427 L 1435.0336336174696 411.5395783433404 L 1363.566390361036 416.02781163373595 L 1320.354676530156 475.34756591217575 L 1320.354676530156 475.34756591217575" fill-opacity="1" stroke-opacity="1" stroke-linecap="round" stroke-linejoin="round" stroke-miterlimit="10" stroke-width="3"/></g><g><path fill="rgb(111,177,217)" stroke="rgb(241,241,241)" paint-order="fill stroke markers" d=" M 714.7751279178068 625.885767816668 L 749.2723238776917 783.9786649011712 L 836.6305138996337 790.4532761403366 L 871.0747392963326 731.4572990846117 L 838.4894094370152 633.2144888156021 L 730.6087399087177 614.5003009291001 L 714.7751279178068 625.885767816668 L 714.7751279178068 625.885767816668" fill-opacity="1" stroke-opacity="1" stroke-linecap="round" stroke-linejoin="round" stroke-miterlimit="10" stroke-width="3"/></g><g><path fill="rgb(111,177,217)" stroke="rgb(241,241,241)" paint-order="fill stroke markers" d=" M 316.84949112089197 558.6855091036731 L 343.72054433253953 590.4789506519026 L 419.1507682048422 565.0369961594137 L 413.50651845676333 535.6237494874711 L 381.0722513292504 482.3095420614898 L 316.84949112089197 558.6855091036731 L 316.84949112089197 558.6855091036731" fill-opacity="1" stroke-opacity="1" stroke-linecap="round" stroke-linejoin="round" stroke-miterlimit="10" stroke-width="3"/></g><g><path fill="rgb(111,177,217)" stroke="rgb(241,241,241)" paint-order="fill stroke markers" d=" M 845.4249015044833 162.55379287060242 L 845.7019772675467 165.1167163983927 L 1001.3156654165796 232.56034121796807 L 1047.1577493294635 177.34356706174043 L 1002.3576382047904 113.49686994501567 L 966.4232725770396 86.38765208920285 L 861.4130867178771 106.58734062037239 L 856.1764395947716 110.49012804877272 L 845.4249015044833 162.55379287060242 L 845.4249015044833 162.55379287060242" fill-opacity="1" stroke-opacity="1" stroke-linecap="round" stroke-linejoin="round" stroke-miterlimit="10" stroke-width="3"/></g><g><path fill="rgb(111,177,217)" stroke="rgb(241,241,241)" paint-order="fill stroke markers" d=" M 1296.7173905749676 570.3105073666247 L 1302.9090336589088 602.7894001081958 L 1328.8962996693836 630.021662036684 L 1343.2695568531783 638.3863298881297 L 1461.519674842023 680.9633335439236 L 1463.942550526685 678.4002875807022 L 1488.9274912652818 574.7625482905286 L 1437.0821733971131 535.2001482320271 L 1328.8875385022836 536.2025430028476 L 1296.7173905749676 570.3105073666247 L 1296.7173905749676 570.3105073666247" fill-opacity="1" stroke-opacity="1" stroke-linecap="round" stroke-linejoin="round" stroke-miterlimit="10" stroke-width="3"/></g><g><path fill="rgb(111,177,217)" stroke="rgb(241,241,241)" paint-order="fill stroke markers" d=" M 829.7150713738384 530.1313082061629 L 870.7455277995174 575.7980437380758 L 914.1019339445179 568.0930502869401 L 894.6892279991345 490.9186274482809 L 856.2150749632322 489.03929755447854 L 829.7150713738384 530.1313082061629 L 829.7150713738384 530.1313082061629" fill-opacity="1" stroke-opacity="1" stroke-linecap="round" stroke-linejoin="round" stroke-miterlimit="10" stroke-width="3"/></g><g><path fill="rgb(111,177,217)" stroke="rgb(241,241,241)" paint-order="fill stroke markers" d=" M 454.79011528674386 185.27525129254406 L 509.71701693781057 196.6093561327712 L 622.0759691234796 136.35417683457925 L 523.5265785402405 33.32336059881475 L 475.71317571541255 107.07733832000028 L 454.79011528674386 185.27525129254406 L 454.79011528674386 185.27525129254406" fill-opacity="1" stroke-opacity="1" stroke-linecap="round" stroke-linejoin="round" stroke-miterlimit="10" stroke-width="3"/></g><g><path fill="rgb(111,177,217)" stroke="rgb(241,241,241)" paint-order="fill stroke markers" d=" M 718.6473542562996 0 L 719.0070073659386 8.760987487185998 L 856.1764395947716 110.49012804877272 L 861.4130867178771 106.58734062037239 L 881.6968934322716 0 L 718.6473542562996 0 L 718.6473542562996 0" fill-opacity="1" stroke-opacity="1" stroke-linecap="round" stroke-linejoin="round" stroke-miterlimit="10" stroke-width="3"/></g><g><path fill="rgb(111,177,217)" stroke="rgb(241,241,241)" paint-order="fill stroke markers" d=" M 0 97.8316590317455 L 80.62691348637426 89.51655303140483 L 167.9954965834615 61.62428150490304 L 165.7273734502995 0 L 0 0 L 0 97.8316590317455 L 0 97.8316590317455" fill-opacity="1" stroke-opacity="1" stroke-linecap="round" stroke-linejoin="round" stroke-miterlimit="10" stroke-width="3"/></g><g><path fill="rgb(111,177,217)" stroke="rgb(241,241,241)" paint-order="fill stroke markers" d=" M 93.7755109076123 781.231953638612 L 97.62232566373204 794.6925503065994 L 209.4962610120889 940 L 273.04725429170344 940 L 272.1590215211047 801.8750678196949 L 201.98831383617474 786.7681332873619 L 93.7755109076123 781.231953638612 L 93.7755109076123 781.231953638612" fill-opacity="1" stroke-opacity="1" stroke-linecap="round" stroke-linejoin="round" stroke-miterlimit="10" stroke-width="3"/></g><g><path fill="rgb(111,177,217)" stroke="rgb(241,241,241)" paint-order="fill stroke markers" d=" M 743.877831519377 386.25365759384346 L 853.5412827058473 452.81677694276425 L 929.727948602852 421.1315862678347 L 929.9228639095314 420.91045820052335 L 769.0527043692292 361.83365767876774 L 751.1043856235972 375.1174792228204 L 743.877831519377 386.25365759384346 L 743.877831519377 386.25365759384346" fill-opacity="1" stroke-opacity="1" stroke-linecap="round" stroke-linejoin="round" stroke-miterlimit="10" stroke-width="3"/></g><g><path fill="rgb(111,177,217)" stroke="rgb(241,241,241)" paint-order="fill stroke markers" d=" M 272.1590215211047 801.8750678196949 L 273.04725429170344 940 L 406.7380432710212 940 L 353.12862359264363 760.7541194041949 L 301.3812222636271 760.4135781860745 L 272.1590215211047 801.8750678196949 L 272.1590215211047 801.8750678196949" fill-opacity="1" stroke-opacity="1" stroke-linecap="round" stroke-linejoin="round" stroke-miterlimit="10" stroke-width="3"/></g><g><path fill="rgb(111,177,217)" stroke="rgb(241,241,241)" paint-order="fill stroke markers" d=" M 1323.3225372531363 722.2627419246598 L 1356.6328591851216 713.5250300498901 L 1343.2695568531783 638.3863298881297 L 1328.8962996693836 630.021662036684 L 1323.3225372531363 722.2627419246598 L 1323.3225372531363 722.2627419246598" fill-opacity="1" stroke-opacity="1" stroke-linecap="round" stroke-linejoin="round" stroke-miterlimit="10" stroke-width="3"/></g><g><path fill="rgb(111,177,217)" stroke="rgb(241,241,241)" paint-order="fill stroke markers" d=" M 1463.942550526685 678.4002875807022 L 1569.0467599360638 705.8867248703879 L 1600 700.9706852933066 L 1600 537.0541237216894 L 1488.9274912652818 574.7625482905286 L 1463.942550526685 678.4002875807022 L 1463.942550526685 678.4002875807022" fill-opacity="1" stroke-opacity="1" stroke-linecap="round" stroke-linejoin="round" stroke-miterlimit="10" stroke-width="3"/></g><g><path fill="rgb(111,177,217)" stroke="rgb(241,241,241)" paint-order="fill stroke markers" d=" M 152.29764097719118 358.77311835269546 L 235.98830518387874 446.13453186334505 L 302.0573738171226 440.215252233261 L 345.80137236792643 277.8873675493553 L 343.7706830831228 270.6415172913901 L 339.33131263423854 269.2722692866478 L 174.50330103612094 324.7335740797816 L 152.29764097719118 358.77311835269546 L 152.29764097719118 358.77311835269546" fill-opacity="1" stroke-opacity="1" stroke-linecap="round" stroke-linejoin="round" stroke-miterlimit="10" stroke-width="3"/></g><g><path fill="rgb(111,177,217)" stroke="rgb(241,241,241)" paint-order="fill stroke markers" d=" M 201.98831383617474 786.7681332873619 L 272.1590215211047 801.8750678196949 L 301.3812222636271 760.4135781860745 L 270.8411190164811 670.5935569961395 L 223.1436866137102 638.3346403603499 L 202.6032660779425 652.0086817882694 L 201.98831383617474 786.7681332873619 L 201.98831383617474 786.7681332873619" fill-opacity="1" stroke-opacity="1" stroke-linecap="round" stroke-linejoin="round" stroke-miterlimit="10" stroke-width="3"/></g><g><path fill="rgb(111,177,217)" stroke="rgb(241,241,241)" paint-order="fill stroke markers" d=" M 165.7273734502995 0 L 167.9954965834615 61.62428150490304 L 240.35361011278235 115.94771312492624 L 349.488385996813 36.61927938009085 L 355.29977545297584 22.165372476344075 L 362.5629824503791 0 L 165.7273734502995 0 L 165.7273734502995 0" fill-opacity="1" stroke-opacity="1" stroke-linecap="round" stroke-linejoin="round" stroke-miterlimit="10" stroke-width="3"/></g><g><path fill="rgb(111,177,217)" stroke="rgb(241,241,241)" paint-order="fill stroke markers" d=" M 899.1270241582868 940 L 862.091078916334 829.9305223403004 L 836.6305138996337 790.4532761403366 L 749.2723238776917 783.9786649011712 L 692.0519842742696 813.1979797395196 L 683.2474283076547 940 L 899.1270241582868 940 L 899.1270241582868 940" fill-opacity="1" stroke-opacity="1" stroke-linecap="round" stroke-linejoin="round" stroke-miterlimit="10" stroke-width="3"/></g><g><path fill="rgb(111,177,217)" stroke="rgb(241,241,241)" paint-order="fill stroke markers" d=" M 413.617819036257 745.8510013388216 L 500.79558268213003 845.0241911314249 L 570.9048029125048 796.3580494172941 L 490.8046936632998 632.3902380367915 L 472.4965135244346 633.8846145778465 L 443.24252545048336 664.444807034951 L 413.617819036257 745.8510013388216 L 413.617819036257 745.8510013388216" fill-opacity="1" stroke-opacity="1" stroke-linecap="round" stroke-linejoin="round" stroke-miterlimit="10" stroke-width="3"/></g><g><path fill="rgb(111,177,217)" stroke="rgb(241,241,241)" paint-order="fill stroke markers" d=" M 594.261605638086 327.254243683529 L 674.4247243738323 387.80930642521173 L 690.9244004957962 393.4281364419578 L 730.332179167396 398.23599903319325 L 743.877831519377 386.25365759384346 L 751.1043856235972 375.1174792228204 L 727.8251764019806 326.07484422066614 L 660.2485591202532 207.554202831049 L 652.5744609658215 202.14507065518737 L 594.261605638086 327.254243683529 L 594.261605638086 327.254243683529" fill-opacity="1" stroke-opacity="1" stroke-linecap="round" stroke-linejoin="round" stroke-miterlimit="10" stroke-width="3"/></g><g><path fill="rgb(111,177,217)" stroke="rgb(241,241,241)" paint-order="fill stroke markers" d=" M 1138.1216826125365 914.0333196674571 L 1150.13573539097 940 L 1187.7142341235945 940 L 1244.3595707769932 879.6581962336999 L 1167.0675115304514 805.2830663913596 L 1153.6312116277595 811.8691334774958 L 1138.1216826125365 914.0333196674571 L 1138.1216826125365 914.0333196674571" fill-opacity="1" stroke-opacity="1" stroke-linecap="round" stroke-linejoin="round" stroke-miterlimit="10" stroke-width="3"/></g><g><path fill="rgb(111,177,217)" stroke="rgb(241,241,241)" paint-order="fill stroke markers" d=" M 826.0054777221674 221.98114385885896 L 831.1247774169592 292.19049546259066 L 947.7094461637764 325.95916226456893 L 998.272113130375 252.75285730625018 L 1001.3156654165796 232.56034121796807 L 845.7019772675467 165.1167163983927 L 826.0054777221674 221.98114385885896 L 826.0054777221674 221.98114385885896" fill-opacity="1" stroke-opacity="1" stroke-linecap="round" stroke-linejoin="round" stroke-miterlimit="10" stroke-width="3"/></g><g><path fill="rgb(111,177,217)" stroke="rgb(241,241,241)" paint-order="fill stroke markers" d=" M 1180.9838006571492 241.52809822032847 L 1191.6772087673774 251.41790119640527 L 1196.8416012691896 250.53556585517254 L 1295.317024400136 202.20915938357874 L 1278.769774342993 161.49783207516214 L 1229.7769612535997 142.94342277679942 L 1180.9838006571492 241.52809822032847 L 1180.9838006571492 241.52809822032847" fill-opacity="1" stroke-opacity="1" stroke-linecap="round" stroke-linejoin="round" stroke-miterlimit="10" stroke-width="3"/></g><g><path fill="rgb(111,177,217)" stroke="rgb(241,241,241)" paint-order="fill stroke markers" d=" M 838.4894094370152 633.2144888156021 L 871.0747392963326 731.4572990846117 L 1009.523303676533 672.3110149191631 L 956.4968029059406 572.1192637612613 L 914.1019339445179 568.0930502869401 L 870.7455277995174 575.7980437380758 L 838.4894094370152 633.2144888156021 L 838.4894094370152 633.2144888156021" fill-opacity="1" stroke-opacity="1" stroke-linecap="round" stroke-linejoin="round" stroke-miterlimit="10" stroke-width="3"/></g><g><path fill="rgb(111,177,217)" stroke="rgb(241,241,241)" paint-order="fill stroke markers" d=" M 1080.691002067798 776.381465715414 L 1083.4189595805362 882.21048565852 L 1138.1216826125365 914.0333196674571 L 1153.6312116277595 811.8691334774958 L 1092.3391846969496 777.6772010437444 L 1080.691002067798 776.381465715414 L 1080.691002067798 776.381465715414" fill-opacity="1" stroke-opacity="1" stroke-linecap="round" stroke-linejoin="round" stroke-miterlimit="10" stroke-width="3"/></g><g><path fill="rgb(111,177,217)" stroke="rgb(241,241,241)" paint-order="fill stroke markers" d=" M 1192.2270259426825 99.21860804043787 L 1229.7769612535997 142.94342277679942 L 1278.769774342993 161.49783207516214 L 1346.2375880765112 102.07033679071719 L 1259.5402760382551 17.50420868505369 L 1192.2270259426825 99.21860804043787 L 1192.2270259426825 99.21860804043787" fill-opacity="1" stroke-opacity="1" stroke-linecap="round" stroke-linejoin="round" stroke-miterlimit="10" stroke-width="3"/></g><g><path fill="rgb(111,177,217)" stroke="rgb(241,241,241)" paint-order="fill stroke markers" d=" M 1002.3576382047904 113.49686994501567 L 1047.1577493294635 177.34356706174043 L 1076.0029029447094 175.03803334452454 L 1145.4938628895509 105.07419477944691 L 1068.0895004110246 64.28462777695226 L 1019.8590705989012 96.07274689833869 L 1002.3576382047904 113.49686994501567 L 1002.3576382047904 113.49686994501567" fill-opacity="1" stroke-opacity="1" stroke-linecap="round" stroke-linejoin="round" stroke-miterlimit="10" stroke-width="3"/></g><g><path fill="rgb(111,177,217)" stroke="rgb(241,241,241)" paint-order="fill stroke markers" d=" M 506.92583541383914 0 L 523.5265785402405 33.32336059881475 L 622.0759691234796 136.35417683457925 L 625.8017828273938 136.81573374836444 L 719.0070073659386 8.760987487185998 L 718.6473542562996 0 L 506.92583541383914 0 L 506.92583541383914 0" fill-opacity="1" stroke-opacity="1" stroke-linecap="round" stroke-linejoin="round" stroke-miterlimit="10" stroke-width="3"/></g><g><path fill="rgb(111,177,217)" stroke="rgb(241,241,241)" paint-order="fill stroke markers" d=" M 1016.7051910281132 873.1920733890978 L 1083.4189595805362 882.21048565852 L 1080.691002067798 776.381465715414 L 1042.9350388971657 760.6276280668372 L 1025.124317828805 788.9506713972684 L 1016.7051910281132 873.1920733890978 L 1016.7051910281132 873.1920733890978" fill-opacity="1" stroke-opacity="1" stroke-linecap="round" stroke-linejoin="round" stroke-miterlimit="10" stroke-width="3"/></g><g><path fill="rgb(111,177,217)" stroke="rgb(241,241,241)" paint-order="fill stroke markers" d=" M 0 391.3754271177196 L 8.34965503096646 390.29199216518236 L 152.29764097719118 358.77311835269546 L 174.50330103612094 324.7335740797816 L 162.8951425219633 220.21871206682678 L 57.8847040049088 266.223803868582 L 0 317.19363692726495 L 0 391.3754271177196 L 0 391.3754271177196" fill-opacity="1" stroke-opacity="1" stroke-linecap="round" stroke-linejoin="round" stroke-miterlimit="10" stroke-width="3"/></g><g><path fill="rgb(111,177,217)" stroke="rgb(241,241,241)" paint-order="fill stroke markers" d=" M 628.126551624378 139.92791216379567 L 652.5744609658215 202.14507065518737 L 660.2485591202532 207.554202831049 L 739.8397714637919 220.56877699260104 L 826.0054777221674 221.98114385885896 L 845.7019772675467 165.1167163983927 L 845.4249015044833 162.55379287060242 L 628.126551624378 139.92791216379567 L 628.126551624378 139.92791216379567" fill-opacity="1" stroke-opacity="1" stroke-linecap="round" stroke-linejoin="round" stroke-miterlimit="10" stroke-width="3"/></g><g><path fill="rgb(111,177,217)" stroke="rgb(241,241,241)" paint-order="fill stroke markers" d=" M 497.2476105459699 417.841394368411 L 523.5474306888347 484.0589397145769 L 561.6534558030636 525.1255986971946 L 585.0848600536331 466.2093835390569 L 573.2820526131401 423.8856109119373 L 500.7606529109438 409.4053951190983 L 497.2476105459699 417.841394368411 L 497.2476105459699 417.841394368411" fill-opacity="1" stroke-opacity="1" stroke-linecap="round" stroke-linejoin="round" stroke-miterlimit="10" stroke-width="3"/></g><g><path fill="rgb(111,177,217)" stroke="rgb(241,241,241)" paint-order="fill stroke markers" d=" M 1180.2008178762187 695.9581122150149 L 1230.84419675173 729.8854440702328 L 1244.0564546497455 704.96799621491 L 1202.1119351974723 584.4534369132306 L 1196.3411920674507 589.5537808544977 L 1180.2008178762187 695.9581122150149 L 1180.2008178762187 695.9581122150149" fill-opacity="1" stroke-opacity="1" stroke-linecap="round" stroke-linejoin="round" stroke-miterlimit="10" stroke-width="3"/></g><g><path fill="rgb(111,177,217)" stroke="rgb(241,241,241)" paint-order="fill stroke markers" d=" M 956.4968029059406 572.1192637612613 L 1009.523303676533 672.3110149191631 L 1010.9462874652002 672.8128856037235 L 1069.8906793323156 644.6543778012973 L 1093.2955484787394 605.8990704420269 L 1090.4123418385445 532.7009353913652 L 1057.5359461912358 445.00378189636115 L 1050.2771031108778 445.0792863721559 L 961.1736578499074 562.9133508554454 L 956.4968029059406 572.1192637612613 L 956.4968029059406 572.1192637612613" fill-opacity="1" stroke-opacity="1" stroke-linecap="round" stroke-linejoin="round" stroke-miterlimit="10" stroke-width="3"/></g><g><path fill="rgb(111,177,217)" stroke="rgb(241,241,241)" paint-order="fill stroke markers" d=" M 683.2474283076547 940 L 692.0519842742696 813.1979797395196 L 623.0605396845738 789.1158317981517 L 617.6325427514498 787.9834508411083 L 570.9048029125048 796.3580494172941 L 500.79558268213003 845.0241911314249 L 472.93156667578296 940 L 683.2474283076547 940 L 683.2474283076547 940" fill-opacity="1" stroke-opacity="1" stroke-linecap="round" stroke-linejoin="round" stroke-miterlimit="10" stroke-width="3"/></g><g><path fill="rgb(111,177,217)" stroke="rgb(241,241,241)" paint-order="fill stroke markers" d=" M 672.3218797006206 509.68443802108595 L 672.7929395963392 611.8814002315548 L 680.7051121275207 620.2671917456333 L 681.4723081909875 620.5259162322874 L 714.7751279178068 625.885767816668 L 730.6087399087177 614.5003009291001 L 763.6993955130212 515.1457224446458 L 733.4499872623114 454.6060678916996 L 672.3218797006206 509.68443802108595 L 672.3218797006206 509.68443802108595" fill-opacity="1" stroke-opacity="1" stroke-linecap="round" stroke-linejoin="round" stroke-miterlimit="10" stroke-width="3"/></g><g><path fill="rgb(111,177,217)" stroke="rgb(241,241,241)" paint-order="fill stroke markers" d=" M 730.6087399087177 614.5003009291001 L 838.4894094370152 633.2144888156021 L 870.7455277995174 575.7980437380758 L 829.7150713738384 530.1313082061629 L 763.6993955130212 515.1457224446458 L 730.6087399087177 614.5003009291001 L 730.6087399087177 614.5003009291001" fill-opacity="1" stroke-opacity="1" stroke-linecap="round" stroke-linejoin="round" stroke-miterlimit="10" stroke-width="3"/></g><g><path fill="rgb(111,177,217)" stroke="rgb(241,241,241)" paint-order="fill stroke markers" d=" M 969.4161158463046 0 L 975.9348007452596 49.62572530275246 L 1058.655375594552 18.09871655010317 L 1071.1048153939537 0 L 969.4161158463046 0 L 969.4161158463046 0" fill-opacity="1" stroke-opacity="1" stroke-linecap="round" stroke-linejoin="round" stroke-miterlimit="10" stroke-width="3"/></g><g><path fill="rgb(111,177,217)" stroke="rgb(241,241,241)" paint-order="fill stroke markers" d=" M 66.1181762117739 617.4045508609539 L 108.54029297416777 701.5009444155595 L 202.6032660779425 652.0086817882694 L 223.1436866137102 638.3346403603499 L 216.07336424535484 580.2528976891441 L 204.48305619090956 560.1026645286136 L 149.07102422216036 558.3773337385237 L 66.1181762117739 617.4045508609539 L 66.1181762117739 617.4045508609539" fill-opacity="1" stroke-opacity="1" stroke-linecap="round" stroke-linejoin="round" stroke-miterlimit="10" stroke-width="3"/></g><g><path fill="rgb(111,177,217)" stroke="rgb(241,241,241)" paint-order="fill stroke markers" d=" M 74.11706845468719 940 L 71.83236845264383 928.6303130723732 L 0 873.0205467059161 L 0 940 L 74.11706845468719 940 L 74.11706845468719 940" fill-opacity="1" stroke-opacity="1" stroke-linecap="round" stroke-linejoin="round" stroke-miterlimit="10" stroke-width="3"/></g><g><path fill="rgb(111,177,217)" stroke="rgb(241,241,241)" paint-order="fill stroke markers" d=" M 324.2382029789968 642.1998803331397 L 443.24252545048336 664.444807034951 L 472.4965135244346 633.8846145778465 L 419.1507682048422 565.0369961594137 L 343.72054433253953 590.4789506519026 L 324.2382029789968 642.1998803331397 L 324.2382029789968 642.1998803331397" fill-opacity="1" stroke-opacity="1" stroke-linecap="round" stroke-linejoin="round" stroke-miterlimit="10" stroke-width="3"/></g><g><path fill="rgb(111,177,217)" stroke="rgb(241,241,241)" paint-order="fill stroke markers" d=" M 862.091078916334 829.9305223403004 L 899.1270241582868 940 L 939.0675245741782 940 L 1016.7051910281132 873.1920733890978 L 1025.124317828805 788.9506713972684 L 862.091078916334 829.9305223403004 L 862.091078916334 829.9305223403004" fill-opacity="1" stroke-opacity="1" stroke-linecap="round" stroke-linejoin="round" stroke-miterlimit="10" stroke-width="3"/></g><g><path fill="rgb(111,177,217)" stroke="rgb(241,241,241)" paint-order="fill stroke markers" d=" M 1191.6772087673774 251.41790119640527 L 1225.575918077935 366.1924377492453 L 1313.049164016973 319.3711729403058 L 1325.0255518276476 302.20836711607654 L 1317.8962039141295 267.005640838065 L 1196.8416012691896 250.53556585517254 L 1191.6772087673774 251.41790119640527 L 1191.6772087673774 251.41790119640527" fill-opacity="1" stroke-opacity="1" stroke-linecap="round" stroke-linejoin="round" stroke-miterlimit="10" stroke-width="3"/></g><g><path fill="rgb(111,177,217)" stroke="rgb(241,241,241)" paint-order="fill stroke markers" d=" M 573.2820526131401 423.8856109119373 L 585.0848600536331 466.2093835390569 L 616.7253457196665 419.8034243830658 L 573.2820526131401 423.8856109119373 L 573.2820526131401 423.8856109119373" fill-opacity="1" stroke-opacity="1" stroke-linecap="round" stroke-linejoin="round" stroke-miterlimit="10" stroke-width="3"/></g><g><path fill="rgb(111,177,217)" stroke="rgb(241,241,241)" paint-order="fill stroke markers" d=" M 1274.7825732138285 770.3684679653671 L 1317.3031246809508 833.1085625430045 L 1384.9209760442757 862.2471130327301 L 1443.4722748909696 771.9033208257969 L 1445.9248613413884 726.5775306577184 L 1356.6328591851216 713.5250300498901 L 1323.3225372531363 722.2627419246598 L 1274.7825732138285 770.3684679653671 L 1274.7825732138285 770.3684679653671" fill-opacity="1" stroke-opacity="1" stroke-linecap="round" stroke-linejoin="round" stroke-miterlimit="10" stroke-width="3"/></g><g><path fill="rgb(111,177,217)" stroke="rgb(241,241,241)" paint-order="fill stroke markers" d=" M 1092.3391846969496 777.6772010437444 L 1153.6312116277595 811.8691334774958 L 1167.0675115304514 805.2830663913596 L 1237.2165338433147 746.1551601457287 L 1230.84419675173 729.8854440702328 L 1180.2008178762187 695.9581122150149 L 1169.6942267048323 695.1499160949277 L 1092.3391846969496 777.6772010437444 L 1092.3391846969496 777.6772010437444" fill-opacity="1" stroke-opacity="1" stroke-linecap="round" stroke-linejoin="round" stroke-miterlimit="10" stroke-width="3"/></g><g><path fill="rgb(111,177,217)" stroke="rgb(241,241,241)" paint-order="fill stroke markers" d=" M 894.6892279991345 490.9186274482809 L 914.1019339445179 568.0930502869401 L 956.4968029059406 572.1192637612613 L 961.1736578499074 562.9133508554454 L 915.0187821722229 468.39080274009837 L 894.6892279991345 490.9186274482809 L 894.6892279991345 490.9186274482809" fill-opacity="1" stroke-opacity="1" stroke-linecap="round" stroke-linejoin="round" stroke-miterlimit="10" stroke-width="3"/></g><g><path fill="rgb(111,177,217)" stroke="rgb(241,241,241)" paint-order="fill stroke markers" d=" M 500.7606529109438 409.4053951190983 L 573.2820526131401 423.8856109119373 L 616.7253457196665 419.8034243830658 L 674.4247243738323 387.80930642521173 L 594.261605638086 327.254243683529 L 564.0750790646133 328.3607089040569 L 504.2155913412563 386.5967956358654 L 500.7606529109438 409.4053951190983 L 500.7606529109438 409.4053951190983" fill-opacity="1" stroke-opacity="1" stroke-linecap="round" stroke-linejoin="round" stroke-miterlimit="10" stroke-width="3"/></g><g><path fill="rgb(111,177,217)" stroke="rgb(241,241,241)" paint-order="fill stroke markers" d=" M 1343.2695568531783 638.3863298881297 L 1356.6328591851216 713.5250300498901 L 1445.9248613413884 726.5775306577184 L 1461.519674842023 680.9633335439236 L 1343.2695568531783 638.3863298881297 L 1343.2695568531783 638.3863298881297" fill-opacity="1" stroke-opacity="1" stroke-linecap="round" stroke-linejoin="round" stroke-miterlimit="10" stroke-width="3"/></g><g><path fill="rgb(111,177,217)" stroke="rgb(241,241,241)" paint-order="fill stroke markers" d=" M 0 576.0770129303659 L 66.1181762117739 617.4045508609539 L 149.07102422216036 558.3773337385237 L 0 446.98329776952284 L 0 576.0770129303659 L 0 576.0770129303659" fill-opacity="1" stroke-opacity="1" stroke-linecap="round" stroke-linejoin="round" stroke-miterlimit="10" stroke-width="3"/></g><g><path fill="rgb(111,177,217)" stroke="rgb(241,241,241)" paint-order="fill stroke markers" d=" M 238.71251050028835 134.90548928829858 L 339.33131263423854 269.2722692866478 L 343.7706830831228 270.6415172913901 L 367.0364922711384 253.69337703684465 L 424.04548008006606 188.49919919171623 L 349.488385996813 36.61927938009085 L 240.35361011278235 115.94771312492624 L 238.71251050028835 134.90548928829858 L 238.71251050028835 134.90548928829858" fill-opacity="1" stroke-opacity="1" stroke-linecap="round" stroke-linejoin="round" stroke-miterlimit="10" stroke-width="3"/></g><g><path fill="rgb(111,177,217)" stroke="rgb(241,241,241)" paint-order="fill stroke markers" d=" M 730.332179167396 398.23599903319325 L 733.4499872623114 454.6060678916996 L 763.6993955130212 515.1457224446458 L 829.7150713738384 530.1313082061629 L 856.2150749632322 489.03929755447854 L 853.5412827058473 452.81677694276425 L 743.877831519377 386.25365759384346 L 730.332179167396 398.23599903319325 L 730.332179167396 398.23599903319325" fill-opacity="1" stroke-opacity="1" stroke-linecap="round" stroke-linejoin="round" stroke-miterlimit="10" stroke-width="3"/></g><g><path fill="rgb(111,177,217)" stroke="rgb(241,241,241)" paint-order="fill stroke markers" d=" M 1120.0391381490138 0 L 1158.561975606122 96.33986794981517 L 1192.2270259426825 99.21860804043787 L 1259.5402760382551 17.50420868505369 L 1262.6344504666215 0 L 1120.0391381490138 0 L 1120.0391381490138 0" fill-opacity="1" stroke-opacity="1" stroke-linecap="round" stroke-linejoin="round" stroke-miterlimit="10" stroke-width="3"/></g><g><path fill="rgb(111,177,217)" stroke="rgb(241,241,241)" paint-order="fill stroke markers" d=" M 603.1464917066552 672.4724584856646 L 617.6325427514498 787.9834508411083 L 623.0605396845738 789.1158317981517 L 681.4723081909875 620.5259162322874 L 680.7051121275207 620.2671917456333 L 603.1464917066552 672.4724584856646 L 603.1464917066552 672.4724584856646" fill-opacity="1" stroke-opacity="1" stroke-linecap="round" stroke-linejoin="round" stroke-miterlimit="10" stroke-width="3"/></g><g><path fill="rgb(111,177,217)" stroke="rgb(241,241,241)" paint-order="fill stroke markers" d=" M 81.42364109956222 768.4536379563376 L 93.7755109076123 781.231953638612 L 201.98831383617474 786.7681332873619 L 202.6032660779425 652.0086817882694 L 108.54029297416777 701.5009444155595 L 81.42364109956222 768.4536379563376 L 81.42364109956222 768.4536379563376" fill-opacity="1" stroke-opacity="1" stroke-linecap="round" stroke-linejoin="round" stroke-miterlimit="10" stroke-width="3"/></g><g><path fill="rgb(111,177,217)" stroke="rgb(241,241,241)" paint-order="fill stroke markers" d=" M 503.3832632451091 625.7757711653588 L 603.1464917066552 672.4724584856646 L 680.7051121275207 620.2671917456333 L 672.7929395963392 611.8814002315548 L 564.528765263969 549.5347405332994 L 503.3832632451091 625.7757711653588 L 503.3832632451091 625.7757711653588" fill-opacity="1" stroke-opacity="1" stroke-linecap="round" stroke-linejoin="round" stroke-miterlimit="10" stroke-width="3"/></g><g><path fill="rgb(111,177,217)" stroke="rgb(241,241,241)" paint-order="fill stroke markers" d=" M 1103.5165770941794 333.01576073958336 L 1122.7187169626088 406.63752969687334 L 1161.8054988697108 408.4133580151627 L 1213.4487429214823 383.114940550462 L 1225.575918077935 366.1924377492453 L 1191.6772087673774 251.41790119640527 L 1180.9838006571492 241.52809822032847 L 1134.6009313640732 237.47134921751052 L 1103.5165770941794 333.01576073958336 L 1103.5165770941794 333.01576073958336" fill-opacity="1" stroke-opacity="1" stroke-linecap="round" stroke-linejoin="round" stroke-miterlimit="10" stroke-width="3"/></g></g></g></svg>