<svg version="1.1" xmlns="http://www.w3.org/2000/svg" xmlns:xlink="http://www.w3.org/1999/xlink" width="846" height="940" viewBox="0 0 846 940"><defs/><g transform="scale(1,1)"><g transform="scale(1,1)"><g transform="scale(1,1)"><rect fill="rgb(255,255,255)" stroke="none" x="0" y="0" width="846" height="940" fill-opacity="1"/></g><g><path fill="rgb(19,161,31)" stroke="rgb(252,252,252)" paint-order="fill stroke markers" d=" M 0 83.39641896275683 L 108.46112516746894 100.68333501836653 L 147.72552460295032 -7.105427357601002e-15 L 0 0 L 0 83.39641896275683 L 0 83.39641896275683" fill-opacity="1" stroke-opacity="1" stroke-linecap="round" stroke-linejoin="round" stroke-miterlimit="10" stroke-width="22"/></g><g><path fill="rgb(19,161,31)" stroke="rgb(252,252,252)" paint-order="fill stroke markers" d=" M 0 172.06286539075947 L 65.70867470876752 215.37090997099548 L 99.79374119402638 175.81253496499568 L 110.34766790985043 146.01601773834443 L 109.56507362579222 103.59891843755489 L 108.46112516746894 100.68333501836653 L 0 83.39641896275683 L 0 172.06286539075947 L 0 172.06286539075947" fill-opacity="1" stroke-opacity="1" stroke-linecap="round" stroke-linejoin="round" stroke-miterlimit="10" stroke-width="22"/></g><g><path fill="rgb(19,161,31)" stroke="rgb(252,252,252)" paint-order="fill stroke markers" d=" M 0 321.58973740201793 L 73.11497744348475 247.75883947344525 L 65.70867470876752 215.37090997099548 L 0 172.06286539075947 L 0 321.58973740201793 L 0 321.58973740201793" fill-opacity="1" stroke-opacity="1" stroke-linecap="round" stroke-linejoin="round" stroke-miterlimit="10" stroke-width="22"/></g><g><path fill="rgb(19,161,31)" stroke="rgb(252,252,252)" paint-order="fill stroke markers" d=" M 0 338.4748691871979 L 67.28718586845835 375.6007825079402 L 112.20264828834655 270.03955418397976 L 73.11497744348475 247.75883947344525 L 0 321.58973740201793 L 0 338.4748691871979 L 0 338.4748691871979" fill-opacity="1" stroke-opacity="1" stroke-linecap="round" stroke-linejoin="round" stroke-miterlimit="10" stroke-width="22"/></g><g><path fill="rgb(19,161,31)" stroke="rgb(252,252,252)" paint-order="fill stroke markers" d=" M 0 339.70444080456593 L 36.059612746026566 464.20193994567836 L 91.06706000657637 437.1000198109914 L 89.10941138932503 392.9453510283076 L 67.28718586845835 375.6007825079402 L 0 338.4748691871979 L 0 339.70444080456593 L 0 339.70444080456593" fill-opacity="1" stroke-opacity="1" stroke-linecap="round" stroke-linejoin="round" stroke-miterlimit="10" stroke-width="22"/></g><g><path fill="rgb(19,161,31)" stroke="rgb(252,252,252)" paint-order="fill stroke markers" d=" M 0 498.78712780291806 L 36.059612746026566 464.20193994567836 L 0 339.70444080456593 L 0 498.78712780291806 L 0 498.78712780291806" fill-opacity="1" stroke-opacity="1" stroke-linecap="round" stroke-linejoin="round" stroke-miterlimit="10" stroke-width="22"/></g><g><path fill="rgb(19,161,31)" stroke="rgb(252,252,252)" paint-order="fill stroke markers" d=" M 7.105427357601002e-15 607.7602599422186 L 44.010513121027316 634.992105945377 L 121.71388684653294 566.8683735258411 L 16.991025562085085 511.89620018339883 L 0 505.2412476478393 L 7.105427357601002e-15 607.7602599422186 L 7.105427357601002e-15 607.7602599422186" fill-opacity="1" stroke-opacity="1" stroke-linecap="round" stroke-linejoin="round" stroke-miterlimit="10" stroke-width="22"/></g><g><path fill="rgb(19,161,31)" stroke="rgb(252,252,252)" paint-order="fill stroke markers" d=" M 0 712.9895286936116 L 14.378816663671516 709.137257460015 L 62.12583849293236 685.6027991157993 L 44.010513121027316 634.992105945377 L 7.105427357601002e-15 607.7602599422186 L 0 712.9895286936116 L 0 712.9895286936116" fill-opacity="1" stroke-opacity="1" stroke-linecap="round" stroke-linejoin="round" stroke-miterlimit="10" stroke-width="22"/></g><g><path fill="rgb(19,161,31)" stroke="rgb(252,252,252)" paint-order="fill stroke markers" d=" M 0 834.6758663915755 L 19.32168226442466 819.0308384792091 L 14.378816663671516 709.137257460015 L 0 712.9895286936116 L 0 834.6758663915755 L 0 834.6758663915755" fill-opacity="1" stroke-opacity="1" stroke-linecap="round" stroke-linejoin="round" stroke-miterlimit="10" stroke-width="22"/></g><g><path fill="rgb(19,161,31)" stroke="rgb(252,252,252)" paint-order="fill stroke markers" d=" M 14.378816663671516 709.137257460015 L 19.32168226442466 819.0308384792091 L 40.72613129516559 805.5129509094756 L 66.59794732417758 691.2228592649655 L 62.126441409008905 685.603254477153 L 62.12583849293236 685.6027991157993 L 14.378816663671516 709.137257460015 L 14.378816663671516 709.137257460015" fill-opacity="1" stroke-opacity="1" stroke-linecap="round" stroke-linejoin="round" stroke-miterlimit="10" stroke-width="22"/></g><g><path fill="rgb(19,161,31)" stroke="rgb(252,252,252)" paint-order="fill stroke markers" d=" M 0 929.2777846521325 L 70.82747900125071 935.9471204423414 L 181.44008350786547 833.9800858914654 L 182.2268986698254 833.1123623275047 L 174.69605787974174 814.2540916441575 L 153.20215031916064 799.2811168721935 L 40.72613129516559 805.5129509094756 L 19.32168226442466 819.0308384792091 L 0 834.6758663915755 L 0 929.2777846521325 L 0 929.2777846521325" fill-opacity="1" stroke-opacity="1" stroke-linecap="round" stroke-linejoin="round" stroke-miterlimit="10" stroke-width="22"/></g><g><path fill="rgb(19,161,31)" stroke="rgb(252,252,252)" paint-order="fill stroke markers" d=" M 74.95598810534935 940 L 70.82747900125071 935.9471204423414 L 0 929.2777846521325 L 0 940 L 74.95598810534935 940 L 74.95598810534935 940" fill-opacity="1" stroke-opacity="1" stroke-linecap="round" stroke-linejoin="round" stroke-miterlimit="10" stroke-width="22"/></g><g><path fill="rgb(19,161,31)" stroke="rgb(252,252,252)" paint-order="fill stroke markers" d=" M 108.46112516746894 100.68333501836653 L 109.56507362579222 103.59891843755489 L 198.8542795265545 116.2296172018206 L 206.74698245715237 102.99668071068723 L 199.74498986250416 20.729632147955087 L 192.96161680263583 0 L 147.72552460295032 -7.105427357601002e-15 L 108.46112516746894 100.68333501836653 L 108.46112516746894 100.68333501836653" fill-opacity="1" stroke-opacity="1" stroke-linecap="round" stroke-linejoin="round" stroke-miterlimit="10" stroke-width="22"/></g><g><path fill="rgb(19,161,31)" stroke="rgb(252,252,252)" paint-order="fill stroke markers" d=" M 109.56507362579222 103.59891843755489 L 110.34766790985043 146.01601773834443 L 178.30368290541196 148.04681491477763 L 198.46005402848942 121.27942472033904 L 198.8542795265545 116.2296172018206 L 109.56507362579222 103.59891843755489 L 109.56507362579222 103.59891843755489" fill-opacity="1" stroke-opacity="1" stroke-linecap="round" stroke-linejoin="round" stroke-miterlimit="10" stroke-width="22"/></g><g><path fill="rgb(19,161,31)" stroke="rgb(252,252,252)" paint-order="fill stroke markers" d=" M 65.70867470876752 215.37090997099548 L 73.11497744348475 247.75883947344525 L 112.20264828834655 270.03955418397976 L 131.22161142608496 278.54805039177626 L 202.2094766833182 214.89949855264868 L 182.05204339921409 191.90650600908123 L 99.79374119402638 175.81253496499568 L 65.70867470876752 215.37090997099548 L 65.70867470876752 215.37090997099548" fill-opacity="1" stroke-opacity="1" stroke-linecap="round" stroke-linejoin="round" stroke-miterlimit="10" stroke-width="22"/></g><g><path fill="rgb(19,161,31)" stroke="rgb(252,252,252)" paint-order="fill stroke markers" d=" M 67.28718586845835 375.6007825079402 L 89.10941138932503 392.9453510283076 L 164.00429350074194 330.64526366114194 L 131.22161142608496 278.54805039177626 L 112.20264828834655 270.03955418397976 L 67.28718586845835 375.6007825079402 L 67.28718586845835 375.6007825079402" fill-opacity="1" stroke-opacity="1" stroke-linecap="round" stroke-linejoin="round" stroke-miterlimit="10" stroke-width="22"/></g><g><path fill="rgb(19,161,31)" stroke="rgb(252,252,252)" paint-order="fill stroke markers" d=" M 89.10941138932503 392.9453510283076 L 91.06706000657637 437.1000198109914 L 126.1801978527442 458.3461492411852 L 192.21766718467202 434.40050958947006 L 201.93412641385234 430.25369763860067 L 198.91602780931944 346.97388135038614 L 164.00429350074194 330.64526366114194 L 89.10941138932503 392.9453510283076 L 89.10941138932503 392.9453510283076" fill-opacity="1" stroke-opacity="1" stroke-linecap="round" stroke-linejoin="round" stroke-miterlimit="10" stroke-width="22"/></g><g><path fill="rgb(19,161,31)" stroke="rgb(252,252,252)" paint-order="fill stroke markers" d=" M 0 505.2412476478393 L 16.991025562085085 511.89620018339883 L 129.21191508386133 501.68623639144624 L 126.1801978527442 458.3461492411852 L 91.06706000657637 437.1000198109914 L 36.059612746026566 464.20193994567836 L 0 498.78712780291806 L 0 505.2412476478393 L 0 505.2412476478393" fill-opacity="1" stroke-opacity="1" stroke-linecap="round" stroke-linejoin="round" stroke-miterlimit="10" stroke-width="22"/></g><g><path fill="rgb(19,161,31)" stroke="rgb(252,252,252)" paint-order="fill stroke markers" d=" M 16.991025562085085 511.89620018339883 L 121.71388684653294 566.8683735258411 L 143.25530929804916 561.5824529741494 L 129.21191508386133 501.68623639144624 L 16.991025562085085 511.89620018339883 L 16.991025562085085 511.89620018339883" fill-opacity="1" stroke-opacity="1" stroke-linecap="round" stroke-linejoin="round" stroke-miterlimit="10" stroke-width="22"/></g><g><path fill="rgb(19,161,31)" stroke="rgb(252,252,252)" paint-order="fill stroke markers" d=" M 44.010513121027316 634.992105945377 L 62.12583849293236 685.6027991157993 L 62.126441409008905 685.603254477153 L 168.86527058970808 618.9956152280163 L 174.54931510542062 576.0754444763934 L 159.0751615647723 568.5010866259504 L 143.25530929804916 561.5824529741494 L 121.71388684653294 566.8683735258411 L 44.010513121027316 634.992105945377 L 44.010513121027316 634.992105945377" fill-opacity="1" stroke-opacity="1" stroke-linecap="round" stroke-linejoin="round" stroke-miterlimit="10" stroke-width="22"/></g><g><path fill="rgb(19,161,31)" stroke="rgb(252,252,252)" paint-order="fill stroke markers" d=" M 62.126441409008905 685.603254477153 L 66.59794732417758 691.2228592649655 L 114.47419914311806 717.1020029507426 L 179.650703355012 672.1278657054401 L 168.86527058970808 618.9956152280163 L 62.126441409008905 685.603254477153 L 62.126441409008905 685.603254477153" fill-opacity="1" stroke-opacity="1" stroke-linecap="round" stroke-linejoin="round" stroke-miterlimit="10" stroke-width="22"/></g><g><path fill="rgb(19,161,31)" stroke="rgb(252,252,252)" paint-order="fill stroke markers" d=" M 40.72613129516559 805.5129509094756 L 153.20215031916064 799.2811168721935 L 114.47419914311806 717.1020029507426 L 66.59794732417758 691.2228592649655 L 40.72613129516559 805.5129509094756 L 40.72613129516559 805.5129509094756" fill-opacity="1" stroke-opacity="1" stroke-linecap="round" stroke-linejoin="round" stroke-miterlimit="10" stroke-width="22"/></g><g><path fill="rgb(19,161,31)" stroke="rgb(252,252,252)" paint-order="fill stroke markers" d=" M 260.6059971476471 940 L 264.0158234921272 895.9170650757975 L 244.65230425577533 864.8240078207 L 182.2268986698254 833.1123623275047 L 181.44008350786547 833.9800858914654 L 171.09071765314965 940 L 260.6059971476471 940 L 260.6059971476471 940" fill-opacity="1" stroke-opacity="1" stroke-linecap="round" stroke-linejoin="round" stroke-miterlimit="10" stroke-width="22"/></g><g><path fill="rgb(19,161,31)" stroke="rgb(252,252,252)" paint-order="fill stroke markers" d=" M 199.74498986250416 20.729632147955087 L 206.74698245715237 102.99668071068723 L 286.51176907069305 119.95067956483297 L 285.6048185441922 94.13172184221077 L 199.74498986250416 20.729632147955087 L 199.74498986250416 20.729632147955087" fill-opacity="1" stroke-opacity="1" stroke-linecap="round" stroke-linejoin="round" stroke-miterlimit="10" stroke-width="22"/></g><g><path fill="rgb(19,161,31)" stroke="rgb(252,252,252)" paint-order="fill stroke markers" d=" M 178.30368290541196 148.04681491477763 L 182.05204339921409 191.90650600908123 L 202.2094766833182 214.89949855264868 L 249.21525289179596 213.78425660032792 L 258.4839366488318 201.28687417146634 L 198.46005402848942 121.27942472033904 L 178.30368290541196 148.04681491477763 L 178.30368290541196 148.04681491477763" fill-opacity="1" stroke-opacity="1" stroke-linecap="round" stroke-linejoin="round" stroke-miterlimit="10" stroke-width="22"/></g><g><path fill="rgb(19,161,31)" stroke="rgb(252,252,252)" paint-order="fill stroke markers" d=" M 99.79374119402638 175.81253496499568 L 182.05204339921409 191.90650600908123 L 178.30368290541196 148.04681491477763 L 110.34766790985043 146.01601773834443 L 99.79374119402638 175.81253496499568 L 99.79374119402638 175.81253496499568" fill-opacity="1" stroke-opacity="1" stroke-linecap="round" stroke-linejoin="round" stroke-miterlimit="10" stroke-width="22"/></g><g><path fill="rgb(19,161,31)" stroke="rgb(252,252,252)" paint-order="fill stroke markers" d=" M 131.22161142608496 278.54805039177626 L 164.00429350074194 330.64526366114194 L 198.91602780931944 346.97388135038614 L 270.89770032101353 315.8159080392205 L 270.6643203132857 311.8007696584396 L 249.21525289179596 213.78425660032792 L 202.2094766833182 214.89949855264868 L 131.22161142608496 278.54805039177626 L 131.22161142608496 278.54805039177626" fill-opacity="1" stroke-opacity="1" stroke-linecap="round" stroke-linejoin="round" stroke-miterlimit="10" stroke-width="22"/></g><g><path fill="rgb(19,161,31)" stroke="rgb(252,252,252)" paint-order="fill stroke markers" d=" M 198.91602780931944 346.97388135038614 L 201.93412641385234 430.25369763860067 L 227.3046516692599 451.0130513654138 L 252.18852776929035 446.97534785932265 L 285.0021688969452 410.880716557138 L 299.9046089813714 331.0717513428051 L 270.89770032101353 315.8159080392205 L 198.91602780931944 346.97388135038614 L 198.91602780931944 346.97388135038614" fill-opacity="1" stroke-opacity="1" stroke-linecap="round" stroke-linejoin="round" stroke-miterlimit="10" stroke-width="22"/></g><g><path fill="rgb(19,161,31)" stroke="rgb(252,252,252)" paint-order="fill stroke markers" d=" M 159.0751615647723 568.5010866259504 L 174.54931510542062 576.0754444763934 L 229.5715823293445 562.3071569274443 L 227.3046516692599 451.0130513654138 L 201.93412641385234 430.25369763860067 L 192.21766718467202 434.40050958947006 L 159.0751615647723 568.5010866259504 L 159.0751615647723 568.5010866259504" fill-opacity="1" stroke-opacity="1" stroke-linecap="round" stroke-linejoin="round" stroke-miterlimit="10" stroke-width="22"/></g><g><path fill="rgb(19,161,31)" stroke="rgb(252,252,252)" paint-order="fill stroke markers" d=" M 126.1801978527442 458.3461492411852 L 129.21191508386133 501.68623639144624 L 143.25530929804916 561.5824529741494 L 159.0751615647723 568.5010866259504 L 192.21766718467202 434.40050958947006 L 126.1801978527442 458.3461492411852 L 126.1801978527442 458.3461492411852" fill-opacity="1" stroke-opacity="1" stroke-linecap="round" stroke-linejoin="round" stroke-miterlimit="10" stroke-width="22"/></g><g><path fill="rgb(19,161,31)" stroke="rgb(252,252,252)" paint-order="fill stroke markers" d=" M 168.86527058970808 618.9956152280163 L 179.650703355012 672.1278657054401 L 200.7880178397043 685.8847331067241 L 279.6530371280844 640.9241443520259 L 292.2129773477168 585.1770228291093 L 229.5715823293445 562.3071569274443 L 174.54931510542062 576.0754444763934 L 168.86527058970808 618.9956152280163 L 168.86527058970808 618.9956152280163" fill-opacity="1" stroke-opacity="1" stroke-linecap="round" stroke-linejoin="round" stroke-miterlimit="10" stroke-width="22"/></g><g><path fill="rgb(19,161,31)" stroke="rgb(252,252,252)" paint-order="fill stroke markers" d=" M 114.47419914311806 717.1020029507426 L 153.20215031916064 799.2811168721935 L 174.69605787974174 814.2540916441575 L 221.06090965158486 738.3999379804638 L 200.7880178397043 685.8847331067241 L 179.650703355012 672.1278657054401 L 114.47419914311806 717.1020029507426 L 114.47419914311806 717.1020029507426" fill-opacity="1" stroke-opacity="1" stroke-linecap="round" stroke-linejoin="round" stroke-miterlimit="10" stroke-width="22"/></g><g><path fill="rgb(19,161,31)" stroke="rgb(252,252,252)" paint-order="fill stroke markers" d=" M 174.69605787974174 814.2540916441575 L 182.2268986698254 833.1123623275047 L 244.65230425577533 864.8240078207 L 272.0793273342656 833.6673330915015 L 268.7748619497467 728.9694913221103 L 221.06090965158486 738.3999379804638 L 174.69605787974174 814.2540916441575 L 174.69605787974174 814.2540916441575" fill-opacity="1" stroke-opacity="1" stroke-linecap="round" stroke-linejoin="round" stroke-miterlimit="10" stroke-width="22"/></g><g><path fill="rgb(19,161,31)" stroke="rgb(252,252,252)" paint-order="fill stroke markers" d=" M 70.82747900125071 935.9471204423414 L 74.95598810534935 940 L 171.09071765314965 940 L 181.44008350786547 833.9800858914654 L 70.82747900125071 935.9471204423414 L 70.82747900125071 935.9471204423414" fill-opacity="1" stroke-opacity="1" stroke-linecap="round" stroke-linejoin="round" stroke-miterlimit="10" stroke-width="22"/></g><g><path fill="rgb(19,161,31)" stroke="rgb(252,252,252)" paint-order="fill stroke markers" d=" M 192.96161680263583 0 L 199.74498986250416 20.729632147955087 L 285.6048185441922 94.13172184221077 L 329.1611128075584 3.4043659959845343 L 328.85725975324897 0 L 192.96161680263583 0 L 192.96161680263583 0" fill-opacity="1" stroke-opacity="1" stroke-linecap="round" stroke-linejoin="round" stroke-miterlimit="10" stroke-width="22"/></g><g><path fill="rgb(19,161,31)" stroke="rgb(252,252,252)" paint-order="fill stroke markers" d=" M 198.46005402848942 121.27942472033904 L 258.4839366488318 201.28687417146634 L 267.56654921825384 194.89347041011123 L 291.364985580926 127.93905498835443 L 286.51176907069305 119.95067956483297 L 206.74698245715237 102.99668071068723 L 198.8542795265545 116.2296172018206 L 198.46005402848942 121.27942472033904 L 198.46005402848942 121.27942472033904" fill-opacity="1" stroke-opacity="1" stroke-linecap="round" stroke-linejoin="round" stroke-miterlimit="10" stroke-width="22"/></g><g><path fill="rgb(19,161,31)" stroke="rgb(252,252,252)" paint-order="fill stroke markers" d=" M 267.56654921825384 194.89347041011123 L 355.93289345052335 213.90871725631612 L 374.05845888230004 213.4112279973438 L 411.3281979895586 181.56768704137218 L 409.6807953521329 139.69688313555062 L 384.7806092402539 121.65733533535683 L 291.364985580926 127.93905498835443 L 267.56654921825384 194.89347041011123 L 267.56654921825384 194.89347041011123" fill-opacity="1" stroke-opacity="1" stroke-linecap="round" stroke-linejoin="round" stroke-miterlimit="10" stroke-width="22"/></g><g><path fill="rgb(19,161,31)" stroke="rgb(252,252,252)" paint-order="fill stroke markers" d=" M 249.21525289179596 213.78425660032792 L 270.6643203132857 311.8007696584396 L 355.93289345052335 213.90871725631612 L 267.56654921825384 194.89347041011123 L 258.4839366488318 201.28687417146634 L 249.21525289179596 213.78425660032792 L 249.21525289179596 213.78425660032792" fill-opacity="1" stroke-opacity="1" stroke-linecap="round" stroke-linejoin="round" stroke-miterlimit="10" stroke-width="22"/></g><g><path fill="rgb(19,161,31)" stroke="rgb(252,252,252)" paint-order="fill stroke markers" d=" M 252.18852776929035 446.97534785932265 L 314.02587159165967 474.76117858534883 L 350.79296508596775 440.46839757576265 L 285.0021688969452 410.880716557138 L 252.18852776929035 446.97534785932265 L 252.18852776929035 446.97534785932265" fill-opacity="1" stroke-opacity="1" stroke-linecap="round" stroke-linejoin="round" stroke-miterlimit="10" stroke-width="22"/></g><g><path fill="rgb(19,161,31)" stroke="rgb(252,252,252)" paint-order="fill stroke markers" d=" M 285.0021688969452 410.880716557138 L 350.79296508596775 440.46839757576265 L 359.43410728399544 436.3278170440595 L 352.81538227930355 337.7347136588585 L 299.9046089813714 331.0717513428051 L 285.0021688969452 410.880716557138 L 285.0021688969452 410.880716557138" fill-opacity="1" stroke-opacity="1" stroke-linecap="round" stroke-linejoin="round" stroke-miterlimit="10" stroke-width="22"/></g><g><path fill="rgb(19,161,31)" stroke="rgb(252,252,252)" paint-order="fill stroke markers" d=" M 227.3046516692599 451.0130513654138 L 229.5715823293445 562.3071569274443 L 292.2129773477168 585.1770228291093 L 315.5965411568605 577.7473749111579 L 314.02587159165967 474.76117858534883 L 252.18852776929035 446.97534785932265 L 227.3046516692599 451.0130513654138 L 227.3046516692599 451.0130513654138" fill-opacity="1" stroke-opacity="1" stroke-linecap="round" stroke-linejoin="round" stroke-miterlimit="10" stroke-width="22"/></g><g><path fill="rgb(19,161,31)" stroke="rgb(252,252,252)" paint-order="fill stroke markers" d=" M 294.2200452455468 706.8711924845728 L 295.57816210391076 717.7097064073702 L 340.5480508941368 745.86373172487 L 402.16845053302103 665.4157283236832 L 378.5999055951 641.5065568988728 L 294.2200452455468 706.8711924845728 L 294.2200452455468 706.8711924845728" fill-opacity="1" stroke-opacity="1" stroke-linecap="round" stroke-linejoin="round" stroke-miterlimit="10" stroke-width="22"/></g><g><path fill="rgb(19,161,31)" stroke="rgb(252,252,252)" paint-order="fill stroke markers" d=" M 200.7880178397043 685.8847331067241 L 221.06090965158486 738.3999379804638 L 268.7748619497467 728.9694913221103 L 295.57816210391076 717.7097064073702 L 294.2200452455468 706.8711924845728 L 279.6530371280844 640.9241443520259 L 200.7880178397043 685.8847331067241 L 200.7880178397043 685.8847331067241" fill-opacity="1" stroke-opacity="1" stroke-linecap="round" stroke-linejoin="round" stroke-miterlimit="10" stroke-width="22"/></g><g><path fill="rgb(19,161,31)" stroke="rgb(252,252,252)" paint-order="fill stroke markers" d=" M 268.7748619497467 728.9694913221103 L 272.0793273342656 833.6673330915015 L 315.1147215362451 797.4864643550434 L 342.6234170568831 752.0571503165563 L 340.5480508941368 745.86373172487 L 295.57816210391076 717.7097064073702 L 268.7748619497467 728.9694913221103 L 268.7748619497467 728.9694913221103" fill-opacity="1" stroke-opacity="1" stroke-linecap="round" stroke-linejoin="round" stroke-miterlimit="10" stroke-width="22"/></g><g><path fill="rgb(19,161,31)" stroke="rgb(252,252,252)" paint-order="fill stroke markers" d=" M 404.07985474871373 940 L 364.263262462763 888.6299613550559 L 264.0158234921272 895.9170650757975 L 260.6059971476471 940 L 404.07985474871373 940 L 404.07985474871373 940" fill-opacity="1" stroke-opacity="1" stroke-linecap="round" stroke-linejoin="round" stroke-miterlimit="10" stroke-width="22"/></g><g><path fill="rgb(19,161,31)" stroke="rgb(252,252,252)" paint-order="fill stroke markers" d=" M 328.85725975324897 0 L 329.1611128075584 3.4043659959845343 L 378.3142809962305 101.47807107902842 L 429.26966022782443 0 L 328.85725975324897 0 L 328.85725975324897 0" fill-opacity="1" stroke-opacity="1" stroke-linecap="round" stroke-linejoin="round" stroke-miterlimit="10" stroke-width="22"/></g><g><path fill="rgb(19,161,31)" stroke="rgb(252,252,252)" paint-order="fill stroke markers" d=" M 285.6048185441922 94.13172184221077 L 286.51176907069305 119.95067956483297 L 291.364985580926 127.93905498835443 L 384.7806092402539 121.65733533535683 L 378.3142809962305 101.47807107902842 L 329.1611128075584 3.4043659959845343 L 285.6048185441922 94.13172184221077 L 285.6048185441922 94.13172184221077" fill-opacity="1" stroke-opacity="1" stroke-linecap="round" stroke-linejoin="round" stroke-miterlimit="10" stroke-width="22"/></g><g><path fill="rgb(19,161,31)" stroke="rgb(252,252,252)" paint-order="fill stroke markers" d=" M 270.6643203132857 311.8007696584396 L 270.89770032101353 315.8159080392205 L 299.9046089813714 331.0717513428051 L 352.81538227930355 337.7347136588585 L 359.3857819749814 334.4864357169231 L 368.8792116840734 315.91778872820703 L 374.05845888230004 213.4112279973438 L 355.93289345052335 213.90871725631612 L 270.6643203132857 311.8007696584396 L 270.6643203132857 311.8007696584396" fill-opacity="1" stroke-opacity="1" stroke-linecap="round" stroke-linejoin="round" stroke-miterlimit="10" stroke-width="22"/></g><g><path fill="rgb(19,161,31)" stroke="rgb(252,252,252)" paint-order="fill stroke markers" d=" M 359.3857819749814 334.4864357169231 L 458.804833654398 373.24522671821427 L 481.7922831182793 260.54708304272697 L 368.8792116840734 315.91778872820703 L 359.3857819749814 334.4864357169231 L 359.3857819749814 334.4864357169231" fill-opacity="1" stroke-opacity="1" stroke-linecap="round" stroke-linejoin="round" stroke-miterlimit="10" stroke-width="22"/></g><g><path fill="rgb(19,161,31)" stroke="rgb(252,252,252)" paint-order="fill stroke markers" d=" M 352.81538227930355 337.7347136588585 L 359.43410728399544 436.3278170440595 L 390.25081269436765 452.88963942226235 L 480.9862618685404 404.08618755061394 L 458.804833654398 373.24522671821427 L 359.3857819749814 334.4864357169231 L 352.81538227930355 337.7347136588585 L 352.81538227930355 337.7347136588585" fill-opacity="1" stroke-opacity="1" stroke-linecap="round" stroke-linejoin="round" stroke-miterlimit="10" stroke-width="22"/></g><g><path fill="rgb(19,161,31)" stroke="rgb(252,252,252)" paint-order="fill stroke markers" d=" M 314.02587159165967 474.76117858534883 L 315.5965411568605 577.7473749111579 L 325.6081276854934 578.9076133724162 L 401.5187371815312 505.68527172010596 L 390.25081269436765 452.88963942226235 L 359.43410728399544 436.3278170440595 L 350.79296508596775 440.46839757576265 L 314.02587159165967 474.76117858534883 L 314.02587159165967 474.76117858534883" fill-opacity="1" stroke-opacity="1" stroke-linecap="round" stroke-linejoin="round" stroke-miterlimit="10" stroke-width="22"/></g><g><path fill="rgb(19,161,31)" stroke="rgb(252,252,252)" paint-order="fill stroke markers" d=" M 325.6081276854934 578.9076133724162 L 328.7230476581621 581.1101126395197 L 465.98215225914817 576.3153061381971 L 485.668844250269 530.7318455226622 L 401.5187371815312 505.68527172010596 L 325.6081276854934 578.9076133724162 L 325.6081276854934 578.9076133724162" fill-opacity="1" stroke-opacity="1" stroke-linecap="round" stroke-linejoin="round" stroke-miterlimit="10" stroke-width="22"/></g><g><path fill="rgb(19,161,31)" stroke="rgb(252,252,252)" paint-order="fill stroke markers" d=" M 279.6530371280844 640.9241443520259 L 294.2200452455468 706.8711924845728 L 378.5999055951 641.5065568988728 L 328.7230476581621 581.1101126395197 L 325.6081276854934 578.9076133724162 L 315.5965411568605 577.7473749111579 L 292.2129773477168 585.1770228291093 L 279.6530371280844 640.9241443520259 L 279.6530371280844 640.9241443520259" fill-opacity="1" stroke-opacity="1" stroke-linecap="round" stroke-linejoin="round" stroke-miterlimit="10" stroke-width="22"/></g><g><path fill="rgb(19,161,31)" stroke="rgb(252,252,252)" paint-order="fill stroke markers" d=" M 340.5480508941368 745.86373172487 L 342.6234170568831 752.0571503165563 L 414.1877539705197 795.0654925239637 L 439.95002350285904 789.0781357760994 L 443.67945736988884 782.3993835479865 L 417.4881950127139 666.6907597145088 L 402.16845053302103 665.4157283236832 L 340.5480508941368 745.86373172487 L 340.5480508941368 745.86373172487" fill-opacity="1" stroke-opacity="1" stroke-linecap="round" stroke-linejoin="round" stroke-miterlimit="10" stroke-width="22"/></g><g><path fill="rgb(19,161,31)" stroke="rgb(252,252,252)" paint-order="fill stroke markers" d=" M 315.1147215362451 797.4864643550434 L 376.4073426590852 862.8496269155753 L 388.79903828887973 848.7186470019088 L 414.1877539705197 795.0654925239637 L 342.6234170568831 752.0571503165563 L 315.1147215362451 797.4864643550434 L 315.1147215362451 797.4864643550434" fill-opacity="1" stroke-opacity="1" stroke-linecap="round" stroke-linejoin="round" stroke-miterlimit="10" stroke-width="22"/></g><g><path fill="rgb(19,161,31)" stroke="rgb(252,252,252)" paint-order="fill stroke markers" d=" M 244.65230425577533 864.8240078207 L 264.0158234921272 895.9170650757975 L 364.263262462763 888.6299613550559 L 376.4073426590852 862.8496269155753 L 315.1147215362451 797.4864643550434 L 272.0793273342656 833.6673330915015 L 244.65230425577533 864.8240078207 L 244.65230425577533 864.8240078207" fill-opacity="1" stroke-opacity="1" stroke-linecap="round" stroke-linejoin="round" stroke-miterlimit="10" stroke-width="22"/></g><g><path fill="rgb(19,161,31)" stroke="rgb(252,252,252)" paint-order="fill stroke markers" d=" M 378.3142809962305 101.47807107902842 L 384.7806092402539 121.65733533535683 L 409.6807953521329 139.69688313555062 L 496.2223324407198 75.3994092805208 L 446.216700854409 0 L 429.26966022782443 0 L 378.3142809962305 101.47807107902842 L 378.3142809962305 101.47807107902842" fill-opacity="1" stroke-opacity="1" stroke-linecap="round" stroke-linejoin="round" stroke-miterlimit="10" stroke-width="22"/></g><g><path fill="rgb(19,161,31)" stroke="rgb(252,252,252)" paint-order="fill stroke markers" d=" M 409.6807953521329 139.69688313555062 L 411.3281979895586 181.56768704137218 L 422.6507931891291 190.4833603278814 L 537.5964308072219 163.14172064827358 L 497.7504645999469 75.55307887199656 L 496.2223324407198 75.3994092805208 L 409.6807953521329 139.69688313555062 L 409.6807953521329 139.69688313555062" fill-opacity="1" stroke-opacity="1" stroke-linecap="round" stroke-linejoin="round" stroke-miterlimit="10" stroke-width="22"/></g><g><path fill="rgb(19,161,31)" stroke="rgb(252,252,252)" paint-order="fill stroke markers" d=" M 422.6507931891291 190.4833603278814 L 484.3779329081308 256.7530131213795 L 486.7374845897025 256.65088614253165 L 548.0933223160937 218.9311191621118 L 567.1477776559923 199.4752439868376 L 537.5964308072219 163.14172064827358 L 422.6507931891291 190.4833603278814 L 422.6507931891291 190.4833603278814" fill-opacity="1" stroke-opacity="1" stroke-linecap="round" stroke-linejoin="round" stroke-miterlimit="10" stroke-width="22"/></g><g><path fill="rgb(19,161,31)" stroke="rgb(252,252,252)" paint-order="fill stroke markers" d=" M 368.8792116840734 315.91778872820703 L 481.7922831182793 260.54708304272697 L 484.3779329081308 256.7530131213795 L 422.6507931891291 190.4833603278814 L 411.3281979895586 181.56768704137218 L 374.05845888230004 213.4112279973438 L 368.8792116840734 315.91778872820703 L 368.8792116840734 315.91778872820703" fill-opacity="1" stroke-opacity="1" stroke-linecap="round" stroke-linejoin="round" stroke-miterlimit="10" stroke-width="22"/></g><g><path fill="rgb(19,161,31)" stroke="rgb(252,252,252)" paint-order="fill stroke markers" d=" M 458.804833654398 373.24522671821427 L 480.9862618685404 404.08618755061394 L 490.71373566701345 408.4112068157816 L 522.2642761383485 392.1095672757969 L 520.3152436618005 293.25554502634276 L 486.7374845897025 256.65088614253165 L 484.3779329081308 256.7530131213795 L 481.7922831182793 260.54708304272697 L 458.804833654398 373.24522671821427 L 458.804833654398 373.24522671821427" fill-opacity="1" stroke-opacity="1" stroke-linecap="round" stroke-linejoin="round" stroke-miterlimit="10" stroke-width="22"/></g><g><path fill="rgb(19,161,31)" stroke="rgb(252,252,252)" paint-order="fill stroke markers" d=" M 390.25081269436765 452.88963942226235 L 401.5187371815312 505.68527172010596 L 485.668844250269 530.7318455226622 L 513.9203680559557 513.3967925415097 L 490.71373566701345 408.4112068157816 L 480.9862618685404 404.08618755061394 L 390.25081269436765 452.88963942226235 L 390.25081269436765 452.88963942226235" fill-opacity="1" stroke-opacity="1" stroke-linecap="round" stroke-linejoin="round" stroke-miterlimit="10" stroke-width="22"/></g><g><path fill="rgb(19,161,31)" stroke="rgb(252,252,252)" paint-order="fill stroke markers" d=" M 465.98215225914817 576.3153061381971 L 467.63576494372643 628.6349566709143 L 550.362988455587 634.4999190007643 L 545.7432247906377 523.6314366152278 L 545.2492233389141 523.0064858205264 L 513.9203680559557 513.3967925415097 L 485.668844250269 530.7318455226622 L 465.98215225914817 576.3153061381971 L 465.98215225914817 576.3153061381971" fill-opacity="1" stroke-opacity="1" stroke-linecap="round" stroke-linejoin="round" stroke-miterlimit="10" stroke-width="22"/></g><g><path fill="rgb(19,161,31)" stroke="rgb(252,252,252)" paint-order="fill stroke markers" d=" M 328.7230476581621 581.1101126395197 L 378.5999055951 641.5065568988728 L 402.16845053302103 665.4157283236832 L 417.4881950127139 666.6907597145088 L 449.3030462100413 656.1458455430701 L 467.63576494372643 628.6349566709143 L 465.98215225914817 576.3153061381971 L 328.7230476581621 581.1101126395197 L 328.7230476581621 581.1101126395197" fill-opacity="1" stroke-opacity="1" stroke-linecap="round" stroke-linejoin="round" stroke-miterlimit="10" stroke-width="22"/></g><g><path fill="rgb(19,161,31)" stroke="rgb(252,252,252)" paint-order="fill stroke markers" d=" M 417.4881950127139 666.6907597145088 L 443.67945736988884 782.3993835479865 L 516.5718337791484 726.6950493280082 L 449.3030462100413 656.1458455430701 L 417.4881950127139 666.6907597145088 L 417.4881950127139 666.6907597145088" fill-opacity="1" stroke-opacity="1" stroke-linecap="round" stroke-linejoin="round" stroke-miterlimit="10" stroke-width="22"/></g><g><path fill="rgb(19,161,31)" stroke="rgb(252,252,252)" paint-order="fill stroke markers" d=" M 388.79903828887973 848.7186470019088 L 494.52875125595335 899.2757327926712 L 498.0061247869732 850.0126922062058 L 439.95002350285904 789.0781357760994 L 414.1877539705197 795.0654925239637 L 388.79903828887973 848.7186470019088 L 388.79903828887973 848.7186470019088" fill-opacity="1" stroke-opacity="1" stroke-linecap="round" stroke-linejoin="round" stroke-miterlimit="10" stroke-width="22"/></g><g><path fill="rgb(19,161,31)" stroke="rgb(252,252,252)" paint-order="fill stroke markers" d=" M 364.263262462763 888.6299613550559 L 404.07985474871373 940 L 470.8798702528782 940 L 496.7355181966729 919.9299429762428 L 494.52875125595335 899.2757327926712 L 388.79903828887973 848.7186470019088 L 376.4073426590852 862.8496269155753 L 364.263262462763 888.6299613550559 L 364.263262462763 888.6299613550559" fill-opacity="1" stroke-opacity="1" stroke-linecap="round" stroke-linejoin="round" stroke-miterlimit="10" stroke-width="22"/></g><g><path fill="rgb(19,161,31)" stroke="rgb(252,252,252)" paint-order="fill stroke markers" d=" M 544.385964040054 940 L 543.8678013648986 934.5320904698087 L 496.7355181966729 919.9299429762428 L 470.8798702528782 940 L 544.385964040054 940 L 544.385964040054 940" fill-opacity="1" stroke-opacity="1" stroke-linecap="round" stroke-linejoin="round" stroke-miterlimit="10" stroke-width="22"/></g><g><path fill="rgb(19,161,31)" stroke="rgb(252,252,252)" paint-order="fill stroke markers" d=" M 446.216700854409 0 L 496.2223324407198 75.3994092805208 L 497.7504645999469 75.55307887199656 L 503.6531887972429 73.11817791739968 L 581.3501515681827 21.003067582639964 L 596.8173331760246 7.105427357601002e-15 L 446.216700854409 0 L 446.216700854409 0" fill-opacity="1" stroke-opacity="1" stroke-linecap="round" stroke-linejoin="round" stroke-miterlimit="10" stroke-width="22"/></g><g><path fill="rgb(19,161,31)" stroke="rgb(252,252,252)" paint-order="fill stroke markers" d=" M 497.7504645999469 75.55307887199656 L 537.5964308072219 163.14172064827358 L 567.1477776559923 199.4752439868376 L 590.855153946278 196.62954837510557 L 623.8979983959733 141.76956210088156 L 503.6531887972429 73.11817791739968 L 497.7504645999469 75.55307887199656 L 497.7504645999469 75.55307887199656" fill-opacity="1" stroke-opacity="1" stroke-linecap="round" stroke-linejoin="round" stroke-miterlimit="10" stroke-width="22"/></g><g><path fill="rgb(19,161,31)" stroke="rgb(252,252,252)" paint-order="fill stroke markers" d=" M 548.0933223160937 218.9311191621118 L 586.9802840766938 318.1605213267861 L 600.4629480013934 328.66545893742546 L 611.4779380040543 318.27778035067297 L 628.897390526067 232.95012926704592 L 590.855153946278 196.62954837510557 L 567.1477776559923 199.4752439868376 L 548.0933223160937 218.9311191621118 L 548.0933223160937 218.9311191621118" fill-opacity="1" stroke-opacity="1" stroke-linecap="round" stroke-linejoin="round" stroke-miterlimit="10" stroke-width="22"/></g><g><path fill="rgb(19,161,31)" stroke="rgb(252,252,252)" paint-order="fill stroke markers" d=" M 486.7374845897025 256.65088614253165 L 520.3152436618005 293.25554502634276 L 586.9802840766938 318.1605213267861 L 548.0933223160937 218.9311191621118 L 486.7374845897025 256.65088614253165 L 486.7374845897025 256.65088614253165" fill-opacity="1" stroke-opacity="1" stroke-linecap="round" stroke-linejoin="round" stroke-miterlimit="10" stroke-width="22"/></g><g><path fill="rgb(19,161,31)" stroke="rgb(252,252,252)" paint-order="fill stroke markers" d=" M 520.3152436618005 293.25554502634276 L 522.2642761383485 392.1095672757969 L 552.132131627832 385.5539910093833 L 595.6679395628066 354.86830457900385 L 600.4629480013934 328.66545893742546 L 586.9802840766938 318.1605213267861 L 520.3152436618005 293.25554502634276 L 520.3152436618005 293.25554502634276" fill-opacity="1" stroke-opacity="1" stroke-linecap="round" stroke-linejoin="round" stroke-miterlimit="10" stroke-width="22"/></g><g><path fill="rgb(19,161,31)" stroke="rgb(252,252,252)" paint-order="fill stroke markers" d=" M 490.71373566701345 408.4112068157816 L 513.9203680559557 513.3967925415097 L 545.2492233389141 523.0064858205264 L 597.7262530227541 476.0204291018573 L 599.4539035019601 454.97134063492354 L 552.132131627832 385.5539910093833 L 522.2642761383485 392.1095672757969 L 490.71373566701345 408.4112068157816 L 490.71373566701345 408.4112068157816" fill-opacity="1" stroke-opacity="1" stroke-linecap="round" stroke-linejoin="round" stroke-miterlimit="10" stroke-width="22"/></g><g><path fill="rgb(19,161,31)" stroke="rgb(252,252,252)" paint-order="fill stroke markers" d=" M 545.7432247906377 523.6314366152278 L 550.362988455587 634.4999190007643 L 558.967342838296 642.9774512913536 L 614.4195273042089 633.0358601473768 L 634.676944272163 571.3854251161448 L 545.7432247906377 523.6314366152278 L 545.7432247906377 523.6314366152278" fill-opacity="1" stroke-opacity="1" stroke-linecap="round" stroke-linejoin="round" stroke-miterlimit="10" stroke-width="22"/></g><g><path fill="rgb(19,161,31)" stroke="rgb(252,252,252)" paint-order="fill stroke markers" d=" M 449.3030462100413 656.1458455430701 L 516.5718337791484 726.6950493280082 L 544.5524620187334 727.7430997098153 L 558.967342838296 642.9774512913536 L 550.362988455587 634.4999190007643 L 467.63576494372643 628.6349566709143 L 449.3030462100413 656.1458455430701 L 449.3030462100413 656.1458455430701" fill-opacity="1" stroke-opacity="1" stroke-linecap="round" stroke-linejoin="round" stroke-miterlimit="10" stroke-width="22"/></g><g><path fill="rgb(19,161,31)" stroke="rgb(252,252,252)" paint-order="fill stroke markers" d=" M 544.5524620187334 727.7430997098153 L 572.9504134006977 750.940619686671 L 617.1501846941243 720.4498633712221 L 645.2837263574504 670.1220102910409 L 614.4195273042089 633.0358601473768 L 558.967342838296 642.9774512913536 L 544.5524620187334 727.7430997098153 L 544.5524620187334 727.7430997098153" fill-opacity="1" stroke-opacity="1" stroke-linecap="round" stroke-linejoin="round" stroke-miterlimit="10" stroke-width="22"/></g><g><path fill="rgb(19,161,31)" stroke="rgb(252,252,252)" paint-order="fill stroke markers" d=" M 439.95002350285904 789.0781357760994 L 498.0061247869732 850.0126922062058 L 582.8427725079372 793.5961543426131 L 572.9504134006977 750.940619686671 L 544.5524620187334 727.7430997098153 L 516.5718337791484 726.6950493280082 L 443.67945736988884 782.3993835479865 L 439.95002350285904 789.0781357760994 L 439.95002350285904 789.0781357760994" fill-opacity="1" stroke-opacity="1" stroke-linecap="round" stroke-linejoin="round" stroke-miterlimit="10" stroke-width="22"/></g><g><path fill="rgb(19,161,31)" stroke="rgb(252,252,252)" paint-order="fill stroke markers" d=" M 494.52875125595335 899.2757327926712 L 496.7355181966729 919.9299429762428 L 543.8678013648986 934.5320904698087 L 595.3998798116885 925.4567057911719 L 609.6395389723599 815.0441936540345 L 582.8427725079372 793.5961543426131 L 498.0061247869732 850.0126922062058 L 494.52875125595335 899.2757327926712 L 494.52875125595335 899.2757327926712" fill-opacity="1" stroke-opacity="1" stroke-linecap="round" stroke-linejoin="round" stroke-miterlimit="10" stroke-width="22"/></g><g><path fill="rgb(19,161,31)" stroke="rgb(252,252,252)" paint-order="fill stroke markers" d=" M 543.8678013648986 934.5320904698087 L 544.385964040054 940 L 601.3668481412312 940 L 596.1544053338123 925.8628231951525 L 595.3998798116885 925.4567057911719 L 543.8678013648986 934.5320904698087 L 543.8678013648986 934.5320904698087" fill-opacity="1" stroke-opacity="1" stroke-linecap="round" stroke-linejoin="round" stroke-miterlimit="10" stroke-width="22"/></g><g><path fill="rgb(19,161,31)" stroke="rgb(252,252,252)" paint-order="fill stroke markers" d=" M 581.3501515681827 21.003067582639964 L 626.878131770269 139.03497423341463 L 667.2206630073533 127.59855653588846 L 705.9918593800923 72.52470661135139 L 693.5501338645552 23.84665660318655 L 677.0415426669424 0 L 596.8173331760246 7.105427357601002e-15 L 581.3501515681827 21.003067582639964 L 581.3501515681827 21.003067582639964" fill-opacity="1" stroke-opacity="1" stroke-linecap="round" stroke-linejoin="round" stroke-miterlimit="10" stroke-width="22"/></g><g><path fill="rgb(19,161,31)" stroke="rgb(252,252,252)" paint-order="fill stroke markers" d=" M 503.6531887972429 73.11817791739968 L 623.8979983959733 141.76956210088156 L 626.878131770269 139.03497423341463 L 581.3501515681827 21.003067582639964 L 503.6531887972429 73.11817791739968 L 503.6531887972429 73.11817791739968" fill-opacity="1" stroke-opacity="1" stroke-linecap="round" stroke-linejoin="round" stroke-miterlimit="10" stroke-width="22"/></g><g><path fill="rgb(19,161,31)" stroke="rgb(252,252,252)" paint-order="fill stroke markers" d=" M 590.855153946278 196.62954837510557 L 628.897390526067 232.95012926704592 L 672.1107683301705 235.63907928463524 L 688.9738438971062 159.21436974397844 L 667.2206630073533 127.59855653588846 L 626.878131770269 139.03497423341463 L 623.8979983959733 141.76956210088156 L 590.855153946278 196.62954837510557 L 590.855153946278 196.62954837510557" fill-opacity="1" stroke-opacity="1" stroke-linecap="round" stroke-linejoin="round" stroke-miterlimit="10" stroke-width="22"/></g><g><path fill="rgb(19,161,31)" stroke="rgb(252,252,252)" paint-order="fill stroke markers" d=" M 611.4779380040543 318.27778035067297 L 705.3019218807326 314.4362695858971 L 712.725435366732 298.49403050906085 L 707.7060718772098 284.2486561693536 L 684.7621553177984 242.03587147450756 L 672.1107683301705 235.63907928463524 L 628.897390526067 232.95012926704592 L 611.4779380040543 318.27778035067297 L 611.4779380040543 318.27778035067297" fill-opacity="1" stroke-opacity="1" stroke-linecap="round" stroke-linejoin="round" stroke-miterlimit="10" stroke-width="22"/></g><g><path fill="rgb(19,161,31)" stroke="rgb(252,252,252)" paint-order="fill stroke markers" d=" M 552.132131627832 385.5539910093833 L 599.4539035019601 454.97134063492354 L 651.8991522121219 400.75137298974465 L 595.6679395628066 354.86830457900385 L 552.132131627832 385.5539910093833 L 552.132131627832 385.5539910093833" fill-opacity="1" stroke-opacity="1" stroke-linecap="round" stroke-linejoin="round" stroke-miterlimit="10" stroke-width="22"/></g><g><path fill="rgb(19,161,31)" stroke="rgb(252,252,252)" paint-order="fill stroke markers" d=" M 597.7262530227541 476.0204291018573 L 688.8709401252056 491.71431124518915 L 703.0275891730996 440.855548913061 L 696.9419505010408 411.0610931114602 L 651.8991522121219 400.75137298974465 L 599.4539035019601 454.97134063492354 L 597.7262530227541 476.0204291018573 L 597.7262530227541 476.0204291018573" fill-opacity="1" stroke-opacity="1" stroke-linecap="round" stroke-linejoin="round" stroke-miterlimit="10" stroke-width="22"/></g><g><path fill="rgb(19,161,31)" stroke="rgb(252,252,252)" paint-order="fill stroke markers" d=" M 545.2492233389141 523.0064858205264 L 545.7432247906377 523.6314366152278 L 634.676944272163 571.3854251161448 L 689.0312089774152 552.4692462055503 L 699.5408927775276 539.3957741399907 L 688.8709401252056 491.71431124518915 L 597.7262530227541 476.0204291018573 L 545.2492233389141 523.0064858205264 L 545.2492233389141 523.0064858205264" fill-opacity="1" stroke-opacity="1" stroke-linecap="round" stroke-linejoin="round" stroke-miterlimit="10" stroke-width="22"/></g><g><path fill="rgb(19,161,31)" stroke="rgb(252,252,252)" paint-order="fill stroke markers" d=" M 614.4195273042089 633.0358601473768 L 645.2837263574504 670.1220102910409 L 686.4538963704539 670.3216755971614 L 709.1510340210785 645.3017805129618 L 689.0312089774152 552.4692462055503 L 634.676944272163 571.3854251161448 L 614.4195273042089 633.0358601473768 L 614.4195273042089 633.0358601473768" fill-opacity="1" stroke-opacity="1" stroke-linecap="round" stroke-linejoin="round" stroke-miterlimit="10" stroke-width="22"/></g><g><path fill="rgb(19,161,31)" stroke="rgb(252,252,252)" paint-order="fill stroke markers" d=" M 617.1501846941243 720.4498633712221 L 715.3958383194133 760.7437750845398 L 716.540775184226 745.9202921606266 L 686.4538963704539 670.3216755971614 L 645.2837263574504 670.1220102910409 L 617.1501846941243 720.4498633712221 L 617.1501846941243 720.4498633712221" fill-opacity="1" stroke-opacity="1" stroke-linecap="round" stroke-linejoin="round" stroke-miterlimit="10" stroke-width="22"/></g><g><path fill="rgb(19,161,31)" stroke="rgb(252,252,252)" paint-order="fill stroke markers" d=" M 572.9504134006977 750.940619686671 L 582.8427725079372 793.5961543426131 L 609.6395389723599 815.0441936540345 L 669.7760783434898 816.1445714465596 L 719.437055243297 778.2156568833761 L 715.3958383194133 760.7437750845398 L 617.1501846941243 720.4498633712221 L 572.9504134006977 750.940619686671 L 572.9504134006977 750.940619686671" fill-opacity="1" stroke-opacity="1" stroke-linecap="round" stroke-linejoin="round" stroke-miterlimit="10" stroke-width="22"/></g><g><path fill="rgb(19,161,31)" stroke="rgb(252,252,252)" paint-order="fill stroke markers" d=" M 595.3998798116885 925.4567057911719 L 596.1544053338123 925.8628231951525 L 685.1799879517281 920.3029833202089 L 681.3836338984769 855.3698269983954 L 669.7760783434898 816.1445714465596 L 609.6395389723599 815.0441936540345 L 595.3998798116885 925.4567057911719 L 595.3998798116885 925.4567057911719" fill-opacity="1" stroke-opacity="1" stroke-linecap="round" stroke-linejoin="round" stroke-miterlimit="10" stroke-width="22"/></g><g><path fill="rgb(19,161,31)" stroke="rgb(252,252,252)" paint-order="fill stroke markers" d=" M 596.1544053338123 925.8628231951525 L 601.3668481412312 940 L 691.5776045269506 940 L 692.3797374751697 925.387345375414 L 685.1799879517281 920.3029833202089 L 596.1544053338123 925.8628231951525 L 596.1544053338123 925.8628231951525" fill-opacity="1" stroke-opacity="1" stroke-linecap="round" stroke-linejoin="round" stroke-miterlimit="10" stroke-width="22"/></g><g><path fill="rgb(19,161,31)" stroke="rgb(252,252,252)" paint-order="fill stroke markers" d=" M 677.0415426669424 0 L 693.5501338645552 23.84665660318655 L 846 7.2811004434575075 L 846 0 L 677.0415426669424 0 L 677.0415426669424 0" fill-opacity="1" stroke-opacity="1" stroke-linecap="round" stroke-linejoin="round" stroke-miterlimit="10" stroke-width="22"/></g><g><path fill="rgb(19,161,31)" stroke="rgb(252,252,252)" paint-order="fill stroke markers" d=" M 667.2206630073533 127.59855653588846 L 688.9738438971062 159.21436974397844 L 758.1227164303157 189.12426337984695 L 793.6737785554228 184.8397101203647 L 734.8543605995275 87.13833670752881 L 705.9918593800923 72.52470661135139 L 667.2206630073533 127.59855653588846 L 667.2206630073533 127.59855653588846" fill-opacity="1" stroke-opacity="1" stroke-linecap="round" stroke-linejoin="round" stroke-miterlimit="10" stroke-width="22"/></g><g><path fill="rgb(19,161,31)" stroke="rgb(252,252,252)" paint-order="fill stroke markers" d=" M 672.1107683301705 235.63907928463524 L 684.7621553177984 242.03587147450756 L 758.1227164303157 189.12426337984695 L 688.9738438971062 159.21436974397844 L 672.1107683301705 235.63907928463524 L 672.1107683301705 235.63907928463524" fill-opacity="1" stroke-opacity="1" stroke-linecap="round" stroke-linejoin="round" stroke-miterlimit="10" stroke-width="22"/></g><g><path fill="rgb(19,161,31)" stroke="rgb(252,252,252)" paint-order="fill stroke markers" d=" M 684.7621553177984 242.03587147450756 L 707.7060718772098 284.2486561693536 L 795.0570284909932 185.399202969391 L 793.6737785554228 184.8397101203647 L 758.1227164303157 189.12426337984695 L 684.7621553177984 242.03587147450756 L 684.7621553177984 242.03587147450756" fill-opacity="1" stroke-opacity="1" stroke-linecap="round" stroke-linejoin="round" stroke-miterlimit="10" stroke-width="22"/></g><g><path fill="rgb(19,161,31)" stroke="rgb(252,252,252)" paint-order="fill stroke markers" d=" M 595.6679395628066 354.86830457900385 L 651.8991522121219 400.75137298974465 L 696.9419505010408 411.0610931114602 L 716.7216422027376 382.0164482902574 L 705.3019218807326 314.4362695858971 L 611.4779380040543 318.27778035067297 L 600.4629480013934 328.66545893742546 L 595.6679395628066 354.86830457900385 L 595.6679395628066 354.86830457900385" fill-opacity="1" stroke-opacity="1" stroke-linecap="round" stroke-linejoin="round" stroke-miterlimit="10" stroke-width="22"/></g><g><path fill="rgb(19,161,31)" stroke="rgb(252,252,252)" paint-order="fill stroke markers" d=" M 696.9419505010408 411.0610931114602 L 703.0275891730996 440.855548913061 L 824.8694698676865 467.19116898609525 L 846 460.50034988589937 L 846 443.5699690465838 L 788.2368550926994 375.5468958659806 L 716.7216422027376 382.0164482902574 L 696.9419505010408 411.0610931114602 L 696.9419505010408 411.0610931114602" fill-opacity="1" stroke-opacity="1" stroke-linecap="round" stroke-linejoin="round" stroke-miterlimit="10" stroke-width="22"/></g><g><path fill="rgb(19,161,31)" stroke="rgb(252,252,252)" paint-order="fill stroke markers" d=" M 689.0312089774152 552.4692462055503 L 709.1510340210785 645.3017805129618 L 762.6441857702563 649.0352177732059 L 785.3017960607586 632.2320399895384 L 799.1819960340049 594.2481491142652 L 742.6494851302779 544.3326330034027 L 699.5408927775276 539.3957741399907 L 689.0312089774152 552.4692462055503 L 689.0312089774152 552.4692462055503" fill-opacity="1" stroke-opacity="1" stroke-linecap="round" stroke-linejoin="round" stroke-miterlimit="10" stroke-width="22"/></g><g><path fill="rgb(19,161,31)" stroke="rgb(252,252,252)" paint-order="fill stroke markers" d=" M 686.4538963704539 670.3216755971614 L 716.540775184226 745.9202921606266 L 767.5178423433391 694.0996475769563 L 762.6441857702563 649.0352177732059 L 709.1510340210785 645.3017805129618 L 686.4538963704539 670.3216755971614 L 686.4538963704539 670.3216755971614" fill-opacity="1" stroke-opacity="1" stroke-linecap="round" stroke-linejoin="round" stroke-miterlimit="10" stroke-width="22"/></g><g><path fill="rgb(19,161,31)" stroke="rgb(252,252,252)" paint-order="fill stroke markers" d=" M 715.3958383194133 760.7437750845398 L 719.437055243297 778.2156568833761 L 756.5153177497316 792.9422155769394 L 846 758.9942929076952 L 846 736.3915259616374 L 767.5178423433391 694.0996475769563 L 716.540775184226 745.9202921606266 L 715.3958383194133 760.7437750845398 L 715.3958383194133 760.7437750845398" fill-opacity="1" stroke-opacity="1" stroke-linecap="round" stroke-linejoin="round" stroke-miterlimit="10" stroke-width="22"/></g><g><path fill="rgb(19,161,31)" stroke="rgb(252,252,252)" paint-order="fill stroke markers" d=" M 669.7760783434898 816.1445714465596 L 681.3836338984769 855.3698269983954 L 749.7220637321474 868.1562605200826 L 761.0330681303617 811.813607541272 L 756.5153177497316 792.9422155769394 L 719.437055243297 778.2156568833761 L 669.7760783434898 816.1445714465596 L 669.7760783434898 816.1445714465596" fill-opacity="1" stroke-opacity="1" stroke-linecap="round" stroke-linejoin="round" stroke-miterlimit="10" stroke-width="22"/></g><g><path fill="rgb(19,161,31)" stroke="rgb(252,252,252)" paint-order="fill stroke markers" d=" M 681.3836338984769 855.3698269983954 L 685.1799879517281 920.3029833202089 L 692.3797374751697 925.387345375414 L 712.3986568056515 923.5967111012866 L 751.7077713059957 884.9919157087643 L 749.7220637321474 868.1562605200826 L 681.3836338984769 855.3698269983954 L 681.3836338984769 855.3698269983954" fill-opacity="1" stroke-opacity="1" stroke-linecap="round" stroke-linejoin="round" stroke-miterlimit="10" stroke-width="22"/></g><g><path fill="rgb(19,161,31)" stroke="rgb(252,252,252)" paint-order="fill stroke markers" d=" M 738.0846887422587 940 L 712.3986568056515 923.5967111012866 L 692.3797374751697 925.387345375414 L 691.5776045269506 940 L 738.0846887422587 940 L 738.0846887422587 940" fill-opacity="1" stroke-opacity="1" stroke-linecap="round" stroke-linejoin="round" stroke-miterlimit="10" stroke-width="22"/></g><g><path fill="rgb(19,161,31)" stroke="rgb(252,252,252)" paint-order="fill stroke markers" d=" M 693.5501338645552 23.84665660318655 L 705.9918593800923 72.52470661135139 L 734.8543605995275 87.13833670752881 L 846 56.23538097362603 L 846 7.2811004434575075 L 693.5501338645552 23.84665660318655 L 693.5501338645552 23.84665660318655" fill-opacity="1" stroke-opacity="1" stroke-linecap="round" stroke-linejoin="round" stroke-miterlimit="10" stroke-width="22"/></g><g><path fill="rgb(19,161,31)" stroke="rgb(252,252,252)" paint-order="fill stroke markers" d=" M 734.8543605995275 87.13833670752881 L 793.6737785554228 184.8397101203647 L 795.0570284909932 185.399202969391 L 846 200.33025300589222 L 846 56.23538097362603 L 734.8543605995275 87.13833670752881 L 734.8543605995275 87.13833670752881" fill-opacity="1" stroke-opacity="1" stroke-linecap="round" stroke-linejoin="round" stroke-miterlimit="10" stroke-width="22"/></g><g><path fill="rgb(19,161,31)" stroke="rgb(252,252,252)" paint-order="fill stroke markers" d=" M 707.7060718772098 284.2486561693536 L 712.725435366732 298.49403050906085 L 826.9542386611513 280.0333929080875 L 846 264.48441925823323 L 846 200.33025300589222 L 795.0570284909932 185.399202969391 L 707.7060718772098 284.2486561693536 L 707.7060718772098 284.2486561693536" fill-opacity="1" stroke-opacity="1" stroke-linecap="round" stroke-linejoin="round" stroke-miterlimit="10" stroke-width="22"/></g><g><path fill="rgb(19,161,31)" stroke="rgb(252,252,252)" paint-order="fill stroke markers" d=" M 705.3019218807326 314.4362695858971 L 716.7216422027376 382.0164482902574 L 788.2368550926994 375.5468958659806 L 826.9542386611513 280.0333929080875 L 712.725435366732 298.49403050906085 L 705.3019218807326 314.4362695858971 L 705.3019218807326 314.4362695858971" fill-opacity="1" stroke-opacity="1" stroke-linecap="round" stroke-linejoin="round" stroke-miterlimit="10" stroke-width="22"/></g><g><path fill="rgb(19,161,31)" stroke="rgb(252,252,252)" paint-order="fill stroke markers" d=" M 788.2368550926994 375.5468958659806 L 846 443.5699690465838 L 846 264.48441925823323 L 826.9542386611513 280.0333929080875 L 788.2368550926994 375.5468958659806 L 788.2368550926994 375.5468958659806" fill-opacity="1" stroke-opacity="1" stroke-linecap="round" stroke-linejoin="round" stroke-miterlimit="10" stroke-width="22"/></g><g><path fill="rgb(19,161,31)" stroke="rgb(252,252,252)" paint-order="fill stroke markers" d=" M 688.8709401252056 491.71431124518915 L 699.5408927775276 539.3957741399907 L 742.6494851302779 544.3326330034027 L 824.8694698676865 467.19116898609525 L 703.0275891730996 440.855548913061 L 688.8709401252056 491.71431124518915 L 688.8709401252056 491.71431124518915" fill-opacity="1" stroke-opacity="1" stroke-linecap="round" stroke-linejoin="round" stroke-miterlimit="10" stroke-width="22"/></g><g><path fill="rgb(19,161,31)" stroke="rgb(252,252,252)" paint-order="fill stroke markers" d=" M 742.6494851302779 544.3326330034027 L 799.1819960340049 594.2481491142652 L 846 580.1536877862094 L 846 460.50034988589937 L 824.8694698676865 467.19116898609525 L 742.6494851302779 544.3326330034027 L 742.6494851302779 544.3326330034027" fill-opacity="1" stroke-opacity="1" stroke-linecap="round" stroke-linejoin="round" stroke-miterlimit="10" stroke-width="22"/></g><g><path fill="rgb(19,161,31)" stroke="rgb(252,252,252)" paint-order="fill stroke markers" d=" M 785.3017960607586 632.2320399895384 L 846 688.6068241025474 L 846 580.1536877862094 L 799.1819960340049 594.2481491142652 L 785.3017960607586 632.2320399895384 L 785.3017960607586 632.2320399895384" fill-opacity="1" stroke-opacity="1" stroke-linecap="round" stroke-linejoin="round" stroke-miterlimit="10" stroke-width="22"/></g><g><path fill="rgb(19,161,31)" stroke="rgb(252,252,252)" paint-order="fill stroke markers" d=" M 762.6441857702563 649.0352177732059 L 767.5178423433391 694.0996475769563 L 846 736.3915259616374 L 846 688.6068241025474 L 785.3017960607586 632.2320399895384 L 762.6441857702563 649.0352177732059 L 762.6441857702563 649.0352177732059" fill-opacity="1" stroke-opacity="1" stroke-linecap="round" stroke-linejoin="round" stroke-miterlimit="10" stroke-width="22"/></g><g><path fill="rgb(19,161,31)" stroke="rgb(252,252,252)" paint-order="fill stroke markers" d=" M 756.5153177497316 792.9422155769394 L 761.0330681303617 811.813607541272 L 846 898.2962033730058 L 846 758.9942929076952 L 756.5153177497316 792.9422155769394 L 756.5153177497316 792.9422155769394" fill-opacity="1" stroke-opacity="1" stroke-linecap="round" stroke-linejoin="round" stroke-miterlimit="10" stroke-width="22"/></g><g><path fill="rgb(19,161,31)" stroke="rgb(252,252,252)" paint-order="fill stroke markers" d=" M 749.7220637321474 868.1562605200826 L 751.7077713059957 884.9919157087643 L 846 913.8603823733338 L 846 898.2962033730058 L 761.0330681303617 811.813607541272 L 749.7220637321474 868.1562605200826 L 749.7220637321474 868.1562605200826" fill-opacity="1" stroke-opacity="1" stroke-linecap="round" stroke-linejoin="round" stroke-miterlimit="10" stroke-width="22"/></g><g><path fill="rgb(19,161,31)" stroke="rgb(252,252,252)" paint-order="fill stroke markers" d=" M 712.3986568056515 923.5967111012866 L 738.0846887422587 940 L 846 940 L 846 913.8603823733338 L 751.7077713059957 884.9919157087643 L 712.3986568056515 923.5967111012866 L 712.3986568056515 923.5967111012866" fill-opacity="1" stroke-opacity="1" stroke-linecap="round" stroke-linejoin="round" stroke-miterlimit="10" stroke-width="22"/></g></g></g></svg>